<svg width="140" height="484" viewBox="0 0 140 484" fill="none" xmlns="http://www.w3.org/2000/svg">
<path d="M66.4 358.8L0.399963 3.9C0.699963 3.5 2.19997 1.1 5.29997 0.400003C8.59997 -0.299997 11.1 1.5 11.5 1.8C33.5 120.1 55.5 238.4 77.5 356.7L66.4 358.8Z" fill="#966E44"/>
<path d="M139.2 463.1C135 466 128.9 469.7 121.3 473.1C115.9 475.5 109.7 477.8 102.8 479.7C100 480.4 97 481.1 93.9 481.7C90.4 482.3 87 482.8 83.7 483.1C76.5 483.8 69.9 483.8 64 483.3C55.6 482.7 48.6 481.3 43.7 480.1C44.1 463.3 45.6 444 49.2 422.9C51.9 407.2 55.3 393.3 58.8 381.3C60.9 380.9 63.1 380.5 65.2 380.1C67.3 379.7 69.4 379.3 71.5 379C73.6 378.6 75.8 378.2 77.9 377.9C80 377.5 82.1 377.1 84.3 376.8C86.4 376.4 88.5 376.1 90.6 375.7C98.4 385.6 107.1 397.9 115.6 412.8C126.3 431.1 133.8 448.5 139.2 463.1Z" fill="#D7B275"/>
<path d="M65.2 380.2L63.9 482.9" stroke="#AD8653" stroke-width="0.5622" stroke-miterlimit="10"/>
<path d="M71.6 379L83.6 483.3" stroke="#AD8653" stroke-width="0.5622" stroke-miterlimit="10"/>
<path d="M77.9 377.9L102.7 479.9" stroke="#AD8653" stroke-width="0.5622" stroke-miterlimit="10"/>
<path d="M84.3 376.8L121.2 472.7" stroke="#AD8653" stroke-width="0.5622" stroke-miterlimit="10"/>
<path d="M88.2 361.6L81.8 362.7L75.4 363.8L69 365L62.6 366.1L56.2 367.2L37.7 329.8C40.8 328.3 44.6 326.6 49 325.1C52.1 324 55.4 323 59 322.2C60.5 321.8 62.2 321.5 63.8 321.2C65.9 320.8 68 320.5 69.9 320.3C73.9 319.8 77.6 319.6 81.1 319.6C85.4 319.5 89.2 319.8 92.5 320.1C91.1 333.9 89.6 347.8 88.2 361.6Z" fill="#D7B275"/>
<path d="M48.8 325.3L62.7 366.2" stroke="#AD8653" stroke-width="0.5622" stroke-miterlimit="10"/>
<path d="M69.1 365L58.9 322.2" stroke="#AD8653" stroke-width="0.5622" stroke-miterlimit="10"/>
<path d="M71.8 319.9L76.2 363.7" stroke="#AD8653" stroke-width="0.5622" stroke-miterlimit="10"/>
<path d="M82.2 319.5L82.6 362.7" stroke="#AD8653" stroke-width="0.5622" stroke-miterlimit="10"/>
<path d="M89.3 366.8L57 372.6C56.7 372.4 55.9 371.8 55.6 370.7C55.1 369 56 367.6 56.1 367.4C66.9 365.5 77.6 363.6 88.4 361.6C88.6 361.7 89.9 362.8 90 364.5C90 365.7 89.5 366.5 89.3 366.8Z" fill="#C1272D"/>
<path d="M90.2 371.3L58 377.1C57.7 376.9 56.9 376.3 56.6 375.2C56.1 373.5 57 372.1 57.1 371.9C67.9 370 78.6 368.1 89.4 366.1C89.6 366.2 90.9 367.3 91 369C91 370.2 90.4 371 90.2 371.3Z" fill="#C1272D"/>
<path d="M91.2 376.4L58.9 382.2C58.6 382 57.8 381.4 57.5 380.3C57 378.6 57.9 377.2 58 377C68.8 375.1 79.5 373.2 90.3 371.2C90.5 371.3 91.8 372.4 91.9 374.1C91.9 375.3 91.4 376.1 91.2 376.4Z" fill="#C1272D"/>
</svg>
