<svg width="97" height="138" viewBox="0 0 97 138" fill="none" xmlns="http://www.w3.org/2000/svg">
<path d="M29.3 122.5C28.2 123.1 23 126 14.8 126C13.3 126 6.19999 125.9 0.299988 122.5C0.299988 96 0.299988 69.4 0.299988 42.9C2.19999 42.1 7.49999 40.3 14.8 40.3C17.1 40.3 23.2 40.5 29.3 42.9C29.3 69.4 29.3 95.9 29.3 122.5Z" fill="#FFF9B4"/>
<path d="M29.3 122.5C28.2 123.1 23 126 14.8 126C13.3 126 6.19999 125.9 0.299988 122.5C0.299988 96 0.299988 69.7 0.299988 43.2C0.699988 43.6 5.79999 45.8 14.8 45.8C23.8 45.8 28.9 43.6 29.3 43.2C29.3 69.7 29.3 96 29.3 122.5Z" fill="#FFE89F"/>
<path d="M14.8 43.2V38.8" stroke="#262626" stroke-width="0.7263" stroke-miterlimit="10"/>
<path d="M23.7 23.4L19.8 16.1L15.2 7.30002L10.6 16.1L6.90002 23.1C5.40002 26 4.90002 28.1 4.90002 29.4C4.90002 35.3 9.50001 40.1 15.2 40.1C20.9 40.1 25.5 35.3 25.5 29.4C25.4 27.6 24.6 25.4 23.7 23.4Z" fill="#F7931E"/>
<path d="M15.1 40.2C9.99998 40.2 5.90002 35.9 5.90002 30.6C5.90002 29.9 6.09999 28.1 7.79999 24.8L15.1 10.9L22.6 25.1C23.7 27.4 24.3 29.2 24.3 30.6C24.4 35.8 20.2 40.2 15.1 40.2Z" fill="#FBB03B"/>
<path d="M15.1 40.2C11.1 40.2 7.79999 36.8 7.79999 32.5C7.79999 32.2 7.9 30.6 9.5 27.5L15.1 16.8L20.9 27.8C21.9 29.7 22.3 31.3 22.3 32.4C22.4 36.7 19.2 40.2 15.1 40.2Z" fill="#FCD621"/>
<path d="M62.7 134.4C61.6 135 56.4 137.9 48.2 137.9C46.7 137.9 39.6 137.8 33.7 134.4C33.7 107.9 33.7 81.3 33.7 54.8C35.6 54 40.9 52.2 48.2 52.2C50.5 52.2 56.6 52.4 62.7 54.8C62.7 81.4 62.7 107.9 62.7 134.4Z" fill="#FFF9B4"/>
<path d="M62.7 134.4C61.6 135 56.4 137.9 48.2 137.9C46.7 137.9 39.6 137.8 33.7 134.4C33.7 107.9 33.7 81.6 33.7 55.1C34.1 55.5 39.2 57.7 48.2 57.7C57.2 57.7 62.3 55.5 62.7 55.1C62.7 81.6 62.7 107.9 62.7 134.4Z" fill="#FFE89F"/>
<path d="M48.2 55.1V50.8" stroke="#262626" stroke-width="0.7263" stroke-miterlimit="10"/>
<path d="M57.1 35.4L53.2 28.1L48.6 19.3L44 28.1L40.3 35.1C38.8 38 38.3 40.1 38.3 41.4C38.3 47.3 42.9 52.1 48.6 52.1C54.3 52.1 58.9 47.3 58.9 41.4C58.9 39.5 58.1 37.4 57.1 35.4Z" fill="#F7931E"/>
<path d="M48.6 52.1C43.5 52.1 39.4 47.8 39.4 42.5C39.4 41.8 39.6 40 41.3 36.7L48.6 22.8L56.1 37C57.2 39.3 57.8 41.1 57.8 42.5C57.8 47.8 53.6 52.1 48.6 52.1Z" fill="#FBB03B"/>
<path d="M48.6 52.1C44.6 52.1 41.3 48.7 41.3 44.4C41.3 44.1 41.4 42.5 43 39.4L48.6 28.7L54.4 39.7C55.4 41.6 55.8 43.2 55.8 44.3C55.8 48.7 52.6 52.1 48.6 52.1Z" fill="#FCD621"/>
<path d="M96.5 115.2C95.4 115.8 90.2 118.7 82 118.7C80.5 118.7 73.4 118.6 67.5 115.2C67.5 88.7 67.5 62.1 67.5 35.6C69.4 34.8 74.7 33 82 33C84.3 33 90.4 33.2 96.5 35.6C96.5 62.1 96.5 88.6 96.5 115.2Z" fill="#FFF9B4"/>
<path d="M96.5 115.2C95.4 115.8 90.2 118.7 82 118.7C80.5 118.7 73.4 118.6 67.5 115.2C67.5 88.7 67.5 62.4 67.5 35.9C67.9 36.3 73 38.5 82 38.5C91 38.5 96.1 36.3 96.5 35.9C96.5 62.4 96.5 88.7 96.5 115.2Z" fill="#FFE89F"/>
<path d="M82 35.9V31.5" stroke="#262626" stroke-width="0.7263" stroke-miterlimit="10"/>
<path d="M90.8 16.1L86.9 8.80002L82.3 0L77.7 8.80002L74 15.8C72.5 18.7 72 20.8 72 22.1C72 28 76.6 32.8 82.3 32.8C88 32.8 92.6 28 92.6 22.1C92.6 20.3 91.8 18.1 90.8 16.1Z" fill="#F7931E"/>
<path d="M82.3 32.8C77.2 32.8 73.1 28.5 73.1 23.2C73.1 22.5 73.3 20.7 75 17.4L82.3 3.5L89.8 17.7C90.9 20 91.5 21.8 91.5 23.2C91.5 28.5 87.4 32.8 82.3 32.8Z" fill="#FBB03B"/>
<path d="M82.3 32.8C78.3 32.8 75 29.4 75 25.1C75 24.8 75.1 23.2 76.7 20.1L82.3 9.39999L88.1 20.4C89.1 22.3 89.5 23.9 89.5 25C89.6 29.4 86.3 32.8 82.3 32.8Z" fill="#FCD621"/>
</svg>
