<svg width="97" height="139" viewBox="0 0 97 139" fill="none" xmlns="http://www.w3.org/2000/svg">
<path d="M29.3 122.9C28.2 123.5 23 126.4 14.8 126.4C13.3 126.4 6.19999 126.3 0.299988 122.9C0.299988 96.4 0.299988 69.8 0.299988 43.3C2.19999 42.5 7.49999 40.7 14.8 40.7C17.1 40.7 23.2 40.9 29.3 43.3C29.3 69.8 29.3 96.3 29.3 122.9Z" fill="#FFF9B4"/>
<path d="M29.3 122.9C28.2 123.5 23 126.4 14.8 126.4C13.3 126.4 6.19999 126.3 0.299988 122.9C0.299988 96.4 0.299988 70.1 0.299988 43.6C0.699988 44 5.79999 46.2 14.8 46.2C23.8 46.2 28.9 44 29.3 43.6C29.3 70.1 29.3 96.4 29.3 122.9Z" fill="#FFE89F"/>
<path d="M14.8 43.6V39.2" stroke="#262626" stroke-width="0.7263" stroke-miterlimit="10"/>
<path d="M62.7 134.8C61.6 135.4 56.4 138.3 48.2 138.3C46.7 138.3 39.6 138.2 33.7 134.8C33.7 108.3 33.7 81.7 33.7 55.2C35.6 54.4 40.9 52.6 48.2 52.6C50.5 52.6 56.6 52.8 62.7 55.2C62.7 81.8 62.7 108.3 62.7 134.8Z" fill="#FFF9B4"/>
<path d="M62.7 134.8C61.6 135.4 56.4 138.3 48.2 138.3C46.7 138.3 39.6 138.2 33.7 134.8C33.7 108.3 33.7 82 33.7 55.5C34.1 55.9 39.2 58.1 48.2 58.1C57.2 58.1 62.3 55.9 62.7 55.5C62.7 82 62.7 108.3 62.7 134.8Z" fill="#FFE89F"/>
<path d="M48.2 55.5V51.2" stroke="#262626" stroke-width="0.7263" stroke-miterlimit="10"/>
<path d="M96.5 115.6C95.4 116.2 90.2 119.1 82 119.1C80.5 119.1 73.4 119 67.5 115.6C67.5 89.1 67.5 62.5 67.5 36C69.4 35.2 74.7 33.4 82 33.4C84.3 33.4 90.4 33.6 96.5 36C96.5 62.5 96.5 89 96.5 115.6Z" fill="#FFF9B4"/>
<path d="M96.5 115.6C95.4 116.2 90.2 119.1 82 119.1C80.5 119.1 73.4 119 67.5 115.6C67.5 89.1 67.5 62.8 67.5 36.3C67.9 36.7 73 38.9 82 38.9C91 38.9 96.1 36.7 96.5 36.3C96.5 62.8 96.5 89.1 96.5 115.6Z" fill="#FFE89F"/>
<path d="M82 36.3V31.9" stroke="#262626" stroke-width="0.7263" stroke-miterlimit="10"/>
</svg>
