<svg width="97" height="107" viewBox="0 0 97 107" fill="none" xmlns="http://www.w3.org/2000/svg">
<path d="M29.3 91.5C28.2 92.1 23 95 14.8 95C13.3 95 6.19999 94.9 0.299988 91.5C0.299988 65 0.299988 38.4 0.299988 11.9C2.19999 11.1 7.49999 9.30002 14.8 9.30002C17.1 9.30002 23.2 9.49999 29.3 11.9C29.3 38.4 29.3 64.9 29.3 91.5Z" fill="#FFF9B4"/>
<path d="M29.3 91.5C28.2 92.1 23 95 14.8 95C13.3 95 6.19999 94.9 0.299988 91.5C0.299988 65 0.299988 38.7 0.299988 12.2C0.699988 12.6 5.79999 14.8 14.8 14.8C23.8 14.8 28.9 12.6 29.3 12.2C29.3 38.7 29.3 65 29.3 91.5Z" fill="#FFE89F"/>
<path d="M14.8 12.2V7.80002" stroke="#262626" stroke-width="0.7263" stroke-miterlimit="10"/>
<path d="M62.7 103.4C61.6 104 56.4 106.9 48.2 106.9C46.7 106.9 39.6 106.8 33.7 103.4C33.7 76.9 33.7 50.3 33.7 23.8C35.6 23 40.9 21.2 48.2 21.2C50.5 21.2 56.6 21.4 62.7 23.8C62.7 50.4 62.7 76.9 62.7 103.4Z" fill="#FFF9B4"/>
<path d="M62.7 103.4C61.6 104 56.4 106.9 48.2 106.9C46.7 106.9 39.6 106.8 33.7 103.4C33.7 76.9 33.7 50.6 33.7 24.1C34.1 24.5 39.2 26.7 48.2 26.7C57.2 26.7 62.3 24.5 62.7 24.1C62.7 50.6 62.7 76.9 62.7 103.4Z" fill="#FFE89F"/>
<path d="M48.2 24.1V19.8" stroke="#262626" stroke-width="0.7263" stroke-miterlimit="10"/>
<path d="M96.5 84.2C95.4 84.8 90.2 87.7 82 87.7C80.5 87.7 73.4 87.6 67.5 84.2C67.5 57.7 67.5 31.1 67.5 4.60001C69.4 3.80001 74.7 2 82 2C84.3 2 90.4 2.20001 96.5 4.60001C96.5 31.1 96.5 57.6 96.5 84.2Z" fill="#FFF9B4"/>
<path d="M96.5 84.2C95.4 84.8 90.2 87.7 82 87.7C80.5 87.7 73.4 87.6 67.5 84.2C67.5 57.7 67.5 31.4 67.5 4.89999C67.9 5.29999 73 7.5 82 7.5C91 7.5 96.1 5.29999 96.5 4.89999C96.5 31.4 96.5 57.7 96.5 84.2Z" fill="#FFE89F"/>
<path d="M82 4.89999V0.5" stroke="#262626" stroke-width="0.7263" stroke-miterlimit="10"/>
</svg>
