<svg width="97" height="108" viewBox="0 0 97 108" fill="none" xmlns="http://www.w3.org/2000/svg">
<path d="M29.3 91.9C28.2 92.5 23 95.4 14.8 95.4C13.3 95.4 6.19999 95.3 0.299988 91.9C0.299988 65.4 0.299988 38.8 0.299988 12.3C2.19999 11.5 7.49999 9.70001 14.8 9.70001C17.1 9.70001 23.2 9.89999 29.3 12.3C29.3 38.8 29.3 65.3 29.3 91.9Z" fill="#FFF9B4"/>
<path d="M29.3 91.9C28.2 92.5 23 95.4 14.8 95.4C13.3 95.4 6.19999 95.3 0.299988 91.9C0.299988 65.4 0.299988 39.1 0.299988 12.6C0.699988 13 5.79999 15.2 14.8 15.2C23.8 15.2 28.9 13 29.3 12.6C29.3 39.1 29.3 65.4 29.3 91.9Z" fill="#FFE89F"/>
<path d="M14.8 12.6V8.20001" stroke="#262626" stroke-width="0.7263" stroke-miterlimit="10"/>
<path d="M62.7 103.8C61.6 104.4 56.4 107.3 48.2 107.3C46.7 107.3 39.6 107.2 33.7 103.8C33.7 77.3 33.7 50.7 33.7 24.2C35.6 23.4 40.9 21.6 48.2 21.6C50.5 21.6 56.6 21.8 62.7 24.2C62.7 50.8 62.7 77.3 62.7 103.8Z" fill="#FFF9B4"/>
<path d="M62.7 103.8C61.6 104.4 56.4 107.3 48.2 107.3C46.7 107.3 39.6 107.2 33.7 103.8C33.7 77.3 33.7 51 33.7 24.5C34.1 24.9 39.2 27.1 48.2 27.1C57.2 27.1 62.3 24.9 62.7 24.5C62.7 51 62.7 77.3 62.7 103.8Z" fill="#FFE89F"/>
<path d="M48.2 24.5V20.2" stroke="#262626" stroke-width="0.7263" stroke-miterlimit="10"/>
<path d="M96.5 84.6C95.4 85.2 90.2 88.1 82 88.1C80.5 88.1 73.4 88 67.5 84.6C67.5 58.1 67.5 31.5 67.5 5C69.4 4.2 74.7 2.39999 82 2.39999C84.3 2.39999 90.4 2.6 96.5 5C96.5 31.5 96.5 58 96.5 84.6Z" fill="#FFF9B4"/>
<path d="M96.5 84.6C95.4 85.2 90.2 88.1 82 88.1C80.5 88.1 73.4 88 67.5 84.6C67.5 58.1 67.5 31.8 67.5 5.29999C67.9 5.69999 73 7.89999 82 7.89999C91 7.89999 96.1 5.69999 96.5 5.29999C96.5 31.8 96.5 58.1 96.5 84.6Z" fill="#FFE89F"/>
<path d="M82 5.29999V0.899994" stroke="#262626" stroke-width="0.7263" stroke-miterlimit="10"/>
</svg>
