<svg width="516" height="99" viewBox="0 0 516 99" fill="none" xmlns="http://www.w3.org/2000/svg">
<g filter="url(#filter0_d_33_57)">
<mask id="path-1-outside-1_33_57" maskUnits="userSpaceOnUse" x="3" y="-1" width="510" height="93" fill="black">
<rect fill="white" x="3" y="-1" width="510" height="93"/>
<path d="M31.9364 75.92H54.8164L54.8164 91H21.7964C16.0764 85.6267 11.743 78.8233 8.79636 70.59C5.8497 62.3567 4.37636 53.9067 4.37636 45.24C4.37636 36.4867 6.02303 28.08 9.31636 20.02C12.6097 11.96 17.5064 5.28666 24.0064 -9.11951e-06H54.8164V15.6H31.9364C29.5964 18.2867 27.5597 22.62 25.8264 28.6C24.1797 34.58 23.3564 40.3 23.3564 45.76C23.3564 51.22 24.1797 56.94 25.8264 62.92C27.5597 68.9 29.5964 73.2333 31.9364 75.92ZM116.254 91H87.9136C79.2469 82.94 74.9136 71.9333 74.9136 57.98C74.9136 50.96 75.8669 44.85 77.7736 39.65C79.7669 34.45 82.8869 29.4233 87.1335 24.57H117.554C122.06 29.77 125.137 34.84 126.784 39.78C128.43 44.6333 129.254 50.7 129.254 57.98C129.254 71.9333 124.92 82.94 116.254 91ZM97.1435 77.35H107.024C110.144 71.2833 111.704 64.3933 111.704 56.68C111.704 48.9667 110.1 42.8133 106.894 38.22H97.1435C94.0235 42.64 92.4635 48.9233 92.4635 57.07C92.4635 65.13 94.0235 71.89 97.1435 77.35ZM170.02 -9.11951e-06V91H152.86V-9.11951e-06H170.02ZM234.99 91H206.65C197.984 82.94 193.65 71.9333 193.65 57.98C193.65 50.96 194.604 44.85 196.51 39.65C198.504 34.45 201.624 29.4233 205.87 24.57H236.29C240.797 29.77 243.874 34.84 245.52 39.78C247.167 44.6333 247.99 50.7 247.99 57.98C247.99 71.9333 243.657 82.94 234.99 91ZM215.88 77.35H225.76C228.88 71.2833 230.44 64.3933 230.44 56.68C230.44 48.9667 228.837 42.8133 225.63 38.22H215.88C212.76 42.64 211.2 48.9233 211.2 57.07C211.2 65.13 212.76 71.89 215.88 77.35ZM271.726 91V24.57H284.076L287.326 31.59C290.793 26.91 295.17 24.57 300.456 24.57H305.526V41.99H289.016V91H271.726ZM361.083 49.4H360.563H361.083L367.973 20.93L373.563 -9.11951e-06L389.813 -9.11951e-06L395.663 91H378.633L376.163 41.34H375.513L366.153 78H355.493L346.133 41.34H345.483L343.013 91H325.983L331.833 -9.11951e-06H348.083L353.673 20.93L360.563 49.4H361.083ZM419.786 91V24.57H436.946V91H419.786ZM419.786 -9.11951e-06H436.946V17.55H419.786V-9.11951e-06ZM484.367 49.27L492.427 24.57H510.497L498.147 56.94L511.017 91H493.207L484.237 65.26H483.717L475.137 91H457.327L470.197 56.94L457.847 24.57H475.657L483.847 49.27H484.367Z"/>
</mask>
<path d="M31.9364 75.92H54.8164L54.8164 91H21.7964C16.0764 85.6267 11.743 78.8233 8.79636 70.59C5.8497 62.3567 4.37636 53.9067 4.37636 45.24C4.37636 36.4867 6.02303 28.08 9.31636 20.02C12.6097 11.96 17.5064 5.28666 24.0064 -9.11951e-06H54.8164V15.6H31.9364C29.5964 18.2867 27.5597 22.62 25.8264 28.6C24.1797 34.58 23.3564 40.3 23.3564 45.76C23.3564 51.22 24.1797 56.94 25.8264 62.92C27.5597 68.9 29.5964 73.2333 31.9364 75.92ZM116.254 91H87.9136C79.2469 82.94 74.9136 71.9333 74.9136 57.98C74.9136 50.96 75.8669 44.85 77.7736 39.65C79.7669 34.45 82.8869 29.4233 87.1335 24.57H117.554C122.06 29.77 125.137 34.84 126.784 39.78C128.43 44.6333 129.254 50.7 129.254 57.98C129.254 71.9333 124.92 82.94 116.254 91ZM97.1435 77.35H107.024C110.144 71.2833 111.704 64.3933 111.704 56.68C111.704 48.9667 110.1 42.8133 106.894 38.22H97.1435C94.0235 42.64 92.4635 48.9233 92.4635 57.07C92.4635 65.13 94.0235 71.89 97.1435 77.35ZM170.02 -9.11951e-06V91H152.86V-9.11951e-06H170.02ZM234.99 91H206.65C197.984 82.94 193.65 71.9333 193.65 57.98C193.65 50.96 194.604 44.85 196.51 39.65C198.504 34.45 201.624 29.4233 205.87 24.57H236.29C240.797 29.77 243.874 34.84 245.52 39.78C247.167 44.6333 247.99 50.7 247.99 57.98C247.99 71.9333 243.657 82.94 234.99 91ZM215.88 77.35H225.76C228.88 71.2833 230.44 64.3933 230.44 56.68C230.44 48.9667 228.837 42.8133 225.63 38.22H215.88C212.76 42.64 211.2 48.9233 211.2 57.07C211.2 65.13 212.76 71.89 215.88 77.35ZM271.726 91V24.57H284.076L287.326 31.59C290.793 26.91 295.17 24.57 300.456 24.57H305.526V41.99H289.016V91H271.726ZM361.083 49.4H360.563H361.083L367.973 20.93L373.563 -9.11951e-06L389.813 -9.11951e-06L395.663 91H378.633L376.163 41.34H375.513L366.153 78H355.493L346.133 41.34H345.483L343.013 91H325.983L331.833 -9.11951e-06H348.083L353.673 20.93L360.563 49.4H361.083ZM419.786 91V24.57H436.946V91H419.786ZM419.786 -9.11951e-06H436.946V17.55H419.786V-9.11951e-06ZM484.367 49.27L492.427 24.57H510.497L498.147 56.94L511.017 91H493.207L484.237 65.26H483.717L475.137 91H457.327L470.197 56.94L457.847 24.57H475.657L483.847 49.27H484.367Z" fill="url(#paint0_linear_33_57)"/>
<path d="M31.9364 75.92L31.1823 76.5768L31.4812 76.92H31.9364V75.92ZM54.8164 75.92H55.8164V74.92H54.8164V75.92ZM54.8164 91V92H55.8164V91H54.8164ZM21.7964 91L21.1117 91.7288L21.4003 92H21.7964V91ZM8.79636 70.59L9.73788 70.253L8.79636 70.59ZM9.31636 20.02L10.2421 20.3982L10.2421 20.3982L9.31636 20.02ZM24.0064 -9.11951e-06V-1.00001H23.651L23.3754 -0.775807L24.0064 -9.11951e-06ZM54.8164 -9.11951e-06H55.8164V-1.00001H54.8164V-9.11951e-06ZM54.8164 15.6V16.6H55.8164V15.6H54.8164ZM31.9364 15.6L31.9364 14.6H31.4812L31.1823 14.9432L31.9364 15.6ZM25.8264 28.6L24.8658 28.3216L24.8622 28.3345L25.8264 28.6ZM25.8264 62.92L24.8622 63.1855L24.8659 63.1984L25.8264 62.92ZM31.9364 76.92H54.8164V74.92H31.9364V76.92ZM53.8164 75.92L53.8164 91H55.8164L55.8164 75.92H53.8164ZM54.8164 90H21.7964V92H54.8164V90ZM22.481 90.2711C16.8891 85.0182 12.6374 78.3545 9.73788 70.253L7.85485 70.927C10.8487 79.2921 15.2636 86.2352 21.1117 91.7288L22.481 90.2711ZM9.73788 70.253C6.82956 62.1268 5.37636 53.7908 5.37636 45.24H3.37636C3.37636 54.0226 4.86984 62.5865 7.85485 70.927L9.73788 70.253ZM5.37636 45.24C5.37636 36.6157 6.99807 28.3375 10.2421 20.3982L8.39066 19.6418C5.048 27.8225 3.37636 36.3577 3.37636 45.24H5.37636ZM10.2421 20.3982C13.4746 12.487 18.2725 5.9525 24.6373 0.775788L23.3754 -0.775807C16.7402 4.62081 11.7448 11.4329 8.39066 19.6418L10.2421 20.3982ZM24.0064 0.999991H54.8164V-1.00001H24.0064V0.999991ZM53.8164 -9.11951e-06V15.6H55.8164V-9.11951e-06H53.8164ZM54.8164 14.6H31.9364L31.9364 16.6H54.8164V14.6ZM31.1823 14.9432C28.7004 17.7928 26.6138 22.2913 24.8659 28.3216L26.7868 28.8784C28.5056 22.9487 30.4924 18.7805 32.6904 16.2568L31.1823 14.9432ZM24.8622 28.3345C23.1949 34.3895 22.3564 40.1991 22.3564 45.76H24.3564C24.3564 40.4009 25.1645 34.7705 26.7905 28.8655L24.8622 28.3345ZM22.3564 45.76C22.3564 51.3209 23.1949 57.1305 24.8622 63.1855L26.7905 62.6545C25.1645 56.7495 24.3564 51.1191 24.3564 45.76H22.3564ZM24.8659 63.1984C26.6138 69.2287 28.7004 73.7272 31.1823 76.5768L32.6904 75.2632C30.4924 72.7395 28.5056 68.5713 26.7868 62.6416L24.8659 63.1984ZM116.254 91V92H116.647L116.935 91.7323L116.254 91ZM87.9136 91L87.2325 91.7323L87.5204 92H87.9136V91ZM77.7736 39.65L76.8398 39.2921L76.8372 39.2989L76.8347 39.3057L77.7736 39.65ZM87.1335 24.57V23.57H86.6798L86.381 23.9115L87.1335 24.57ZM117.554 24.57L118.309 23.9151L118.01 23.57H117.554V24.57ZM126.784 39.78L125.835 40.0962L125.837 40.1013L126.784 39.78ZM97.1435 77.35L96.2753 77.8461L96.5632 78.35H97.1435V77.35ZM107.024 77.35V78.35H107.634L107.913 77.8073L107.024 77.35ZM106.894 38.22L107.714 37.6476L107.415 37.22H106.894V38.22ZM97.1435 38.22V37.22H96.6254L96.3266 37.6433L97.1435 38.22ZM116.254 90H87.9136V92H116.254V90ZM88.5946 90.2677C80.1678 82.4309 75.9136 71.7097 75.9136 57.98H73.9136C73.9136 72.157 78.3259 83.4491 87.2325 91.7323L88.5946 90.2677ZM75.9136 57.98C75.9136 51.0474 76.8554 45.0589 78.7124 39.9942L76.8347 39.3057C74.8784 44.6411 73.9136 50.8726 73.9136 57.98H75.9136ZM78.7073 40.0079C80.6523 34.9339 83.705 30.0069 87.8861 25.2285L86.381 23.9115C82.0687 28.8398 78.8814 33.9661 76.8398 39.2921L78.7073 40.0079ZM87.1335 25.57H117.554V23.57H87.1335V25.57ZM116.798 25.2249C121.245 30.356 124.241 35.3137 125.835 40.0962L127.732 39.4638C126.033 34.3663 122.876 29.184 118.309 23.9151L116.798 25.2249ZM125.837 40.1013C127.437 44.8177 128.254 50.7672 128.254 57.98H130.254C130.254 50.6328 129.424 44.449 127.731 39.4587L125.837 40.1013ZM128.254 57.98C128.254 71.7097 123.999 82.4309 115.573 90.2677L116.935 91.7323C125.841 83.4491 130.254 72.157 130.254 57.98H128.254ZM97.1435 78.35H107.024V76.35H97.1435V78.35ZM107.913 77.8073C111.115 71.5816 112.704 64.5314 112.704 56.68H110.704C110.704 64.2552 109.172 70.985 106.134 76.8926L107.913 77.8073ZM112.704 56.68C112.704 48.8371 111.074 42.4613 107.714 37.6476L106.074 38.7924C109.126 43.1653 110.704 49.0963 110.704 56.68H112.704ZM106.894 37.22H97.1435V39.22H106.894V37.22ZM96.3266 37.6433C93.0411 42.2977 91.4635 48.8153 91.4635 57.07H93.4635C93.4635 49.0314 95.006 42.9823 97.9605 38.7967L96.3266 37.6433ZM91.4635 57.07C91.4635 65.256 93.0479 72.1982 96.2753 77.8461L98.0118 76.8539C94.9992 71.5818 93.4635 65.004 93.4635 57.07H91.4635ZM170.02 -9.11951e-06H171.02V-1.00001H170.02V-9.11951e-06ZM170.02 91V92H171.02V91H170.02ZM152.86 91H151.86V92H152.86V91ZM152.86 -9.11951e-06V-1.00001H151.86V-9.11951e-06H152.86ZM169.02 -9.11951e-06V91H171.02V-9.11951e-06H169.02ZM170.02 90H152.86V92H170.02V90ZM153.86 91V-9.11951e-06H151.86V91H153.86ZM152.86 0.999991H170.02V-1.00001H152.86V0.999991ZM234.99 91V92H235.383L235.671 91.7323L234.99 91ZM206.65 91L205.969 91.7323L206.257 92H206.65V91ZM196.51 39.65L195.577 39.2921L195.574 39.2989L195.571 39.3057L196.51 39.65ZM205.87 24.57V23.57H205.416L205.118 23.9115L205.87 24.57ZM236.29 24.57L237.046 23.9151L236.747 23.57H236.29V24.57ZM245.52 39.78L244.572 40.0962L244.573 40.1013L245.52 39.78ZM215.88 77.35L215.012 77.8461L215.3 78.35H215.88V77.35ZM225.76 77.35V78.35H226.37L226.65 77.8073L225.76 77.35ZM225.63 38.22L226.45 37.6476L226.152 37.22H225.63V38.22ZM215.88 38.22V37.22H215.362L215.063 37.6433L215.88 38.22ZM234.99 90H206.65V92H234.99V90ZM207.331 90.2677C198.905 82.4309 194.65 71.7097 194.65 57.98H192.65C192.65 72.157 197.063 83.4491 205.969 91.7323L207.331 90.2677ZM194.65 57.98C194.65 51.0474 195.592 45.0589 197.449 39.9942L195.571 39.3057C193.615 44.6411 192.65 50.8726 192.65 57.98H194.65ZM197.444 40.0079C199.389 34.9339 202.442 30.0069 206.623 25.2285L205.118 23.9115C200.805 28.8398 197.618 33.9661 195.577 39.2921L197.444 40.0079ZM205.87 25.57H236.29V23.57H205.87V25.57ZM235.535 25.2249C239.981 30.356 242.977 35.3137 244.572 40.0962L246.469 39.4638C244.77 34.3663 241.612 29.184 237.046 23.9151L235.535 25.2249ZM244.573 40.1013C246.173 44.8177 246.99 50.7672 246.99 57.98H248.99C248.99 50.6328 248.16 44.449 246.467 39.4587L244.573 40.1013ZM246.99 57.98C246.99 71.7097 242.736 82.4309 234.309 90.2677L235.671 91.7323C244.578 83.4491 248.99 72.157 248.99 57.98H246.99ZM215.88 78.35H225.76V76.35H215.88V78.35ZM226.65 77.8073C229.851 71.5816 231.44 64.5314 231.44 56.68H229.44C229.44 64.2552 227.909 70.985 224.871 76.8926L226.65 77.8073ZM231.44 56.68C231.44 48.8371 229.811 42.4613 226.45 37.6476L224.81 38.7924C227.863 43.1653 229.44 49.0963 229.44 56.68H231.44ZM225.63 37.22H215.88V39.22H225.63V37.22ZM215.063 37.6433C211.778 42.2977 210.2 48.8153 210.2 57.07H212.2C212.2 49.0314 213.743 42.9823 216.697 38.7967L215.063 37.6433ZM210.2 57.07C210.2 65.256 211.785 72.1982 215.012 77.8461L216.748 76.8539C213.736 71.5818 212.2 65.004 212.2 57.07H210.2ZM271.726 91H270.726V92H271.726V91ZM271.726 24.57V23.57H270.726V24.57H271.726ZM284.076 24.57L284.984 24.1499L284.715 23.57H284.076V24.57ZM287.326 31.59L286.419 32.0101L287.127 33.5393L288.13 32.1852L287.326 31.59ZM305.526 24.57H306.526V23.57H305.526V24.57ZM305.526 41.99V42.99H306.526V41.99H305.526ZM289.016 41.99V40.99H288.016V41.99H289.016ZM289.016 91V92H290.016V91H289.016ZM272.726 91V24.57H270.726V91H272.726ZM271.726 25.57H284.076V23.57H271.726V25.57ZM283.169 24.9901L286.419 32.0101L288.234 31.1699L284.984 24.1499L283.169 24.9901ZM288.13 32.1852C291.43 27.7299 295.522 25.57 300.456 25.57V23.57C294.817 23.57 290.156 26.0901 286.523 30.9948L288.13 32.1852ZM300.456 25.57H305.526V23.57H300.456V25.57ZM304.526 24.57V41.99H306.526V24.57H304.526ZM305.526 40.99H289.016V42.99H305.526V40.99ZM288.016 41.99V91H290.016V41.99H288.016ZM289.016 90H271.726V92H289.016V90ZM361.083 49.4V50.4H361.87L362.055 49.6352L361.083 49.4ZM367.973 20.93L367.007 20.672L367.004 20.6833L367.001 20.6948L367.973 20.93ZM373.563 -9.11951e-06V-1.00001H372.795L372.597 -0.258045L373.563 -9.11951e-06ZM389.813 -9.11951e-06L390.811 -0.0641623L390.751 -1.00001H389.813V-9.11951e-06ZM395.663 91V92H396.73L396.661 90.9358L395.663 91ZM378.633 91L377.634 91.0497L377.682 92H378.633V91ZM376.163 41.34L377.162 41.2903L377.115 40.34H376.163V41.34ZM375.513 41.34V40.34H374.736L374.544 41.0926L375.513 41.34ZM366.153 78V79H366.93L367.122 78.2474L366.153 78ZM355.493 78L354.524 78.2474L354.716 79H355.493V78ZM346.133 41.34L347.102 41.0926L346.91 40.34H346.133V41.34ZM345.483 41.34V40.34H344.532L344.484 41.2903L345.483 41.34ZM343.013 91V92H343.965L344.012 91.0497L343.013 91ZM325.983 91L324.985 90.9358L324.917 92H325.983V91ZM331.833 -9.11951e-06V-1.00001H330.895L330.835 -0.0641624L331.833 -9.11951e-06ZM348.083 -9.11951e-06L349.049 -0.258045L348.851 -1.00001H348.083V-9.11951e-06ZM353.673 20.93L354.645 20.6948L354.642 20.6833L354.639 20.672L353.673 20.93ZM360.563 49.4L359.591 49.6352L359.776 50.4H360.563V49.4ZM361.083 48.4H360.563V50.4H361.083V48.4ZM360.563 50.4H361.083V48.4H360.563V50.4ZM362.055 49.6352L368.945 21.1652L367.001 20.6948L360.111 49.1648L362.055 49.6352ZM368.939 21.188L374.529 0.258027L372.597 -0.258045L367.007 20.672L368.939 21.188ZM373.563 0.999991L389.813 0.999991V-1.00001L373.563 -1.00001V0.999991ZM388.815 0.0641441L394.665 91.0641L396.661 90.9358L390.811 -0.0641623L388.815 0.0641441ZM395.663 90H378.633V92H395.663V90ZM379.632 90.9503L377.162 41.2903L375.164 41.3897L377.634 91.0497L379.632 90.9503ZM376.163 40.34H375.513V42.34H376.163V40.34ZM374.544 41.0926L365.184 77.7526L367.122 78.2474L376.482 41.5874L374.544 41.0926ZM366.153 77H355.493V79H366.153V77ZM356.462 77.7526L347.102 41.0926L345.164 41.5874L354.524 78.2474L356.462 77.7526ZM346.133 40.34H345.483V42.34H346.133V40.34ZM344.484 41.2903L342.014 90.9503L344.012 91.0497L346.482 41.3897L344.484 41.2903ZM343.013 90H325.983V92H343.013V90ZM326.981 91.0641L332.831 0.0641442L330.835 -0.0641624L324.985 90.9358L326.981 91.0641ZM331.833 0.999991H348.083V-1.00001H331.833V0.999991ZM347.117 0.258027L352.707 21.188L354.639 20.672L349.049 -0.258045L347.117 0.258027ZM352.701 21.1652L359.591 49.6352L361.535 49.1648L354.645 20.6948L352.701 21.1652ZM360.563 50.4H361.083V48.4H360.563V50.4ZM419.786 91H418.786V92H419.786V91ZM419.786 24.57V23.57H418.786V24.57H419.786ZM436.946 24.57H437.946V23.57H436.946V24.57ZM436.946 91V92H437.946V91H436.946ZM419.786 -9.11951e-06V-1.00001H418.786V-9.11951e-06H419.786ZM436.946 -9.11951e-06H437.946V-1.00001H436.946V-9.11951e-06ZM436.946 17.55V18.55H437.946V17.55H436.946ZM419.786 17.55H418.786V18.55H419.786V17.55ZM420.786 91V24.57H418.786V91H420.786ZM419.786 25.57H436.946V23.57H419.786V25.57ZM435.946 24.57V91H437.946V24.57H435.946ZM436.946 90H419.786V92H436.946V90ZM419.786 0.999991H436.946V-1.00001H419.786V0.999991ZM435.946 -9.11951e-06V17.55H437.946V-9.11951e-06H435.946ZM436.946 16.55H419.786V18.55H436.946V16.55ZM420.786 17.55V-9.11951e-06H418.786V17.55H420.786ZM484.367 49.27V50.27H485.092L485.317 49.5802L484.367 49.27ZM492.427 24.57V23.57H491.701L491.476 24.2598L492.427 24.57ZM510.497 24.57L511.431 24.9265L511.949 23.57H510.497V24.57ZM498.147 56.94L497.212 56.5835L497.077 56.9383L497.211 57.2935L498.147 56.94ZM511.017 91V92L512.464 92L511.952 90.6465L511.017 91ZM493.207 91L492.262 91.3291L492.496 92H493.207V91ZM484.237 65.26L485.181 64.9309L484.947 64.26H484.237V65.26ZM483.717 65.26V64.26H482.996L482.768 64.9438L483.717 65.26ZM475.137 91V92H475.858L476.085 91.3162L475.137 91ZM457.327 91L456.391 90.6465L455.88 92H457.327V91ZM470.197 56.94L471.132 57.2935L471.266 56.9383L471.131 56.5835L470.197 56.94ZM457.847 24.57V23.57H456.395L456.912 24.9265L457.847 24.57ZM475.657 24.57L476.606 24.2553L476.379 23.57H475.657V24.57ZM483.847 49.27L482.898 49.5847L483.125 50.27H483.847V49.27ZM485.317 49.5802L493.377 24.8802L491.476 24.2598L483.416 48.9598L485.317 49.5802ZM492.427 25.57H510.497V23.57H492.427V25.57ZM509.562 24.2135L497.212 56.5835L499.081 57.2965L511.431 24.9265L509.562 24.2135ZM497.211 57.2935L510.081 91.3535L511.952 90.6465L499.082 56.5865L497.211 57.2935ZM511.017 90H493.207V92H511.017V90ZM494.151 90.6709L485.181 64.9309L483.292 65.5891L492.262 91.3291L494.151 90.6709ZM484.237 64.26H483.717V66.26H484.237V64.26ZM482.768 64.9438L474.188 90.6838L476.085 91.3162L484.665 65.5762L482.768 64.9438ZM475.137 90H457.327V92H475.137V90ZM458.262 91.3535L471.132 57.2935L469.261 56.5865L456.391 90.6465L458.262 91.3535ZM471.131 56.5835L458.781 24.2135L456.912 24.9265L469.262 57.2965L471.131 56.5835ZM457.847 25.57H475.657V23.57H457.847V25.57ZM474.708 24.8847L482.898 49.5847L484.796 48.9553L476.606 24.2553L474.708 24.8847ZM483.847 50.27H484.367V48.27H483.847V50.27Z" fill="black" mask="url(#path-1-outside-1_33_57)"/>
</g>
<defs>
<filter id="filter0_d_33_57" x="0.376343" y="-1.14441e-05" width="514.64" height="99" filterUnits="userSpaceOnUse" color-interpolation-filters="sRGB">
<feFlood flood-opacity="0" result="BackgroundImageFix"/>
<feColorMatrix in="SourceAlpha" type="matrix" values="0 0 0 0 0 0 0 0 0 0 0 0 0 0 0 0 0 0 127 0" result="hardAlpha"/>
<feOffset dy="4"/>
<feGaussianBlur stdDeviation="2"/>
<feComposite in2="hardAlpha" operator="out"/>
<feColorMatrix type="matrix" values="0 0 0 0 0 0 0 0 0 0 0 0 0 0 0 0 0 0 0.25 0"/>
<feBlend mode="normal" in2="BackgroundImageFix" result="effect1_dropShadow_33_57"/>
<feBlend mode="normal" in="SourceGraphic" in2="effect1_dropShadow_33_57" result="shape"/>
</filter>
<linearGradient id="paint0_linear_33_57" x1="256" y1="-49" x2="256" y2="133" gradientUnits="userSpaceOnUse">
<stop stop-color="#944B6A"/>
<stop offset="1" stop-color="#FBBE31"/>
</linearGradient>
</defs>
</svg>
