<svg width="684" height="106" viewBox="0 0 684 106" fill="none" xmlns="http://www.w3.org/2000/svg">
<g filter="url(#filter0_d_33_57)">
<mask id="path-1-outside-1_33_57" maskUnits="userSpaceOnUse" x="3" y="-1" width="678" height="100" fill="black">
<rect fill="white" x="3" y="-1" width="678" height="100"/>
<path d="M42.617 97.664C17.529 97.664 4.98499 81.92 4.98499 50.432C4.98499 35.4987 8.01432 24.1493 14.073 16.384C20.217 8.61866 29.9877 4.73599 43.385 4.73599C54.137 4.73599 63.6943 7.72266 72.057 13.696C72.057 18.4747 71.4597 24.5333 70.265 31.872C69.0703 32.128 66.5957 32.256 62.841 32.256L59.001 16.384C52.9423 15.2747 48.0783 14.72 44.409 14.72C37.6677 14.72 31.737 15.6587 26.617 17.536L24.185 18.432C23.673 19.2853 23.033 20.5653 22.265 22.272C21.497 23.8933 20.473 27.3493 19.193 32.64C17.9983 37.9307 17.401 43.3493 17.401 48.896C17.401 60.928 19.3637 70.4853 23.289 77.568C27.2997 84.6507 33.657 88.192 42.361 88.192C48.5903 88.192 53.2837 87.552 56.441 86.272C57.2943 85.8453 58.5317 85.2053 60.153 84.352L62.841 68.992L70.265 69.376C71.545 78.1653 72.185 85.2907 72.185 90.752C70.393 92.1173 66.5103 93.6107 60.537 95.232C54.649 96.8533 48.6757 97.664 42.617 97.664ZM125.026 89.856C132.194 89.856 137.015 87.6373 139.49 83.2C142.05 78.6773 143.33 72.2773 143.33 64C143.33 50.8587 140.429 42.624 134.626 39.296C132.237 37.9307 128.866 37.248 124.514 37.248C120.247 37.248 116.194 38.144 112.354 39.936C108.941 46.5067 107.234 54.144 107.234 62.848C107.234 71.2107 108.343 77.6533 110.562 82.176C113.122 87.296 117.943 89.856 125.026 89.856ZM95.458 64C95.458 53.1627 97.9327 44.7147 102.882 38.656C107.831 32.512 115.469 29.44 125.794 29.44C136.119 29.44 143.586 32.256 148.194 37.888C152.802 43.4347 155.106 51.6693 155.106 62.592C155.106 73.5147 152.631 82.0907 147.682 88.32C142.818 94.5493 135.394 97.664 125.41 97.664C115.426 97.664 107.917 94.7627 102.882 88.96C97.9327 83.1573 95.458 74.8373 95.458 64ZM194.413 0.895993C197.058 0.895993 198.936 0.981325 200.045 1.15199C200.045 4.13866 199.49 7.55199 198.381 11.392C197.613 61.7387 197.229 87.04 197.229 87.296L207.981 88.32C207.981 90.7093 207.256 93.2693 205.805 96H176.365L175.981 91.52C179.906 90.1547 183.746 89.1307 187.501 88.448L186.221 11.008C181.528 10.752 177.773 10.24 174.957 9.47199L175.469 2.81599C179.821 1.53599 186.136 0.895993 194.413 0.895993ZM257.251 89.856C264.419 89.856 269.24 87.6373 271.715 83.2C274.275 78.6773 275.555 72.2773 275.555 64C275.555 50.8587 272.654 42.624 266.851 39.296C264.462 37.9307 261.091 37.248 256.739 37.248C252.472 37.248 248.419 38.144 244.579 39.936C241.166 46.5067 239.459 54.144 239.459 62.848C239.459 71.2107 240.568 77.6533 242.787 82.176C245.347 87.296 250.168 89.856 257.251 89.856ZM227.683 64C227.683 53.1627 230.158 44.7147 235.107 38.656C240.056 32.512 247.694 29.44 258.019 29.44C268.344 29.44 275.811 32.256 280.419 37.888C285.027 43.4347 287.331 51.6693 287.331 62.592C287.331 73.5147 284.856 82.0907 279.907 88.32C275.043 94.5493 267.619 97.664 257.635 97.664C247.651 97.664 240.142 94.7627 235.107 88.96C230.158 83.1573 227.683 74.8373 227.683 64ZM348.654 40.192C348.227 39.7653 347.289 39.552 345.838 39.552C344.387 39.552 342.211 40.064 339.31 41.088C336.494 42.112 333.934 43.3067 331.63 44.672C331.118 63.616 330.777 77.824 330.606 87.296L341.358 88.32C341.358 90.7093 340.633 93.2693 339.182 96H309.742L309.358 91.52C313.283 90.1547 317.123 89.1307 320.878 88.448C320.366 66.7733 319.939 50.7307 319.598 40.32C314.905 40.064 311.15 39.552 308.334 38.784L308.846 32.128C313.369 30.848 320.067 30.208 328.942 30.208C330.307 32.3413 331.161 35.072 331.502 38.4C341.315 32.4267 347.161 29.44 349.038 29.44C350.915 29.44 353.091 29.824 355.566 30.592C358.041 31.2747 359.875 32.0427 361.07 32.896C361.07 41.4293 360.259 48.384 358.638 53.76C357.443 54.1013 356.035 54.272 354.414 54.272C352.878 54.272 351.811 54.2293 351.214 54.144L348.654 40.192ZM518.508 15.232L531.948 87.296L543.596 88.448C543.596 90.752 542.871 93.2693 541.42 96L511.98 96L511.596 91.52C514.156 90.4107 517.313 89.5147 521.068 88.832L507.372 17.024L490.476 89.856H477.804L454.508 16.768L444.14 87.296L455.02 88.32C455.02 90.7093 454.295 93.2693 452.844 96H423.404L423.02 91.52C426.775 90.1547 430.529 89.1307 434.284 88.448L445.548 14.208C440.343 13.44 436.204 12.544 433.132 11.52L433.644 6.39999H463.468L483.82 76.544H484.332L500.204 6.39999H528.748C530.199 9.13066 530.924 11.776 530.924 14.336C525.377 14.9333 521.239 15.232 518.508 15.232ZM585.923 18.816C583.704 19.328 581.528 19.584 579.395 19.584C577.347 19.584 575.299 19.456 573.251 19.2C572.739 16.8107 572.483 14.4213 572.483 12.032C572.483 9.55732 572.568 7.72266 572.739 6.52799C574.616 6.10132 576.579 5.88799 578.627 5.88799C580.76 5.88799 583.022 5.97332 585.411 6.14399C585.923 8.36266 586.179 10.5387 586.179 12.672C586.179 14.72 586.094 16.768 585.923 18.816ZM562.627 32.256C569.88 30.976 575.512 30.336 579.523 30.336C583.534 30.336 586.094 30.4213 587.203 30.592C587.203 32.64 586.947 34.9013 586.435 37.376C585.923 39.8507 585.624 41.0453 585.539 40.96L584.387 87.296L595.139 88.32C595.139 90.7093 594.414 93.2693 592.963 96H563.523L563.139 91.52C567.064 90.1547 570.904 89.1307 574.659 88.448C574.147 67.1147 573.72 51.1147 573.379 40.448C568.43 40.448 564.675 39.936 562.115 38.912L562.627 32.256ZM656.914 88.704L645.394 70.784L627.09 96H612.498C611.901 94.464 611.602 92.7573 611.602 90.88C614.93 89.1733 618.514 87.9787 622.354 87.296L640.018 62.336L625.298 39.68L611.986 38.656C611.986 36.2667 612.711 33.7067 614.162 30.976H643.602L643.986 35.456C641.682 37.0773 639.506 38.144 637.458 38.656L646.802 53.76L662.674 30.976H678.418C678.93 31.6587 679.186 32.4693 679.186 33.408L678.802 36.096C675.559 37.2907 672.061 38.0587 668.306 38.4L651.41 62.08L669.202 87.296L679.442 88.32C679.442 90.7093 678.717 93.2693 677.266 96H647.826L647.442 91.52C650.258 90.3253 653.415 89.3867 656.914 88.704Z"/>
</mask>
<path d="M42.617 97.664C17.529 97.664 4.98499 81.92 4.98499 50.432C4.98499 35.4987 8.01432 24.1493 14.073 16.384C20.217 8.61866 29.9877 4.73599 43.385 4.73599C54.137 4.73599 63.6943 7.72266 72.057 13.696C72.057 18.4747 71.4597 24.5333 70.265 31.872C69.0703 32.128 66.5957 32.256 62.841 32.256L59.001 16.384C52.9423 15.2747 48.0783 14.72 44.409 14.72C37.6677 14.72 31.737 15.6587 26.617 17.536L24.185 18.432C23.673 19.2853 23.033 20.5653 22.265 22.272C21.497 23.8933 20.473 27.3493 19.193 32.64C17.9983 37.9307 17.401 43.3493 17.401 48.896C17.401 60.928 19.3637 70.4853 23.289 77.568C27.2997 84.6507 33.657 88.192 42.361 88.192C48.5903 88.192 53.2837 87.552 56.441 86.272C57.2943 85.8453 58.5317 85.2053 60.153 84.352L62.841 68.992L70.265 69.376C71.545 78.1653 72.185 85.2907 72.185 90.752C70.393 92.1173 66.5103 93.6107 60.537 95.232C54.649 96.8533 48.6757 97.664 42.617 97.664ZM125.026 89.856C132.194 89.856 137.015 87.6373 139.49 83.2C142.05 78.6773 143.33 72.2773 143.33 64C143.33 50.8587 140.429 42.624 134.626 39.296C132.237 37.9307 128.866 37.248 124.514 37.248C120.247 37.248 116.194 38.144 112.354 39.936C108.941 46.5067 107.234 54.144 107.234 62.848C107.234 71.2107 108.343 77.6533 110.562 82.176C113.122 87.296 117.943 89.856 125.026 89.856ZM95.458 64C95.458 53.1627 97.9327 44.7147 102.882 38.656C107.831 32.512 115.469 29.44 125.794 29.44C136.119 29.44 143.586 32.256 148.194 37.888C152.802 43.4347 155.106 51.6693 155.106 62.592C155.106 73.5147 152.631 82.0907 147.682 88.32C142.818 94.5493 135.394 97.664 125.41 97.664C115.426 97.664 107.917 94.7627 102.882 88.96C97.9327 83.1573 95.458 74.8373 95.458 64ZM194.413 0.895993C197.058 0.895993 198.936 0.981325 200.045 1.15199C200.045 4.13866 199.49 7.55199 198.381 11.392C197.613 61.7387 197.229 87.04 197.229 87.296L207.981 88.32C207.981 90.7093 207.256 93.2693 205.805 96H176.365L175.981 91.52C179.906 90.1547 183.746 89.1307 187.501 88.448L186.221 11.008C181.528 10.752 177.773 10.24 174.957 9.47199L175.469 2.81599C179.821 1.53599 186.136 0.895993 194.413 0.895993ZM257.251 89.856C264.419 89.856 269.24 87.6373 271.715 83.2C274.275 78.6773 275.555 72.2773 275.555 64C275.555 50.8587 272.654 42.624 266.851 39.296C264.462 37.9307 261.091 37.248 256.739 37.248C252.472 37.248 248.419 38.144 244.579 39.936C241.166 46.5067 239.459 54.144 239.459 62.848C239.459 71.2107 240.568 77.6533 242.787 82.176C245.347 87.296 250.168 89.856 257.251 89.856ZM227.683 64C227.683 53.1627 230.158 44.7147 235.107 38.656C240.056 32.512 247.694 29.44 258.019 29.44C268.344 29.44 275.811 32.256 280.419 37.888C285.027 43.4347 287.331 51.6693 287.331 62.592C287.331 73.5147 284.856 82.0907 279.907 88.32C275.043 94.5493 267.619 97.664 257.635 97.664C247.651 97.664 240.142 94.7627 235.107 88.96C230.158 83.1573 227.683 74.8373 227.683 64ZM348.654 40.192C348.227 39.7653 347.289 39.552 345.838 39.552C344.387 39.552 342.211 40.064 339.31 41.088C336.494 42.112 333.934 43.3067 331.63 44.672C331.118 63.616 330.777 77.824 330.606 87.296L341.358 88.32C341.358 90.7093 340.633 93.2693 339.182 96H309.742L309.358 91.52C313.283 90.1547 317.123 89.1307 320.878 88.448C320.366 66.7733 319.939 50.7307 319.598 40.32C314.905 40.064 311.15 39.552 308.334 38.784L308.846 32.128C313.369 30.848 320.067 30.208 328.942 30.208C330.307 32.3413 331.161 35.072 331.502 38.4C341.315 32.4267 347.161 29.44 349.038 29.44C350.915 29.44 353.091 29.824 355.566 30.592C358.041 31.2747 359.875 32.0427 361.07 32.896C361.07 41.4293 360.259 48.384 358.638 53.76C357.443 54.1013 356.035 54.272 354.414 54.272C352.878 54.272 351.811 54.2293 351.214 54.144L348.654 40.192ZM518.508 15.232L531.948 87.296L543.596 88.448C543.596 90.752 542.871 93.2693 541.42 96L511.98 96L511.596 91.52C514.156 90.4107 517.313 89.5147 521.068 88.832L507.372 17.024L490.476 89.856H477.804L454.508 16.768L444.14 87.296L455.02 88.32C455.02 90.7093 454.295 93.2693 452.844 96H423.404L423.02 91.52C426.775 90.1547 430.529 89.1307 434.284 88.448L445.548 14.208C440.343 13.44 436.204 12.544 433.132 11.52L433.644 6.39999H463.468L483.82 76.544H484.332L500.204 6.39999H528.748C530.199 9.13066 530.924 11.776 530.924 14.336C525.377 14.9333 521.239 15.232 518.508 15.232ZM585.923 18.816C583.704 19.328 581.528 19.584 579.395 19.584C577.347 19.584 575.299 19.456 573.251 19.2C572.739 16.8107 572.483 14.4213 572.483 12.032C572.483 9.55732 572.568 7.72266 572.739 6.52799C574.616 6.10132 576.579 5.88799 578.627 5.88799C580.76 5.88799 583.022 5.97332 585.411 6.14399C585.923 8.36266 586.179 10.5387 586.179 12.672C586.179 14.72 586.094 16.768 585.923 18.816ZM562.627 32.256C569.88 30.976 575.512 30.336 579.523 30.336C583.534 30.336 586.094 30.4213 587.203 30.592C587.203 32.64 586.947 34.9013 586.435 37.376C585.923 39.8507 585.624 41.0453 585.539 40.96L584.387 87.296L595.139 88.32C595.139 90.7093 594.414 93.2693 592.963 96H563.523L563.139 91.52C567.064 90.1547 570.904 89.1307 574.659 88.448C574.147 67.1147 573.72 51.1147 573.379 40.448C568.43 40.448 564.675 39.936 562.115 38.912L562.627 32.256ZM656.914 88.704L645.394 70.784L627.09 96H612.498C611.901 94.464 611.602 92.7573 611.602 90.88C614.93 89.1733 618.514 87.9787 622.354 87.296L640.018 62.336L625.298 39.68L611.986 38.656C611.986 36.2667 612.711 33.7067 614.162 30.976H643.602L643.986 35.456C641.682 37.0773 639.506 38.144 637.458 38.656L646.802 53.76L662.674 30.976H678.418C678.93 31.6587 679.186 32.4693 679.186 33.408L678.802 36.096C675.559 37.2907 672.061 38.0587 668.306 38.4L651.41 62.08L669.202 87.296L679.442 88.32C679.442 90.7093 678.717 93.2693 677.266 96H647.826L647.442 91.52C650.258 90.3253 653.415 89.3867 656.914 88.704Z" fill="#D9D9D9"/>
<path d="M14.073 16.384L13.2887 15.7635L13.2846 15.7689L14.073 16.384ZM72.057 13.696H73.057V13.1814L72.6382 12.8823L72.057 13.696ZM70.265 31.872L70.4745 32.8498L71.1423 32.7067L71.252 32.0327L70.265 31.872ZM62.841 32.256L61.869 32.4911L62.0541 33.256H62.841V32.256ZM59.001 16.384L59.9729 16.1488L59.8202 15.5174L59.1811 15.4003L59.001 16.384ZM26.617 17.536L26.2727 16.5971L26.2713 16.5976L26.617 17.536ZM24.185 18.432L23.8393 17.4937L23.5087 17.6154L23.3275 17.9175L24.185 18.432ZM22.265 22.272L23.1687 22.7001L23.1729 22.6913L23.1769 22.6824L22.265 22.272ZM19.193 32.64L18.221 32.4048L18.2192 32.4123L18.2175 32.4197L19.193 32.64ZM23.289 77.568L22.4143 78.0528L22.4188 78.0607L23.289 77.568ZM56.441 86.272L56.8167 87.1987L56.8531 87.184L56.8882 87.1664L56.441 86.272ZM60.153 84.352L60.6187 85.2369L61.0534 85.0082L61.138 84.5244L60.153 84.352ZM62.841 68.992L62.8926 67.9933L62.0086 67.9476L61.856 68.8196L62.841 68.992ZM70.265 69.376L71.2545 69.2319L71.1363 68.4197L70.3166 68.3773L70.265 69.376ZM72.185 90.752L72.791 91.5474L73.185 91.2473V90.752H72.185ZM60.537 95.232L60.275 94.2669L60.2715 94.2679L60.537 95.232ZM42.617 96.664C30.2951 96.664 21.2114 92.809 15.1751 85.2328C9.10427 77.6133 5.98499 66.0699 5.98499 50.432H3.98499C3.98499 66.2821 7.1377 78.3546 13.6109 86.4791C20.1186 94.647 29.8509 98.664 42.617 98.664V96.664ZM5.98499 50.432C5.98499 35.6121 8.99465 24.5185 14.8614 16.9991L13.2846 15.7689C7.03399 23.7802 3.98499 35.3852 3.98499 50.432H5.98499ZM14.8572 17.0045C20.75 9.55667 30.178 5.73599 43.385 5.73599V3.73599C29.7973 3.73599 19.684 7.68065 13.2888 15.7635L14.8572 17.0045ZM43.385 5.73599C53.9388 5.73599 63.2908 8.66336 71.4757 14.5097L72.6382 12.8823C64.0978 6.78196 54.3352 3.73599 43.385 3.73599V5.73599ZM71.057 13.696C71.057 18.3999 70.4682 24.4 69.278 31.7113L71.252 32.0327C72.4511 24.6666 73.057 18.5494 73.057 13.696H71.057ZM70.0555 30.8942C68.9823 31.1242 66.6158 31.256 62.841 31.256V33.256C66.5755 33.256 69.1583 33.1318 70.4745 32.8498L70.0555 30.8942ZM63.8129 32.0208L59.9729 16.1488L58.029 16.6191L61.869 32.4911L63.8129 32.0208ZM59.1811 15.4003C53.0971 14.2864 48.1656 13.72 44.409 13.72V15.72C47.991 15.72 52.7875 16.2629 58.8209 17.3676L59.1811 15.4003ZM44.409 13.72C37.5769 13.72 31.5256 14.6711 26.2727 16.5971L26.9612 18.4749C31.9484 16.6462 37.7584 15.72 44.409 15.72V13.72ZM26.2713 16.5976L23.8393 17.4937L24.5307 19.3703L26.9627 18.4743L26.2713 16.5976ZM23.3275 17.9175C22.7849 18.8219 22.1258 20.1445 21.3531 21.8616L23.1769 22.6824C23.9402 20.9862 24.5611 19.7488 25.0425 18.9465L23.3275 17.9175ZM21.3612 21.8439C20.5417 23.574 19.4967 27.1322 18.221 32.4048L20.1649 32.8751C21.4493 27.5665 22.4522 24.2127 23.1687 22.7001L21.3612 21.8439ZM18.2175 32.4197C17.0062 37.7843 16.401 43.2769 16.401 48.896H18.401C18.401 43.4217 18.9905 38.077 20.1684 32.8603L18.2175 32.4197ZM16.401 48.896C16.401 61.0213 18.3764 70.7669 22.4143 78.0527L24.1636 77.0832C20.3509 70.2038 18.401 60.8347 18.401 48.896H16.401ZM22.4188 78.0607C26.6216 85.4827 33.3274 89.192 42.361 89.192V87.192C33.9866 87.192 27.9777 83.8186 24.1592 77.0752L22.4188 78.0607ZM42.361 89.192C48.6303 89.192 53.4787 88.552 56.8167 87.1987L56.0653 85.3453C53.0886 86.552 48.5503 87.192 42.361 87.192V89.192ZM56.8882 87.1664C57.751 86.735 58.9957 86.0911 60.6187 85.2369L59.6872 83.4671C58.0676 84.3195 56.8376 84.9557 55.9938 85.3776L56.8882 87.1664ZM61.138 84.5244L63.826 69.1644L61.856 68.8196L59.168 84.1796L61.138 84.5244ZM62.7893 69.9907L70.2133 70.3747L70.3166 68.3773L62.8926 67.9933L62.7893 69.9907ZM69.2754 69.5201C70.5522 78.2873 71.185 85.3592 71.185 90.752H73.185C73.185 85.2221 72.5378 78.0434 71.2545 69.2319L69.2754 69.5201ZM71.5789 89.9566C70.7971 90.5523 69.4842 91.2264 67.57 91.9626C65.6717 92.6928 63.243 93.4613 60.275 94.2669L60.7989 96.1971C63.8043 95.3813 66.3036 94.5926 68.288 93.8293C70.2565 93.0722 71.7809 92.317 72.791 91.5474L71.5789 89.9566ZM60.2715 94.2679C54.4693 95.8656 48.5852 96.664 42.617 96.664V98.664C48.7661 98.664 54.8287 97.8411 60.8025 96.1961L60.2715 94.2679ZM139.49 83.2L138.62 82.7074L138.617 82.7129L139.49 83.2ZM134.626 39.296L135.123 38.4285L135.122 38.4277L134.626 39.296ZM112.354 39.936L111.931 39.0298L111.623 39.1735L111.467 39.475L112.354 39.936ZM110.562 82.176L109.664 82.6164L109.668 82.6232L110.562 82.176ZM102.882 38.656L103.656 39.2887L103.661 39.2833L102.882 38.656ZM148.194 37.888L147.42 38.5212L147.425 38.527L148.194 37.888ZM147.682 88.32L146.899 87.6979L146.894 87.7046L147.682 88.32ZM102.882 88.96L102.121 89.609L102.127 89.6153L102.882 88.96ZM125.026 90.856C132.389 90.856 137.643 88.5641 140.363 83.6871L138.617 82.7129C136.387 86.7105 131.998 88.856 125.026 88.856V90.856ZM140.36 83.6926C143.041 78.9558 144.33 72.3576 144.33 64H142.33C142.33 72.197 141.059 78.3989 138.62 82.7074L140.36 83.6926ZM144.33 64C144.33 50.8318 141.445 42.0539 135.123 38.4285L134.128 40.1634C139.413 43.1941 142.33 50.8855 142.33 64H144.33ZM135.122 38.4277C132.518 36.9398 128.948 36.248 124.514 36.248V38.248C128.784 38.248 131.955 38.9215 134.13 40.1642L135.122 38.4277ZM124.514 36.248C120.102 36.248 115.904 37.1756 111.931 39.0298L112.777 40.8422C116.484 39.1124 120.392 38.248 124.514 38.248V36.248ZM111.467 39.475C107.967 46.2111 106.234 54.0117 106.234 62.848H108.234C108.234 54.2763 109.914 46.8022 113.241 40.397L111.467 39.475ZM106.234 62.848C106.234 71.2749 107.348 77.8948 109.664 82.6164L111.46 81.7356C109.339 77.4119 108.234 71.1464 108.234 62.848H106.234ZM109.668 82.6232C112.44 88.1688 117.673 90.856 125.026 90.856V88.856C118.214 88.856 113.804 86.4232 111.456 81.7288L109.668 82.6232ZM96.458 64C96.458 53.3053 98.9003 45.1108 103.656 39.2886L102.108 38.0233C96.965 44.3185 94.458 53.02 94.458 64H96.458ZM103.661 39.2833C108.365 33.4436 115.671 30.44 125.794 30.44V28.44C115.267 28.44 107.298 31.5804 102.103 38.0287L103.661 39.2833ZM125.794 30.44C135.951 30.44 143.072 33.2067 147.42 38.5212L148.968 37.2548C144.1 31.3053 136.288 28.44 125.794 28.44V30.44ZM147.425 38.527C151.824 43.822 154.106 51.7875 154.106 62.592H156.106C156.106 51.5511 153.78 43.0474 148.963 37.249L147.425 38.527ZM154.106 62.592C154.106 73.3721 151.664 81.7012 146.899 87.6979L148.465 88.9421C153.599 82.4801 156.106 73.6572 156.106 62.592H154.106ZM146.894 87.7046C142.268 93.6288 135.175 96.664 125.41 96.664V98.664C135.613 98.664 143.368 95.4699 148.47 88.9354L146.894 87.7046ZM125.41 96.664C115.623 96.664 108.429 93.827 103.637 88.3046L102.127 89.6153C107.405 95.6983 115.229 98.664 125.41 98.664V96.664ZM103.643 88.311C98.9017 82.7525 96.458 74.6982 96.458 64H94.458C94.458 74.9764 96.9636 83.5621 102.121 89.6089L103.643 88.311ZM200.045 1.15199H201.045V0.294069L200.197 0.163618L200.045 1.15199ZM198.381 11.392L197.42 11.1145L197.383 11.243L197.381 11.3767L198.381 11.392ZM197.229 87.296H196.229V88.2053L197.134 88.2915L197.229 87.296ZM207.981 88.32H208.981V87.4107L208.076 87.3245L207.981 88.32ZM205.805 96V97H206.406L206.688 96.4691L205.805 96ZM176.365 96L175.369 96.0854L175.447 97H176.365V96ZM175.981 91.52L175.652 90.5755L174.918 90.8309L174.985 91.6054L175.981 91.52ZM187.501 88.448L187.68 89.4319L188.515 89.28L188.501 88.4315L187.501 88.448ZM186.221 11.008L187.221 10.9915L187.205 10.0602L186.275 10.0095L186.221 11.008ZM174.957 9.47199L173.96 9.39529L173.897 10.2193L174.694 10.4368L174.957 9.47199ZM175.469 2.81599L175.187 1.85663L174.525 2.05132L174.472 2.73929L175.469 2.81599ZM194.413 1.89599C197.057 1.89599 198.866 1.98245 199.893 2.14036L200.197 0.163618C199.005 -0.0198001 197.06 -0.104007 194.413 -0.104007V1.89599ZM199.045 1.15199C199.045 4.01918 198.512 7.33626 197.42 11.1145L199.342 11.6695C200.469 7.76773 201.045 4.25813 201.045 1.15199H199.045ZM197.381 11.3767C196.613 61.7134 196.229 87.0298 196.229 87.296H198.229C198.229 87.2965 198.229 87.2734 198.23 87.2118C198.231 87.1554 198.232 87.0744 198.233 86.9687C198.236 86.7573 198.241 86.448 198.247 86.0407C198.259 85.2262 198.277 84.0203 198.301 82.423C198.349 79.2284 198.421 74.4685 198.517 68.1432C198.709 55.4925 198.997 36.5806 199.381 11.4072L197.381 11.3767ZM197.134 88.2915L207.886 89.3155L208.076 87.3245L197.324 86.3005L197.134 88.2915ZM206.981 88.32C206.981 90.5047 206.318 92.9034 204.922 95.5308L206.688 96.4691C208.194 93.6352 208.981 90.914 208.981 88.32H206.981ZM205.805 95H176.365V97H205.805V95ZM177.361 95.9146L176.977 91.4346L174.985 91.6054L175.369 96.0854L177.361 95.9146ZM176.31 92.4645C180.19 91.1146 183.98 90.1045 187.68 89.4319L187.322 87.4641C183.512 88.1568 179.622 89.1947 175.652 90.5755L176.31 92.4645ZM188.501 88.4315L187.221 10.9915L185.221 11.0245L186.501 88.4645L188.501 88.4315ZM186.275 10.0095C181.616 9.7553 177.94 9.2489 175.22 8.50723L174.694 10.4368C177.606 11.2311 181.44 11.7487 186.167 12.0065L186.275 10.0095ZM175.954 9.54869L176.466 2.89269L174.472 2.73929L173.96 9.39529L175.954 9.54869ZM175.751 3.77536C179.965 2.53595 186.166 1.89599 194.413 1.89599V-0.104007C186.105 -0.104007 179.677 0.536039 175.187 1.85663L175.751 3.77536ZM271.715 83.2L270.845 82.7074L270.842 82.7129L271.715 83.2ZM266.851 39.296L267.348 38.4285L267.347 38.4277L266.851 39.296ZM244.579 39.936L244.156 39.0298L243.848 39.1735L243.692 39.475L244.579 39.936ZM242.787 82.176L241.889 82.6164L241.893 82.6232L242.787 82.176ZM235.107 38.656L235.881 39.2887L235.886 39.2833L235.107 38.656ZM280.419 37.888L279.645 38.5212L279.65 38.527L280.419 37.888ZM279.907 88.32L279.124 87.6979L279.119 87.7046L279.907 88.32ZM235.107 88.96L234.346 89.609L234.352 89.6153L235.107 88.96ZM257.251 90.856C264.614 90.856 269.868 88.5641 272.588 83.6871L270.842 82.7129C268.612 86.7105 264.223 88.856 257.251 88.856V90.856ZM272.585 83.6926C275.266 78.9558 276.555 72.3576 276.555 64H274.555C274.555 72.197 273.284 78.3989 270.845 82.7074L272.585 83.6926ZM276.555 64C276.555 50.8318 273.67 42.0539 267.348 38.4285L266.353 40.1634C271.638 43.1941 274.555 50.8855 274.555 64H276.555ZM267.347 38.4277C264.743 36.9398 261.173 36.248 256.739 36.248V38.248C261.009 38.248 264.18 38.9215 266.355 40.1642L267.347 38.4277ZM256.739 36.248C252.327 36.248 248.129 37.1756 244.156 39.0298L245.002 40.8422C248.709 39.1124 252.617 38.248 256.739 38.248V36.248ZM243.692 39.475C240.192 46.2111 238.459 54.0117 238.459 62.848H240.459C240.459 54.2763 242.139 46.8022 245.466 40.397L243.692 39.475ZM238.459 62.848C238.459 71.2749 239.573 77.8948 241.889 82.6164L243.685 81.7356C241.564 77.4119 240.459 71.1464 240.459 62.848H238.459ZM241.893 82.6232C244.665 88.1688 249.897 90.856 257.251 90.856V88.856C250.439 88.856 246.029 86.4232 243.681 81.7288L241.893 82.6232ZM228.683 64C228.683 53.3053 231.125 45.1108 235.881 39.2886L234.333 38.0233C229.19 44.3185 226.683 53.02 226.683 64H228.683ZM235.886 39.2833C240.59 33.4436 247.896 30.44 258.019 30.44V28.44C247.492 28.44 239.523 31.5804 234.328 38.0287L235.886 39.2833ZM258.019 30.44C268.175 30.44 275.297 33.2067 279.645 38.5212L281.193 37.2548C276.325 31.3053 268.513 28.44 258.019 28.44V30.44ZM279.65 38.527C284.049 43.822 286.331 51.7875 286.331 62.592H288.331C288.331 51.5511 286.005 43.0474 281.188 37.249L279.65 38.527ZM286.331 62.592C286.331 73.3721 283.888 81.7012 279.124 87.6979L280.69 88.9421C285.824 82.4801 288.331 73.6572 288.331 62.592H286.331ZM279.119 87.7046C274.493 93.6288 267.4 96.664 257.635 96.664V98.664C267.838 98.664 275.593 95.4699 280.695 88.9354L279.119 87.7046ZM257.635 96.664C247.848 96.664 240.654 93.827 235.862 88.3046L234.352 89.6153C239.63 95.6983 247.454 98.664 257.635 98.664V96.664ZM235.868 88.311C231.127 82.7525 228.683 74.6982 228.683 64H226.683C226.683 74.9764 229.189 83.5621 234.346 89.6089L235.868 88.311ZM348.654 40.192L349.638 40.0115L349.581 39.7051L349.361 39.4849L348.654 40.192ZM339.31 41.088L338.977 40.145L338.968 40.1482L339.31 41.088ZM331.63 44.672L331.12 43.8117L330.645 44.0931L330.63 44.645L331.63 44.672ZM330.606 87.296L329.606 87.278L329.589 88.2037L330.511 88.2915L330.606 87.296ZM341.358 88.32H342.358V87.4107L341.453 87.3245L341.358 88.32ZM339.182 96V97H339.783L340.065 96.4691L339.182 96ZM309.742 96L308.746 96.0854L308.824 97H309.742V96ZM309.358 91.52L309.029 90.5755L308.295 90.8309L308.362 91.6054L309.358 91.52ZM320.878 88.448L321.057 89.4319L321.898 89.2789L321.878 88.4244L320.878 88.448ZM319.598 40.32L320.597 40.2872L320.567 39.3714L319.652 39.3215L319.598 40.32ZM308.334 38.784L307.337 38.7073L307.274 39.5313L308.071 39.7488L308.334 38.784ZM308.846 32.128L308.574 31.1658L307.902 31.3558L307.849 32.0513L308.846 32.128ZM328.942 30.208L329.784 29.6689L329.489 29.208H328.942V30.208ZM331.502 38.4L330.507 38.502L330.669 40.0778L332.022 39.2542L331.502 38.4ZM355.566 30.592L355.27 31.5471L355.285 31.5518L355.3 31.556L355.566 30.592ZM361.07 32.896H362.07V32.3814L361.651 32.0823L361.07 32.896ZM358.638 53.76L358.913 54.7215L359.438 54.5715L359.595 54.0487L358.638 53.76ZM351.214 54.144L350.23 54.3245L350.36 55.0322L351.073 55.1339L351.214 54.144ZM349.361 39.4849C348.957 39.0808 348.405 38.8627 347.852 38.7369C347.283 38.6076 346.604 38.552 345.838 38.552V40.552C346.522 40.552 347.038 40.603 347.408 40.6871C347.793 40.7746 347.924 40.8765 347.947 40.8991L349.361 39.4849ZM345.838 38.552C344.206 38.552 341.893 39.1159 338.977 40.145L339.643 42.031C342.53 41.0121 344.569 40.552 345.838 40.552V38.552ZM338.968 40.1482C336.101 41.191 333.483 42.4112 331.12 43.8117L332.14 45.5323C334.384 44.2021 336.887 43.033 339.652 42.0278L338.968 40.1482ZM330.63 44.645C330.118 63.5896 329.777 77.8013 329.606 87.278L331.606 87.314C331.776 77.8467 332.118 63.6423 332.63 44.699L330.63 44.645ZM330.511 88.2915L341.263 89.3155L341.453 87.3245L330.701 86.3005L330.511 88.2915ZM340.358 88.32C340.358 90.5047 339.695 92.9034 338.299 95.5308L340.065 96.4691C341.571 93.6352 342.358 90.914 342.358 88.32H340.358ZM339.182 95H309.742V97H339.182V95ZM310.738 95.9146L310.354 91.4346L308.362 91.6054L308.746 96.0854L310.738 95.9146ZM309.687 92.4645C313.567 91.1146 317.357 90.1045 321.057 89.4319L320.699 87.4641C316.889 88.1568 312.999 89.1947 309.029 90.5755L309.687 92.4645ZM321.878 88.4244C321.366 66.7492 320.939 50.7027 320.597 40.2872L318.599 40.3528C318.94 50.7586 319.366 66.7975 319.878 88.4716L321.878 88.4244ZM319.652 39.3215C314.993 39.0673 311.317 38.5609 308.597 37.8192L308.071 39.7488C310.983 40.5431 314.817 41.0607 319.544 41.3185L319.652 39.3215ZM309.331 38.8607L309.843 32.2047L307.849 32.0513L307.337 38.7073L309.331 38.8607ZM309.118 33.0902C313.506 31.8485 320.093 31.208 328.942 31.208V29.208C320.041 29.208 313.232 29.8475 308.574 31.1658L309.118 33.0902ZM328.1 30.747C329.358 32.7133 330.177 35.2817 330.507 38.502L332.497 38.298C332.144 34.8623 331.257 31.9693 329.784 29.6689L328.1 30.747ZM332.022 39.2542C336.921 36.2724 340.811 34.0472 343.701 32.5705C345.147 31.8316 346.326 31.2886 347.247 30.9327C348.202 30.5631 348.769 30.44 349.038 30.44V28.44C348.368 28.44 347.5 28.6902 346.525 29.0673C345.515 29.4581 344.267 30.0351 342.791 30.7895C339.836 32.2994 335.897 34.5542 330.982 37.5458L332.022 39.2542ZM349.038 30.44C350.785 30.44 352.857 30.7984 355.27 31.5471L355.862 29.6369C353.325 28.8496 351.046 28.44 349.038 28.44V30.44ZM355.3 31.556C357.733 32.2272 359.435 32.9574 360.489 33.7097L361.651 32.0823C360.315 31.1279 358.348 30.3221 355.832 29.628L355.3 31.556ZM360.07 32.896C360.07 41.3767 359.263 48.2241 357.681 53.4713L359.595 54.0487C361.256 48.5439 362.07 41.4819 362.07 32.896H360.07ZM358.363 52.7985C357.28 53.1079 355.969 53.272 354.414 53.272V55.272C356.102 55.272 357.606 55.0948 358.913 54.7215L358.363 52.7985ZM354.414 53.272C352.875 53.272 351.874 53.2281 351.355 53.154L351.073 55.1339C351.749 55.2305 352.881 55.272 354.414 55.272V53.272ZM352.198 53.9635L349.638 40.0115L347.67 40.3725L350.23 54.3245L352.198 53.9635ZM518.508 15.232V14.232H517.304L517.525 15.4153L518.508 15.232ZM531.948 87.296L530.965 87.4793L531.103 88.2173L531.85 88.2911L531.948 87.296ZM543.596 88.448H544.596V87.542L543.694 87.4528L543.596 88.448ZM541.42 96V97H542.021L542.303 96.4691L541.42 96ZM511.98 96L510.984 96.0854L511.062 97H511.98V96ZM511.596 91.52L511.198 90.6024L510.538 90.8885L510.6 91.6054L511.596 91.52ZM521.068 88.832L521.247 89.8159L522.239 89.6354L522.05 88.6446L521.068 88.832ZM507.372 17.024L508.354 16.8366L506.398 16.798L507.372 17.024ZM490.476 89.856V90.856H491.271L491.45 90.082L490.476 89.856ZM477.804 89.856L476.851 90.1597L477.073 90.856H477.804V89.856ZM454.508 16.768L455.461 16.4643L453.519 16.6226L454.508 16.768ZM444.14 87.296L443.151 87.1505L442.997 88.1929L444.046 88.2916L444.14 87.296ZM455.02 88.32H456.02V87.4097L455.114 87.3244L455.02 88.32ZM452.844 96V97H453.445L453.727 96.4691L452.844 96ZM423.404 96L422.408 96.0854L422.486 97H423.404V96ZM423.02 91.52L422.678 90.5802L421.958 90.842L422.024 91.6054L423.02 91.52ZM434.284 88.448L434.463 89.4319L435.166 89.3041L435.273 88.598L434.284 88.448ZM445.548 14.208L446.537 14.358L446.687 13.3653L445.694 13.2187L445.548 14.208ZM433.132 11.52L432.137 11.4205L432.057 12.2159L432.816 12.4687L433.132 11.52ZM433.644 6.39999V5.39999H432.739L432.649 6.30049L433.644 6.39999ZM463.468 6.39999L464.428 6.12134L464.219 5.39999H463.468V6.39999ZM483.82 76.544L482.86 76.8226L483.069 77.544H483.82V76.544ZM484.332 76.544V77.544H485.131L485.307 76.7647L484.332 76.544ZM500.204 6.39999V5.39999H499.405L499.229 6.17929L500.204 6.39999ZM528.748 6.39999L529.631 5.93084L529.349 5.39999H528.748V6.39999ZM530.924 14.336L531.031 15.3302L531.924 15.2341V14.336H530.924ZM517.525 15.4153L530.965 87.4793L532.931 87.1127L519.491 15.0487L517.525 15.4153ZM531.85 88.2911L543.498 89.4431L543.694 87.4528L532.046 86.3008L531.85 88.2911ZM542.596 88.448C542.596 90.5421 541.936 92.8973 540.537 95.5308L542.303 96.4691C543.805 93.6414 544.596 90.9619 544.596 88.448H542.596ZM541.42 95L511.98 95V97L541.42 97V95ZM512.976 95.9146L512.592 91.4346L510.6 91.6054L510.984 96.0854L512.976 95.9146ZM511.994 92.4375C514.463 91.3674 517.542 90.4895 521.247 89.8159L520.889 87.8481C517.085 88.5398 513.849 89.4539 511.198 90.6024L511.994 92.4375ZM522.05 88.6446L508.354 16.8366L506.39 17.2113L520.086 89.0193L522.05 88.6446ZM506.398 16.798L489.502 89.63L491.45 90.082L508.346 17.25L506.398 16.798ZM490.476 88.856H477.804V90.856H490.476V88.856ZM478.757 89.5523L455.461 16.4643L453.555 17.0717L476.851 90.1597L478.757 89.5523ZM453.519 16.6226L443.151 87.1505L445.129 87.4414L455.497 16.9134L453.519 16.6226ZM444.046 88.2916L454.926 89.3156L455.114 87.3244L444.234 86.3004L444.046 88.2916ZM454.02 88.32C454.02 90.5047 453.357 92.9034 451.961 95.5308L453.727 96.4691C455.233 93.6352 456.02 90.914 456.02 88.32H454.02ZM452.844 95H423.404V97H452.844V95ZM424.4 95.9146L424.016 91.4346L422.024 91.6054L422.408 96.0854L424.4 95.9146ZM423.362 92.4598C427.066 91.1128 430.766 90.104 434.463 89.4319L434.105 87.4641C430.292 88.1573 426.483 89.1965 422.678 90.5802L423.362 92.4598ZM435.273 88.598L446.537 14.358L444.559 14.058L433.295 88.298L435.273 88.598ZM445.694 13.2187C440.515 12.4547 436.441 11.569 433.448 10.5713L432.816 12.4687C435.967 13.519 440.17 14.4253 445.402 15.1973L445.694 13.2187ZM434.127 11.6195L434.639 6.49949L432.649 6.30049L432.137 11.4205L434.127 11.6195ZM433.644 7.39999H463.468V5.39999H433.644V7.39999ZM462.508 6.67864L482.86 76.8226L484.78 76.2653L464.428 6.12134L462.508 6.67864ZM483.82 77.544H484.332V75.544H483.82V77.544ZM485.307 76.7647L501.179 6.62069L499.229 6.17929L483.357 76.3233L485.307 76.7647ZM500.204 7.39999H528.748V5.39999H500.204V7.39999ZM527.865 6.86915C529.255 9.48513 529.924 11.9703 529.924 14.336H531.924C531.924 11.5817 531.143 8.77618 529.631 5.93084L527.865 6.86915ZM530.817 13.3417C525.277 13.9383 521.182 14.232 518.508 14.232V16.232C521.295 16.232 525.477 15.9283 531.031 15.3302L530.817 13.3417ZM585.923 18.816L586.148 19.7904L586.859 19.6263L586.919 18.899L585.923 18.816ZM573.251 19.2L572.273 19.4095L572.422 20.1042L573.127 20.1923L573.251 19.2ZM572.739 6.52799L572.517 5.55286L571.846 5.70536L571.749 6.38657L572.739 6.52799ZM585.411 6.14399L586.385 5.91913L586.219 5.19918L585.482 5.14654L585.411 6.14399ZM562.627 32.256L562.453 31.2712L561.689 31.406L561.63 32.1793L562.627 32.256ZM587.203 30.592H588.203V29.7341L587.355 29.6036L587.203 30.592ZM586.435 37.376L585.456 37.1734L585.456 37.1734L586.435 37.376ZM585.539 40.96L586.246 40.2529L584.597 38.6041L584.539 40.9351L585.539 40.96ZM584.387 87.296L583.387 87.2711L583.364 88.2031L584.292 88.2915L584.387 87.296ZM595.139 88.32H596.139V87.4107L595.234 87.3245L595.139 88.32ZM592.963 96V97H593.564L593.846 96.4691L592.963 96ZM563.523 96L562.527 96.0854L562.605 97H563.523V96ZM563.139 91.52L562.81 90.5755L562.076 90.8309L562.143 91.6054L563.139 91.52ZM574.659 88.448L574.838 89.4319L575.679 89.2789L575.659 88.424L574.659 88.448ZM573.379 40.448L574.378 40.416L574.347 39.448H573.379V40.448ZM562.115 38.912L561.118 38.8353L561.062 39.5677L561.744 39.8405L562.115 38.912ZM585.698 17.8416C583.548 18.3377 581.448 18.584 579.395 18.584V20.584C581.609 20.584 583.86 20.3183 586.148 19.7904L585.698 17.8416ZM579.395 18.584C577.389 18.584 575.382 18.4586 573.375 18.2077L573.127 20.1923C575.216 20.4534 577.305 20.584 579.395 20.584V18.584ZM574.229 18.9905C573.731 16.6684 573.483 14.3493 573.483 12.032H571.483C571.483 14.4933 571.747 16.9529 572.273 19.4095L574.229 18.9905ZM573.483 12.032C573.483 9.56631 573.569 7.79043 573.729 6.66941L571.749 6.38657C571.568 7.65488 571.483 9.54834 571.483 12.032H573.483ZM572.961 7.50312C574.761 7.094 576.649 6.88799 578.627 6.88799V4.88799C576.509 4.88799 574.472 5.10865 572.517 5.55286L572.961 7.50312ZM578.627 6.88799C580.734 6.88799 582.971 6.97227 585.34 7.14145L585.482 5.14654C583.072 4.97437 580.787 4.88799 578.627 4.88799V6.88799ZM584.437 6.36885C584.933 8.5187 585.179 10.6192 585.179 12.672H587.179C587.179 10.4581 586.913 8.20661 586.385 5.91913L584.437 6.36885ZM585.179 12.672C585.179 14.6922 585.095 16.7125 584.926 18.7329L586.919 18.899C587.092 16.8235 587.179 14.7478 587.179 12.672H585.179ZM562.801 33.2408C570.036 31.964 575.6 31.336 579.523 31.336V29.336C575.425 29.336 569.725 29.988 562.453 31.2712L562.801 33.2408ZM579.523 31.336C583.556 31.336 586.033 31.4237 587.051 31.5804L587.355 29.6036C586.154 29.4189 583.511 29.336 579.523 29.336V31.336ZM586.203 30.592C586.203 32.5583 585.957 34.7506 585.456 37.1734L587.414 37.5786C587.937 35.0521 588.203 32.7217 588.203 30.592H586.203ZM585.456 37.1734C585.2 38.4082 585.001 39.3089 584.857 39.8855C584.783 40.1794 584.731 40.3623 584.698 40.4569C584.677 40.5181 584.683 40.4862 584.72 40.4233C584.725 40.4147 584.812 40.2563 585.003 40.1289C585.115 40.0543 585.323 39.9507 585.602 39.9657C585.896 39.9816 586.115 40.1216 586.246 40.2529L584.832 41.6671C584.968 41.8037 585.193 41.9465 585.494 41.9628C585.778 41.9782 585.993 41.8724 586.112 41.793C586.317 41.6564 586.419 41.4786 586.442 41.4407C586.514 41.3192 586.561 41.1886 586.588 41.1111C586.651 40.9284 586.721 40.6739 586.797 40.3705C586.952 39.7524 587.158 38.8185 587.414 37.5786L585.456 37.1734ZM584.539 40.9351L583.387 87.2711L585.387 87.3208L586.539 40.9848L584.539 40.9351ZM584.292 88.2915L595.044 89.3155L595.234 87.3245L584.482 86.3005L584.292 88.2915ZM594.139 88.32C594.139 90.5047 593.476 92.9034 592.08 95.5308L593.846 96.4691C595.352 93.6352 596.139 90.914 596.139 88.32H594.139ZM592.963 95H563.523V97H592.963V95ZM564.519 95.9146L564.135 91.4346L562.143 91.6054L562.527 96.0854L564.519 95.9146ZM563.467 92.4645C567.348 91.1146 571.138 90.1045 574.838 89.4319L574.48 87.4641C570.67 88.1568 566.78 89.1947 562.81 90.5755L563.467 92.4645ZM575.659 88.424C575.147 67.0901 574.72 51.0868 574.378 40.416L572.379 40.48C572.721 51.1425 573.147 67.1392 573.659 88.472L575.659 88.424ZM573.379 39.448C568.472 39.448 564.869 38.9366 562.486 37.9835L561.744 39.8405C564.481 40.9354 568.387 41.448 573.379 41.448V39.448ZM563.112 38.9887L563.624 32.3327L561.63 32.1793L561.118 38.8353L563.112 38.9887ZM656.914 88.704L657.105 89.6855L658.552 89.4032L657.755 88.1632L656.914 88.704ZM645.394 70.784L646.235 70.2432L645.444 69.0127L644.585 70.1966L645.394 70.784ZM627.09 96V97H627.6L627.899 96.5874L627.09 96ZM612.498 96L611.566 96.3624L611.814 97H612.498V96ZM611.602 90.88L611.146 89.9902L610.602 90.269V90.88H611.602ZM622.354 87.296L622.529 88.2806L622.933 88.2087L623.17 87.8737L622.354 87.296ZM640.018 62.336L640.834 62.9137L641.226 62.36L640.857 61.7912L640.018 62.336ZM625.298 39.68L626.137 39.1352L625.867 38.7208L625.375 38.6829L625.298 39.68ZM611.986 38.656H610.986V39.582L611.909 39.653L611.986 38.656ZM614.162 30.976V29.976H613.561L613.279 30.5068L614.162 30.976ZM643.602 30.976L644.598 30.8906L644.52 29.976H643.602V30.976ZM643.986 35.456L644.561 36.2738L645.031 35.9431L644.982 35.3706L643.986 35.456ZM637.458 38.656L637.215 37.6859L635.887 38.0179L636.608 39.1821L637.458 38.656ZM646.802 53.76L645.952 54.2861L646.752 55.5806L647.623 54.3316L646.802 53.76ZM662.674 30.976V29.976H662.152L661.853 30.4044L662.674 30.976ZM678.418 30.976L679.218 30.376L678.918 29.976H678.418V30.976ZM679.186 33.408L680.176 33.5494L680.186 33.4791V33.408H679.186ZM678.802 36.096L679.148 37.0343L679.708 36.8281L679.792 36.2374L678.802 36.096ZM668.306 38.4L668.215 37.4041L667.758 37.4456L667.492 37.8192L668.306 38.4ZM651.41 62.08L650.596 61.4992L650.184 62.0768L650.593 62.6565L651.41 62.08ZM669.202 87.296L668.385 87.8725L668.648 88.2456L669.102 88.291L669.202 87.296ZM679.442 88.32H680.442V87.415L679.541 87.325L679.442 88.32ZM677.266 96V97H677.867L678.149 96.4691L677.266 96ZM647.826 96L646.83 96.0854L646.908 97H647.826V96ZM647.442 91.52L647.051 90.5994L646.384 90.8827L646.446 91.6054L647.442 91.52ZM657.755 88.1632L646.235 70.2432L644.553 71.3247L656.073 89.2447L657.755 88.1632ZM644.585 70.1966L626.281 95.4126L627.899 96.5874L646.203 71.3714L644.585 70.1966ZM627.09 95H612.498V97H627.09V95ZM613.43 95.6375C612.883 94.232 612.602 92.6504 612.602 90.88H610.602C610.602 92.8642 610.918 94.696 611.566 96.3624L613.43 95.6375ZM612.058 91.7698C615.294 90.1105 618.783 88.9466 622.529 88.2806L622.179 86.3114C618.245 87.0108 614.566 88.2362 611.146 89.9902L612.058 91.7698ZM623.17 87.8737L640.834 62.9137L639.202 61.7583L621.538 86.7183L623.17 87.8737ZM640.857 61.7912L626.137 39.1352L624.459 40.2248L639.179 62.8808L640.857 61.7912ZM625.375 38.6829L612.063 37.6589L611.909 39.653L625.221 40.677L625.375 38.6829ZM612.986 38.656C612.986 36.4713 613.649 34.0726 615.045 31.4451L613.279 30.5068C611.773 33.3408 610.986 36.062 610.986 38.656H612.986ZM614.162 31.976H643.602V29.976H614.162V31.976ZM642.606 31.0614L642.99 35.5414L644.982 35.3706L644.598 30.8906L642.606 31.0614ZM643.41 34.6382C641.175 36.211 639.111 37.2119 637.215 37.6859L637.701 39.6261C639.901 39.0761 642.189 37.9437 644.561 36.2738L643.41 34.6382ZM636.608 39.1821L645.952 54.2861L647.652 53.2339L638.308 38.1299L636.608 39.1821ZM647.623 54.3316L663.495 31.5476L661.853 30.4044L645.981 53.1884L647.623 54.3316ZM662.674 31.976H678.418V29.976H662.674V31.976ZM677.618 31.576C677.987 32.0681 678.186 32.6629 678.186 33.408H680.186C680.186 32.2758 679.873 31.2492 679.218 30.376L677.618 31.576ZM678.196 33.2666L677.812 35.9546L679.792 36.2374L680.176 33.5494L678.196 33.2666ZM678.456 35.1576C675.303 36.3194 671.891 37.07 668.215 37.4041L668.397 39.3959C672.231 39.0473 675.816 38.2619 679.148 37.0343L678.456 35.1576ZM667.492 37.8192L650.596 61.4992L652.224 62.6608L669.12 38.9808L667.492 37.8192ZM650.593 62.6565L668.385 87.8725L670.019 86.7195L652.227 61.5035L650.593 62.6565ZM669.102 88.291L679.342 89.315L679.541 87.325L669.301 86.301L669.102 88.291ZM678.442 88.32C678.442 90.5047 677.779 92.9034 676.383 95.5308L678.149 96.4691C679.655 93.6352 680.442 90.914 680.442 88.32H678.442ZM677.266 95H647.826V97H677.266V95ZM648.822 95.9146L648.438 91.4346L646.446 91.6054L646.83 96.0854L648.822 95.9146ZM647.833 92.4406C650.575 91.2771 653.664 90.357 657.105 89.6855L656.722 87.7225C653.166 88.4164 649.941 89.3735 647.051 90.5994L647.833 92.4406Z" fill="black" mask="url(#path-1-outside-1_33_57)"/>
</g>
<defs>
<filter id="filter0_d_33_57" x="0.984985" y="0.895992" width="682.457" height="104.768" filterUnits="userSpaceOnUse" color-interpolation-filters="sRGB">
<feFlood flood-opacity="0" result="BackgroundImageFix"/>
<feColorMatrix in="SourceAlpha" type="matrix" values="0 0 0 0 0 0 0 0 0 0 0 0 0 0 0 0 0 0 127 0" result="hardAlpha"/>
<feOffset dy="4"/>
<feGaussianBlur stdDeviation="2"/>
<feComposite in2="hardAlpha" operator="out"/>
<feColorMatrix type="matrix" values="0 0 0 0 0 0 0 0 0 0 0 0 0 0 0 0 0 0 0.25 0"/>
<feBlend mode="normal" in2="BackgroundImageFix" result="effect1_dropShadow_33_57"/>
<feBlend mode="normal" in="SourceGraphic" in2="effect1_dropShadow_33_57" result="shape"/>
</filter>
</defs>
</svg>
