<svg width="89" height="53" viewBox="0 0 89 53" fill="none" xmlns="http://www.w3.org/2000/svg">
<path d="M19.7 23.8L15.8 16.5L11.2 7.70001L6.59998 16.5L2.90002 23.5C1.40002 26.4 0.900024 28.5 0.900024 29.8C0.900024 35.7 5.50001 40.5 11.2 40.5C16.9 40.5 21.5 35.7 21.5 29.8C21.4 28 20.6 25.8 19.7 23.8Z" fill="#F7931E"/>
<path d="M11.1 40.6C5.99998 40.6 1.90002 36.3 1.90002 31C1.90002 30.3 2.09999 28.5 3.79999 25.2L11.1 11.3L18.6 25.5C19.7 27.8 20.3 29.6 20.3 31C20.4 36.2 16.2 40.6 11.1 40.6Z" fill="#FBB03B"/>
<path d="M11.1 40.6C7.09998 40.6 3.79999 37.2 3.79999 32.9C3.79999 32.6 3.9 31 5.5 27.9L11.1 17.2L16.9 28.2C17.9 30.1 18.3 31.7 18.3 32.8C18.4 37.1 15.2 40.6 11.1 40.6Z" fill="#FCD621"/>
<path d="M53.1 35.8L49.2 28.5L44.6 19.7L40 28.5L36.3 35.5C34.8 38.4 34.3 40.5 34.3 41.8C34.3 47.7 38.9 52.5 44.6 52.5C50.3 52.5 54.9 47.7 54.9 41.8C54.9 39.9 54.1 37.8 53.1 35.8Z" fill="#F7931E"/>
<path d="M44.6 52.5C39.5 52.5 35.4 48.2 35.4 42.9C35.4 42.2 35.6 40.4 37.3 37.1L44.6 23.2L52.1 37.4C53.2 39.7 53.8 41.5 53.8 42.9C53.8 48.2 49.6 52.5 44.6 52.5Z" fill="#FBB03B"/>
<path d="M44.6 52.5C40.6 52.5 37.3 49.1 37.3 44.8C37.3 44.5 37.4 42.9 39 39.8L44.6 29.1L50.4 40.1C51.4 42 51.8 43.6 51.8 44.7C51.8 49.1 48.6 52.5 44.6 52.5Z" fill="#FCD621"/>
<path d="M86.8 16.5L82.9 9.20001L78.3 0.399994L73.7 9.20001L70 16.2C68.5 19.1 68 21.2 68 22.5C68 28.4 72.6 33.2 78.3 33.2C84 33.2 88.6 28.4 88.6 22.5C88.6 20.7 87.8 18.5 86.8 16.5Z" fill="#F7931E"/>
<path d="M78.3 33.2C73.2 33.2 69.1 28.9 69.1 23.6C69.1 22.9 69.3 21.1 71 17.8L78.3 3.89999L85.8 18.1C86.9 20.4 87.5 22.2 87.5 23.6C87.5 28.9 83.4 33.2 78.3 33.2Z" fill="#FBB03B"/>
<path d="M78.3 33.2C74.3 33.2 71 29.8 71 25.5C71 25.2 71.1 23.6 72.7 20.5L78.3 9.79999L84.1 20.8C85.1 22.7 85.5 24.3 85.5 25.4C85.6 29.8 82.3 33.2 78.3 33.2Z" fill="#FCD621"/>
</svg>
