<svg width="428" height="107" viewBox="0 0 428 107" fill="none" xmlns="http://www.w3.org/2000/svg">
<path d="M0.32 48.672C1.216 47.968 2.08 47.616 2.912 47.616C3.68 47.616 4.416 47.84 5.12 48.288C5.888 48.736 6.656 49.312 7.424 50.016C8.192 50.656 8.8 51.136 9.248 51.456C10.72 52.608 12.736 53.504 15.296 54.144C17.856 54.784 20.576 55.104 23.456 55.104C26.72 55.104 29.632 54.496 32.192 53.28C34.816 52 36.128 50.304 36.128 48.192C36.128 46.272 35.424 44.768 34.016 43.68C32.608 42.528 30.912 41.696 28.928 41.184C26.944 40.672 24.32 40.192 21.056 39.744C16.64 39.232 13.12 38.592 10.496 37.824C7.936 37.056 5.888 35.808 4.352 34.08C2.816 32.288 2.048 29.792 2.048 26.592C2.048 23.136 3.68 20.576 6.944 18.912C10.208 17.184 13.952 16.32 18.176 16.32C22.016 16.32 25.28 17.152 27.968 18.816C30.72 20.416 32.128 22.72 32.192 25.728C32.32 27.456 32.064 28.832 31.424 29.856C30.784 30.816 30.016 31.296 29.12 31.296C28.608 31.296 28.16 31.104 27.776 30.72C27.456 30.336 27.296 29.824 27.296 29.184C27.296 28.16 27.648 27.04 28.352 25.824C28.032 24.288 26.976 23.136 25.184 22.368C23.456 21.6 21.376 21.216 18.944 21.216C15.36 21.216 12.512 21.888 10.4 23.232C8.288 24.512 7.232 26.048 7.232 27.84C7.232 29.76 8 31.232 9.536 32.256C11.072 33.28 12.928 34.016 15.104 34.464C17.344 34.848 20.512 35.232 24.608 35.616C28 36.064 30.752 36.608 32.864 37.248C35.04 37.888 36.864 39.136 38.336 40.992C39.808 42.784 40.544 45.376 40.544 48.768C40.544 52.288 38.912 55.072 35.648 57.12C32.384 59.104 28.48 60.096 23.936 60.096C18.112 60.096 12.896 59.104 8.288 57.12C3.744 55.136 1.088 52.32 0.32 48.672ZM64.1398 60C63.4998 60.128 63.0838 60.192 62.8918 60.192C60.9078 60.192 59.5318 58.72 58.7638 55.776C58.0598 52.832 57.7078 48.704 57.7078 43.392C57.7078 41.216 57.7718 37.824 57.8998 33.216C58.0278 30.4 58.0918 28.288 58.0918 26.88C50.2198 26.88 46.2838 25.984 46.2838 24.192C46.2838 23.616 46.3478 23.168 46.4758 22.848C46.6678 22.528 47.0518 22.368 47.6278 22.368L58.0918 21.696C58.0278 18.56 57.8678 15.136 57.6118 11.424C57.3558 8.096 57.1958 5.024 57.1318 2.20799C57.1318 1.504 57.4198 1.024 57.9958 0.767996C58.5718 0.447996 59.1798 0.287996 59.8198 0.287996C60.5878 0.287996 61.2278 0.703997 61.7398 1.536C62.2518 2.304 62.5078 3.104 62.5078 3.936L63.1798 21.504L71.1478 21.888C72.3638 21.76 73.3878 21.984 74.2198 22.56C75.1158 23.136 75.5958 24.096 75.6598 25.44C74.3158 26.016 72.8438 26.368 71.2438 26.496C69.6438 26.624 66.9558 26.688 63.1798 26.688C63.1798 32.64 63.4678 42.432 64.0438 56.064C64.0438 57.472 64.0438 58.464 64.0438 59.04C64.1078 59.552 64.1398 59.872 64.1398 60ZM105.606 60C98.9498 60 93.1578 58.848 88.2298 56.544C83.3658 54.176 80.9338 50.048 80.9338 44.16C80.9338 42.048 81.5738 40 82.8538 38.016C84.1338 36.032 86.0218 34.432 88.5178 33.216C91.0138 31.936 94.0538 31.296 97.6378 31.296C100.39 31.296 102.726 31.424 104.646 31.68C106.566 31.936 108.774 32.64 111.27 33.792C113.766 34.944 116.358 36.768 119.046 39.264C118.022 34.848 116.486 30.976 114.438 27.648C112.39 24.32 110.086 21.76 107.526 19.968C105.03 18.112 102.566 17.184 100.134 17.184C98.9818 17.184 97.8938 17.408 96.8698 17.856C95.9098 18.24 94.7258 18.816 93.3178 19.584C91.7178 20.608 90.5338 21.12 89.7657 21.12C89.4458 21.12 89.1578 21.024 88.9018 20.832C88.7098 20.576 88.6138 20.288 88.6138 19.968C88.6138 17.408 89.7338 15.424 91.9738 14.016C94.2778 12.608 97.0618 11.968 100.326 12.096C104.806 12.352 108.902 14.272 112.614 17.856C116.326 21.376 119.238 25.76 121.35 31.008C123.526 36.256 124.614 41.408 124.614 46.464C124.614 47.296 124.55 48.48 124.422 50.016L121.35 49.824C118.918 44.896 115.782 41.408 111.942 39.36C108.166 37.248 104.358 36.192 100.518 36.192C95.5898 36.192 92.0698 36.928 89.9578 38.4C87.8458 39.872 86.7898 42.016 86.7898 44.832C86.7898 47.776 88.2618 50.144 91.2057 51.936C94.1498 53.728 97.9258 54.624 102.534 54.624C105.094 54.624 107.142 54.496 108.678 54.24C110.214 53.92 111.814 53.504 113.478 52.992C114.822 52.544 116.006 52.224 117.03 52.032C118.054 51.84 119.366 51.744 120.966 51.744C122.758 51.744 123.878 51.872 124.326 52.128C124.838 52.384 125.094 52.96 125.094 53.856C125.094 54.496 123.782 55.296 121.158 56.256C118.534 57.216 115.59 58.08 112.326 58.848C109.062 59.616 106.822 60 105.606 60ZM141.226 60C138.602 54.88 136.522 48.864 134.986 41.952C133.514 35.04 132.778 29.056 132.778 24C132.778 22.016 133.226 20.736 134.122 20.16C134.634 19.84 135.018 19.68 135.273 19.68C135.722 19.68 136.042 20.032 136.234 20.736C136.49 21.44 136.746 22.72 137.002 24.576L137.482 28.032C138.186 24.576 139.53 21.856 141.514 19.872C143.562 17.824 146.058 16.8 149.002 16.8C152.266 16.8 154.698 17.44 156.298 18.72C157.898 19.936 158.698 21.984 158.698 24.864C155.498 23.328 152.586 22.56 149.962 22.56C147.466 22.56 145.322 23.232 143.53 24.576C141.738 25.92 140.49 27.904 139.786 30.528C139.21 32.32 138.922 34.016 138.922 35.616C138.922 37.344 139.146 38.976 139.594 40.512C140.106 41.984 140.874 43.808 141.898 45.984C142.858 48.224 143.594 50.144 144.106 51.744C144.682 53.344 145.002 55.072 145.066 56.928C145.066 58.016 144.682 58.816 143.914 59.328C143.146 59.776 142.25 60 141.226 60ZM177.952 60C177.312 60.128 176.896 60.192 176.704 60.192C174.72 60.192 173.344 58.72 172.576 55.776C171.872 52.832 171.52 48.704 171.52 43.392C171.52 41.216 171.584 37.824 171.712 33.216C171.84 30.4 171.904 28.288 171.904 26.88C164.032 26.88 160.096 25.984 160.096 24.192C160.096 23.616 160.16 23.168 160.288 22.848C160.48 22.528 160.864 22.368 161.44 22.368L171.904 21.696C171.84 18.56 171.68 15.136 171.424 11.424C171.168 8.096 171.008 5.024 170.944 2.20799C170.944 1.504 171.232 1.024 171.808 0.767996C172.384 0.447996 172.992 0.287996 173.632 0.287996C174.4 0.287996 175.04 0.703997 175.552 1.536C176.064 2.304 176.32 3.104 176.32 3.936L176.992 21.504L184.96 21.888C186.176 21.76 187.2 21.984 188.032 22.56C188.928 23.136 189.408 24.096 189.472 25.44C188.128 26.016 186.656 26.368 185.056 26.496C183.456 26.624 180.768 26.688 176.992 26.688C176.992 32.64 177.28 42.432 177.856 56.064C177.856 57.472 177.856 58.464 177.856 59.04C177.92 59.552 177.952 59.872 177.952 60ZM234.874 106.848C229.498 106.848 224.986 105.312 221.338 102.24C217.754 99.232 215.61 94.144 214.906 86.976C214.842 85.888 215.002 85.056 215.386 84.48C215.834 83.904 216.41 83.616 217.114 83.616C217.882 83.616 218.554 83.904 219.13 84.48C219.706 85.12 219.962 85.952 219.898 86.976C219.898 91.2 221.338 94.528 224.218 96.96C227.162 99.456 230.906 100.704 235.45 100.704C238.074 100.704 240.378 99.744 242.362 97.824C244.41 95.904 245.978 93.216 247.066 89.76C248.154 86.368 248.698 82.464 248.698 78.048C248.698 70.304 248.794 62.784 248.986 55.488L249.082 50.592C246.586 53.216 244.314 55.136 242.266 56.352C240.282 57.568 237.882 58.176 235.066 58.176C230.138 58.176 226.49 56.864 224.122 54.24C221.818 51.552 220.666 47.456 220.666 41.952C220.666 38.816 221.498 35.552 223.162 32.16C224.89 28.704 227.226 25.824 230.17 23.52C233.178 21.216 236.57 20.064 240.346 20.064C241.626 20.064 242.81 20.192 243.898 20.448C247.994 21.344 250.746 25.152 252.154 31.872C253.562 38.592 254.266 47.296 254.266 57.984C254.266 60.928 254.202 64.832 254.074 69.696L253.978 78.816C253.978 82.464 253.402 86.432 252.25 90.72C251.098 95.072 249.082 98.848 246.202 102.048C243.322 105.248 239.546 106.848 234.874 106.848ZM233.626 51.84C238.362 51.84 241.946 50.72 244.378 48.48C246.81 46.176 248.026 42.816 248.026 38.4C248.026 37.824 247.962 36.832 247.834 35.424C247.514 32.48 246.746 30.176 245.53 28.512C244.378 26.784 242.554 25.92 240.058 25.92C237.434 25.92 235.034 26.848 232.858 28.704C230.682 30.56 228.986 32.864 227.77 35.616C226.554 38.304 225.946 40.832 225.946 43.2C225.946 45.568 226.65 47.616 228.058 49.344C229.466 51.008 231.322 51.84 233.626 51.84ZM286.637 60C279.981 60 274.189 58.848 269.261 56.544C264.397 54.176 261.965 50.048 261.965 44.16C261.965 42.048 262.605 40 263.885 38.016C265.165 36.032 267.053 34.432 269.549 33.216C272.045 31.936 275.085 31.296 278.669 31.296C281.421 31.296 283.757 31.424 285.677 31.68C287.597 31.936 289.805 32.64 292.301 33.792C294.797 34.944 297.389 36.768 300.077 39.264C299.053 34.848 297.517 30.976 295.469 27.648C293.421 24.32 291.117 21.76 288.557 19.968C286.061 18.112 283.597 17.184 281.165 17.184C280.013 17.184 278.925 17.408 277.901 17.856C276.941 18.24 275.757 18.816 274.349 19.584C272.749 20.608 271.565 21.12 270.797 21.12C270.477 21.12 270.189 21.024 269.933 20.832C269.741 20.576 269.645 20.288 269.645 19.968C269.645 17.408 270.765 15.424 273.005 14.016C275.309 12.608 278.093 11.968 281.357 12.096C285.837 12.352 289.933 14.272 293.645 17.856C297.357 21.376 300.269 25.76 302.381 31.008C304.557 36.256 305.645 41.408 305.645 46.464C305.645 47.296 305.581 48.48 305.453 50.016L302.381 49.824C299.949 44.896 296.813 41.408 292.973 39.36C289.197 37.248 285.389 36.192 281.549 36.192C276.621 36.192 273.101 36.928 270.989 38.4C268.877 39.872 267.821 42.016 267.821 44.832C267.821 47.776 269.293 50.144 272.237 51.936C275.181 53.728 278.957 54.624 283.565 54.624C286.125 54.624 288.173 54.496 289.709 54.24C291.245 53.92 292.845 53.504 294.509 52.992C295.853 52.544 297.037 52.224 298.061 52.032C299.085 51.84 300.397 51.744 301.997 51.744C303.789 51.744 304.909 51.872 305.357 52.128C305.869 52.384 306.125 52.96 306.125 53.856C306.125 54.496 304.813 55.296 302.189 56.256C299.565 57.216 296.621 58.08 293.357 58.848C290.093 59.616 287.853 60 286.637 60ZM376.113 60.096C375.153 60.096 374.577 59.84 374.385 59.328C374.193 58.752 374.097 57.888 374.097 56.736C374.161 56.288 374.193 55.776 374.193 55.2C374.193 54.56 374.225 54.08 374.289 53.76C374.673 50.688 374.865 47.776 374.865 45.024C374.865 38.944 373.841 34.208 371.793 30.816C369.745 27.36 366.513 25.632 362.097 25.632C359.665 25.632 357.233 26.24 354.801 27.456C352.433 28.672 350.481 30.176 348.945 31.968C347.473 33.76 346.737 35.392 346.737 36.864C347.057 38.72 347.633 40.992 348.465 43.68C348.529 44 348.785 44.992 349.233 46.656C349.745 48.32 350.001 49.824 350.001 51.168L350.097 52.992C350.097 54.016 349.585 54.528 348.561 54.528C347.281 54.528 346.225 53.696 345.393 52.032C344.625 50.368 343.761 47.776 342.801 44.256C341.841 40.8 340.913 37.952 340.017 35.712C339.121 33.472 337.905 31.552 336.369 29.952C334.833 28.352 332.881 27.552 330.513 27.552C327.249 27.552 324.689 28.672 322.833 30.912C321.041 33.152 320.145 35.904 320.145 39.168C320.145 41.344 320.337 44.224 320.721 47.808C321.041 50.496 321.201 52.8 321.201 54.72C321.201 55.872 321.073 56.736 320.817 57.312C320.561 57.888 319.953 58.176 318.993 58.176C317.713 58.176 316.817 57.76 316.305 56.928C315.793 56.032 315.537 54.688 315.537 52.896C315.537 49.376 315.345 45.12 314.961 40.128C314.897 39.488 314.769 37.856 314.577 35.232C314.385 32.544 314.353 29.856 314.481 27.168L314.577 24C314.961 23.616 315.409 23.424 315.921 23.424C316.625 23.424 317.201 23.872 317.649 24.768C318.161 25.6 318.417 26.88 318.417 28.608C319.377 26.944 320.785 25.44 322.641 24.096C324.497 22.752 326.449 22.08 328.497 22.08C332.017 22.08 334.929 22.816 337.233 24.288C339.601 25.696 341.745 28 343.665 31.2C345.457 27.936 348.145 25.152 351.729 22.848C355.377 20.544 359.121 19.392 362.961 19.392C366.929 19.392 370.225 20.896 372.849 23.904C375.537 26.912 377.489 30.528 378.705 34.752C379.985 38.976 380.625 42.88 380.625 46.464C380.625 49.664 380.337 52.736 379.761 55.68C379.249 58.624 378.033 60.096 376.113 60.096ZM410.996 60C406.9 60 403.124 59.2 399.668 57.6C396.212 56 393.46 53.728 391.412 50.784C389.364 47.84 388.34 44.448 388.34 40.608C388.34 36.32 389.14 32.32 390.74 28.608C392.34 24.832 394.676 21.824 397.748 19.584C400.884 17.28 404.532 16.128 408.692 16.128C413.044 16.128 416.34 17.536 418.58 20.352C420.82 23.104 421.876 26.592 421.748 30.816C421.748 34.592 420.244 37.472 417.236 39.456C414.292 41.44 410.516 42.432 405.908 42.432C405.204 42.432 404.148 42.368 402.74 42.24C400.436 41.984 398.804 41.632 397.844 41.184C396.884 40.736 396.404 39.84 396.404 38.496C396.404 38.048 396.532 37.728 396.788 37.536C397.044 37.28 397.556 37.152 398.324 37.152C399.156 37.152 400.628 37.344 402.74 37.728C404.788 38.112 406.612 38.304 408.212 38.304C414.1 38.304 417.044 35.744 417.044 30.624C417.044 27.552 416.468 25.12 415.316 23.328C414.228 21.536 412.276 20.64 409.46 20.64C406.388 20.64 403.636 21.472 401.204 23.136C398.772 24.736 396.884 26.848 395.54 29.472C394.26 32.096 393.62 34.88 393.62 37.824C393.62 42.88 395.028 47.04 397.844 50.304C400.66 53.504 405.012 55.104 410.9 55.104C411.604 55.104 412.788 55.04 414.452 54.912C415.156 54.848 416.02 54.656 417.044 54.336C418.068 54.016 418.804 53.792 419.252 53.664C422.004 52.704 424.02 52.224 425.3 52.224C426.26 52.224 426.996 52.48 427.508 52.992C425.908 55.424 423.508 57.216 420.308 58.368C417.172 59.456 414.068 60 410.996 60Z" fill="white"/>
</svg>
