<svg width="432" height="140" viewBox="0 0 432 140" fill="none" xmlns="http://www.w3.org/2000/svg">
<path d="M4.32 81.672C5.216 80.968 6.08 80.616 6.912 80.616C7.68 80.616 8.416 80.84 9.12 81.288C9.888 81.736 10.656 82.312 11.424 83.016C12.192 83.656 12.8 84.136 13.248 84.456C14.72 85.608 16.736 86.504 19.296 87.144C21.856 87.784 24.576 88.104 27.456 88.104C30.72 88.104 33.632 87.496 36.192 86.28C38.816 85 40.128 83.304 40.128 81.192C40.128 79.272 39.424 77.768 38.016 76.68C36.608 75.528 34.912 74.696 32.928 74.184C30.944 73.672 28.32 73.192 25.056 72.744C20.64 72.232 17.12 71.592 14.496 70.824C11.936 70.056 9.888 68.808 8.352 67.08C6.816 65.288 6.048 62.792 6.048 59.592C6.048 56.136 7.68 53.576 10.944 51.912C14.208 50.184 17.952 49.32 22.176 49.32C26.016 49.32 29.28 50.152 31.968 51.816C34.72 53.416 36.128 55.72 36.192 58.728C36.32 60.456 36.064 61.832 35.424 62.856C34.784 63.816 34.016 64.296 33.12 64.296C32.608 64.296 32.16 64.104 31.776 63.72C31.456 63.336 31.296 62.824 31.296 62.184C31.296 61.16 31.648 60.04 32.352 58.824C32.032 57.288 30.976 56.136 29.184 55.368C27.456 54.6 25.376 54.216 22.944 54.216C19.36 54.216 16.512 54.888 14.4 56.232C12.288 57.512 11.232 59.048 11.232 60.84C11.232 62.76 12 64.232 13.536 65.256C15.072 66.28 16.928 67.016 19.104 67.464C21.344 67.848 24.512 68.232 28.608 68.616C32 69.064 34.752 69.608 36.864 70.248C39.04 70.888 40.864 72.136 42.336 73.992C43.808 75.784 44.544 78.376 44.544 81.768C44.544 85.288 42.912 88.072 39.648 90.12C36.384 92.104 32.48 93.096 27.936 93.096C22.112 93.096 16.896 92.104 12.288 90.12C7.744 88.136 5.088 85.32 4.32 81.672ZM68.1398 93C67.4998 93.128 67.0838 93.192 66.8918 93.192C64.9078 93.192 63.5318 91.72 62.7638 88.776C62.0598 85.832 61.7078 81.704 61.7078 76.392C61.7078 74.216 61.7718 70.824 61.8998 66.216C62.0278 63.4 62.0918 61.288 62.0918 59.88C54.2198 59.88 50.2838 58.984 50.2838 57.192C50.2838 56.616 50.3478 56.168 50.4758 55.848C50.6678 55.528 51.0518 55.368 51.6278 55.368L62.0918 54.696C62.0278 51.56 61.8678 48.136 61.6118 44.424C61.3558 41.096 61.1958 38.024 61.1318 35.208C61.1318 34.504 61.4198 34.024 61.9958 33.768C62.5718 33.448 63.1798 33.288 63.8198 33.288C64.5878 33.288 65.2278 33.704 65.7398 34.536C66.2518 35.304 66.5078 36.104 66.5078 36.936L67.1798 54.504L75.1478 54.888C76.3638 54.76 77.3878 54.984 78.2198 55.56C79.1158 56.136 79.5958 57.096 79.6598 58.44C78.3158 59.016 76.8438 59.368 75.2438 59.496C73.6438 59.624 70.9558 59.688 67.1798 59.688C67.1798 65.64 67.4678 75.432 68.0438 89.064C68.0438 90.472 68.0438 91.464 68.0438 92.04C68.1078 92.552 68.1398 92.872 68.1398 93ZM109.606 93C102.95 93 97.1578 91.848 92.2298 89.544C87.3658 87.176 84.9338 83.048 84.9338 77.16C84.9338 75.048 85.5738 73 86.8538 71.016C88.1338 69.032 90.0218 67.432 92.5178 66.216C95.0138 64.936 98.0538 64.296 101.638 64.296C104.39 64.296 106.726 64.424 108.646 64.68C110.566 64.936 112.774 65.64 115.27 66.792C117.766 67.944 120.358 69.768 123.046 72.264C122.022 67.848 120.486 63.976 118.438 60.648C116.39 57.32 114.086 54.76 111.526 52.968C109.03 51.112 106.566 50.184 104.134 50.184C102.982 50.184 101.894 50.408 100.87 50.856C99.9098 51.24 98.7258 51.816 97.3178 52.584C95.7178 53.608 94.5338 54.12 93.7657 54.12C93.4458 54.12 93.1578 54.024 92.9018 53.832C92.7098 53.576 92.6138 53.288 92.6138 52.968C92.6138 50.408 93.7338 48.424 95.9738 47.016C98.2778 45.608 101.062 44.968 104.326 45.096C108.806 45.352 112.902 47.272 116.614 50.856C120.326 54.376 123.238 58.76 125.35 64.008C127.526 69.256 128.614 74.408 128.614 79.464C128.614 80.296 128.55 81.48 128.422 83.016L125.35 82.824C122.918 77.896 119.782 74.408 115.942 72.36C112.166 70.248 108.358 69.192 104.518 69.192C99.5898 69.192 96.0698 69.928 93.9578 71.4C91.8458 72.872 90.7898 75.016 90.7898 77.832C90.7898 80.776 92.2618 83.144 95.2057 84.936C98.1498 86.728 101.926 87.624 106.534 87.624C109.094 87.624 111.142 87.496 112.678 87.24C114.214 86.92 115.814 86.504 117.478 85.992C118.822 85.544 120.006 85.224 121.03 85.032C122.054 84.84 123.366 84.744 124.966 84.744C126.758 84.744 127.878 84.872 128.326 85.128C128.838 85.384 129.094 85.96 129.094 86.856C129.094 87.496 127.782 88.296 125.158 89.256C122.534 90.216 119.59 91.08 116.326 91.848C113.062 92.616 110.822 93 109.606 93ZM145.226 93C142.602 87.88 140.522 81.864 138.986 74.952C137.514 68.04 136.778 62.056 136.778 57C136.778 55.016 137.226 53.736 138.122 53.16C138.634 52.84 139.018 52.68 139.273 52.68C139.722 52.68 140.042 53.032 140.234 53.736C140.49 54.44 140.746 55.72 141.002 57.576L141.482 61.032C142.186 57.576 143.53 54.856 145.514 52.872C147.562 50.824 150.058 49.8 153.002 49.8C156.266 49.8 158.698 50.44 160.298 51.72C161.898 52.936 162.698 54.984 162.698 57.864C159.498 56.328 156.586 55.56 153.962 55.56C151.466 55.56 149.322 56.232 147.53 57.576C145.738 58.92 144.49 60.904 143.786 63.528C143.21 65.32 142.922 67.016 142.922 68.616C142.922 70.344 143.146 71.976 143.594 73.512C144.106 74.984 144.874 76.808 145.898 78.984C146.858 81.224 147.594 83.144 148.106 84.744C148.682 86.344 149.002 88.072 149.066 89.928C149.066 91.016 148.682 91.816 147.914 92.328C147.146 92.776 146.25 93 145.226 93ZM181.952 93C181.312 93.128 180.896 93.192 180.704 93.192C178.72 93.192 177.344 91.72 176.576 88.776C175.872 85.832 175.52 81.704 175.52 76.392C175.52 74.216 175.584 70.824 175.712 66.216C175.84 63.4 175.904 61.288 175.904 59.88C168.032 59.88 164.096 58.984 164.096 57.192C164.096 56.616 164.16 56.168 164.288 55.848C164.48 55.528 164.864 55.368 165.44 55.368L175.904 54.696C175.84 51.56 175.68 48.136 175.424 44.424C175.168 41.096 175.008 38.024 174.944 35.208C174.944 34.504 175.232 34.024 175.808 33.768C176.384 33.448 176.992 33.288 177.632 33.288C178.4 33.288 179.04 33.704 179.552 34.536C180.064 35.304 180.32 36.104 180.32 36.936L180.992 54.504L188.96 54.888C190.176 54.76 191.2 54.984 192.032 55.56C192.928 56.136 193.408 57.096 193.472 58.44C192.128 59.016 190.656 59.368 189.056 59.496C187.456 59.624 184.768 59.688 180.992 59.688C180.992 65.64 181.28 75.432 181.856 89.064C181.856 90.472 181.856 91.464 181.856 92.04C181.92 92.552 181.952 92.872 181.952 93ZM238.874 139.848C233.498 139.848 228.986 138.312 225.338 135.24C221.754 132.232 219.61 127.144 218.906 119.976C218.842 118.888 219.002 118.056 219.386 117.48C219.834 116.904 220.41 116.616 221.114 116.616C221.882 116.616 222.554 116.904 223.13 117.48C223.706 118.12 223.962 118.952 223.898 119.976C223.898 124.2 225.338 127.528 228.218 129.96C231.162 132.456 234.906 133.704 239.45 133.704C242.074 133.704 244.378 132.744 246.362 130.824C248.41 128.904 249.978 126.216 251.066 122.76C252.154 119.368 252.698 115.464 252.698 111.048C252.698 103.304 252.794 95.784 252.986 88.488L253.082 83.592C250.586 86.216 248.314 88.136 246.266 89.352C244.282 90.568 241.882 91.176 239.066 91.176C234.138 91.176 230.49 89.864 228.122 87.24C225.818 84.552 224.666 80.456 224.666 74.952C224.666 71.816 225.498 68.552 227.162 65.16C228.89 61.704 231.226 58.824 234.17 56.52C237.178 54.216 240.57 53.064 244.346 53.064C245.626 53.064 246.81 53.192 247.898 53.448C251.994 54.344 254.746 58.152 256.154 64.872C257.562 71.592 258.266 80.296 258.266 90.984C258.266 93.928 258.202 97.832 258.074 102.696L257.978 111.816C257.978 115.464 257.402 119.432 256.25 123.72C255.098 128.072 253.082 131.848 250.202 135.048C247.322 138.248 243.546 139.848 238.874 139.848ZM237.626 84.84C242.362 84.84 245.946 83.72 248.378 81.48C250.81 79.176 252.026 75.816 252.026 71.4C252.026 70.824 251.962 69.832 251.834 68.424C251.514 65.48 250.746 63.176 249.53 61.512C248.378 59.784 246.554 58.92 244.058 58.92C241.434 58.92 239.034 59.848 236.858 61.704C234.682 63.56 232.986 65.864 231.77 68.616C230.554 71.304 229.946 73.832 229.946 76.2C229.946 78.568 230.65 80.616 232.058 82.344C233.466 84.008 235.322 84.84 237.626 84.84ZM290.637 93C283.981 93 278.189 91.848 273.261 89.544C268.397 87.176 265.965 83.048 265.965 77.16C265.965 75.048 266.605 73 267.885 71.016C269.165 69.032 271.053 67.432 273.549 66.216C276.045 64.936 279.085 64.296 282.669 64.296C285.421 64.296 287.757 64.424 289.677 64.68C291.597 64.936 293.805 65.64 296.301 66.792C298.797 67.944 301.389 69.768 304.077 72.264C303.053 67.848 301.517 63.976 299.469 60.648C297.421 57.32 295.117 54.76 292.557 52.968C290.061 51.112 287.597 50.184 285.165 50.184C284.013 50.184 282.925 50.408 281.901 50.856C280.941 51.24 279.757 51.816 278.349 52.584C276.749 53.608 275.565 54.12 274.797 54.12C274.477 54.12 274.189 54.024 273.933 53.832C273.741 53.576 273.645 53.288 273.645 52.968C273.645 50.408 274.765 48.424 277.005 47.016C279.309 45.608 282.093 44.968 285.357 45.096C289.837 45.352 293.933 47.272 297.645 50.856C301.357 54.376 304.269 58.76 306.381 64.008C308.557 69.256 309.645 74.408 309.645 79.464C309.645 80.296 309.581 81.48 309.453 83.016L306.381 82.824C303.949 77.896 300.813 74.408 296.973 72.36C293.197 70.248 289.389 69.192 285.549 69.192C280.621 69.192 277.101 69.928 274.989 71.4C272.877 72.872 271.821 75.016 271.821 77.832C271.821 80.776 273.293 83.144 276.237 84.936C279.181 86.728 282.957 87.624 287.565 87.624C290.125 87.624 292.173 87.496 293.709 87.24C295.245 86.92 296.845 86.504 298.509 85.992C299.853 85.544 301.037 85.224 302.061 85.032C303.085 84.84 304.397 84.744 305.997 84.744C307.789 84.744 308.909 84.872 309.357 85.128C309.869 85.384 310.125 85.96 310.125 86.856C310.125 87.496 308.813 88.296 306.189 89.256C303.565 90.216 300.621 91.08 297.357 91.848C294.093 92.616 291.853 93 290.637 93ZM380.113 93.096C379.153 93.096 378.577 92.84 378.385 92.328C378.193 91.752 378.097 90.888 378.097 89.736C378.161 89.288 378.193 88.776 378.193 88.2C378.193 87.56 378.225 87.08 378.289 86.76C378.673 83.688 378.865 80.776 378.865 78.024C378.865 71.944 377.841 67.208 375.793 63.816C373.745 60.36 370.513 58.632 366.097 58.632C363.665 58.632 361.233 59.24 358.801 60.456C356.433 61.672 354.481 63.176 352.945 64.968C351.473 66.76 350.737 68.392 350.737 69.864C351.057 71.72 351.633 73.992 352.465 76.68C352.529 77 352.785 77.992 353.233 79.656C353.745 81.32 354.001 82.824 354.001 84.168L354.097 85.992C354.097 87.016 353.585 87.528 352.561 87.528C351.281 87.528 350.225 86.696 349.393 85.032C348.625 83.368 347.761 80.776 346.801 77.256C345.841 73.8 344.913 70.952 344.017 68.712C343.121 66.472 341.905 64.552 340.369 62.952C338.833 61.352 336.881 60.552 334.513 60.552C331.249 60.552 328.689 61.672 326.833 63.912C325.041 66.152 324.145 68.904 324.145 72.168C324.145 74.344 324.337 77.224 324.721 80.808C325.041 83.496 325.201 85.8 325.201 87.72C325.201 88.872 325.073 89.736 324.817 90.312C324.561 90.888 323.953 91.176 322.993 91.176C321.713 91.176 320.817 90.76 320.305 89.928C319.793 89.032 319.537 87.688 319.537 85.896C319.537 82.376 319.345 78.12 318.961 73.128C318.897 72.488 318.769 70.856 318.577 68.232C318.385 65.544 318.353 62.856 318.481 60.168L318.577 57C318.961 56.616 319.409 56.424 319.921 56.424C320.625 56.424 321.201 56.872 321.649 57.768C322.161 58.6 322.417 59.88 322.417 61.608C323.377 59.944 324.785 58.44 326.641 57.096C328.497 55.752 330.449 55.08 332.497 55.08C336.017 55.08 338.929 55.816 341.233 57.288C343.601 58.696 345.745 61 347.665 64.2C349.457 60.936 352.145 58.152 355.729 55.848C359.377 53.544 363.121 52.392 366.961 52.392C370.929 52.392 374.225 53.896 376.849 56.904C379.537 59.912 381.489 63.528 382.705 67.752C383.985 71.976 384.625 75.88 384.625 79.464C384.625 82.664 384.337 85.736 383.761 88.68C383.249 91.624 382.033 93.096 380.113 93.096ZM414.996 93C410.9 93 407.124 92.2 403.668 90.6C400.212 89 397.46 86.728 395.412 83.784C393.364 80.84 392.34 77.448 392.34 73.608C392.34 69.32 393.14 65.32 394.74 61.608C396.34 57.832 398.676 54.824 401.748 52.584C404.884 50.28 408.532 49.128 412.692 49.128C417.044 49.128 420.34 50.536 422.58 53.352C424.82 56.104 425.876 59.592 425.748 63.816C425.748 67.592 424.244 70.472 421.236 72.456C418.292 74.44 414.516 75.432 409.908 75.432C409.204 75.432 408.148 75.368 406.74 75.24C404.436 74.984 402.804 74.632 401.844 74.184C400.884 73.736 400.404 72.84 400.404 71.496C400.404 71.048 400.532 70.728 400.788 70.536C401.044 70.28 401.556 70.152 402.324 70.152C403.156 70.152 404.628 70.344 406.74 70.728C408.788 71.112 410.612 71.304 412.212 71.304C418.1 71.304 421.044 68.744 421.044 63.624C421.044 60.552 420.468 58.12 419.316 56.328C418.228 54.536 416.276 53.64 413.46 53.64C410.388 53.64 407.636 54.472 405.204 56.136C402.772 57.736 400.884 59.848 399.54 62.472C398.26 65.096 397.62 67.88 397.62 70.824C397.62 75.88 399.028 80.04 401.844 83.304C404.66 86.504 409.012 88.104 414.9 88.104C415.604 88.104 416.788 88.04 418.452 87.912C419.156 87.848 420.02 87.656 421.044 87.336C422.068 87.016 422.804 86.792 423.252 86.664C426.004 85.704 428.02 85.224 429.3 85.224C430.26 85.224 430.996 85.48 431.508 85.992C429.908 88.424 427.508 90.216 424.308 91.368C421.172 92.456 418.068 93 414.996 93Z" fill="white"/>
<rect y="102" width="432" height="3" rx="1.5" fill="white"/>
</svg>
