<svg width="432" height="107" viewBox="0 0 432 107" fill="none" xmlns="http://www.w3.org/2000/svg">
<path d="M4.32 48.672C5.216 47.968 6.08 47.616 6.912 47.616C7.68 47.616 8.416 47.84 9.12 48.288C9.888 48.736 10.656 49.312 11.424 50.016C12.192 50.656 12.8 51.136 13.248 51.456C14.72 52.608 16.736 53.504 19.296 54.144C21.856 54.784 24.576 55.104 27.456 55.104C30.72 55.104 33.632 54.496 36.192 53.28C38.816 52 40.128 50.304 40.128 48.192C40.128 46.272 39.424 44.768 38.016 43.68C36.608 42.528 34.912 41.696 32.928 41.184C30.944 40.672 28.32 40.192 25.056 39.744C20.64 39.232 17.12 38.592 14.496 37.824C11.936 37.056 9.888 35.808 8.352 34.08C6.816 32.288 6.048 29.792 6.048 26.592C6.048 23.136 7.68 20.576 10.944 18.912C14.208 17.184 17.952 16.32 22.176 16.32C26.016 16.32 29.28 17.152 31.968 18.816C34.72 20.416 36.128 22.72 36.192 25.728C36.32 27.456 36.064 28.832 35.424 29.856C34.784 30.816 34.016 31.296 33.12 31.296C32.608 31.296 32.16 31.104 31.776 30.72C31.456 30.336 31.296 29.824 31.296 29.184C31.296 28.16 31.648 27.04 32.352 25.824C32.032 24.288 30.976 23.136 29.184 22.368C27.456 21.6 25.376 21.216 22.944 21.216C19.36 21.216 16.512 21.888 14.4 23.232C12.288 24.512 11.232 26.048 11.232 27.84C11.232 29.76 12 31.232 13.536 32.256C15.072 33.28 16.928 34.016 19.104 34.464C21.344 34.848 24.512 35.232 28.608 35.616C32 36.064 34.752 36.608 36.864 37.248C39.04 37.888 40.864 39.136 42.336 40.992C43.808 42.784 44.544 45.376 44.544 48.768C44.544 52.288 42.912 55.072 39.648 57.12C36.384 59.104 32.48 60.096 27.936 60.096C22.112 60.096 16.896 59.104 12.288 57.12C7.744 55.136 5.088 52.32 4.32 48.672ZM68.1398 60C67.4998 60.128 67.0838 60.192 66.8918 60.192C64.9078 60.192 63.5318 58.72 62.7638 55.776C62.0598 52.832 61.7078 48.704 61.7078 43.392C61.7078 41.216 61.7718 37.824 61.8998 33.216C62.0278 30.4 62.0918 28.288 62.0918 26.88C54.2198 26.88 50.2838 25.984 50.2838 24.192C50.2838 23.616 50.3478 23.168 50.4758 22.848C50.6678 22.528 51.0518 22.368 51.6278 22.368L62.0918 21.696C62.0278 18.56 61.8678 15.136 61.6118 11.424C61.3558 8.096 61.1958 5.024 61.1318 2.20799C61.1318 1.504 61.4198 1.024 61.9958 0.767996C62.5718 0.447996 63.1798 0.287996 63.8198 0.287996C64.5878 0.287996 65.2278 0.703997 65.7398 1.536C66.2518 2.304 66.5078 3.104 66.5078 3.936L67.1798 21.504L75.1478 21.888C76.3638 21.76 77.3878 21.984 78.2198 22.56C79.1158 23.136 79.5958 24.096 79.6598 25.44C78.3158 26.016 76.8438 26.368 75.2438 26.496C73.6438 26.624 70.9558 26.688 67.1798 26.688C67.1798 32.64 67.4678 42.432 68.0438 56.064C68.0438 57.472 68.0438 58.464 68.0438 59.04C68.1078 59.552 68.1398 59.872 68.1398 60ZM109.606 60C102.95 60 97.1578 58.848 92.2298 56.544C87.3658 54.176 84.9338 50.048 84.9338 44.16C84.9338 42.048 85.5738 40 86.8538 38.016C88.1338 36.032 90.0218 34.432 92.5178 33.216C95.0138 31.936 98.0538 31.296 101.638 31.296C104.39 31.296 106.726 31.424 108.646 31.68C110.566 31.936 112.774 32.64 115.27 33.792C117.766 34.944 120.358 36.768 123.046 39.264C122.022 34.848 120.486 30.976 118.438 27.648C116.39 24.32 114.086 21.76 111.526 19.968C109.03 18.112 106.566 17.184 104.134 17.184C102.982 17.184 101.894 17.408 100.87 17.856C99.9098 18.24 98.7258 18.816 97.3178 19.584C95.7178 20.608 94.5338 21.12 93.7657 21.12C93.4458 21.12 93.1578 21.024 92.9018 20.832C92.7098 20.576 92.6138 20.288 92.6138 19.968C92.6138 17.408 93.7338 15.424 95.9738 14.016C98.2778 12.608 101.062 11.968 104.326 12.096C108.806 12.352 112.902 14.272 116.614 17.856C120.326 21.376 123.238 25.76 125.35 31.008C127.526 36.256 128.614 41.408 128.614 46.464C128.614 47.296 128.55 48.48 128.422 50.016L125.35 49.824C122.918 44.896 119.782 41.408 115.942 39.36C112.166 37.248 108.358 36.192 104.518 36.192C99.5898 36.192 96.0698 36.928 93.9578 38.4C91.8458 39.872 90.7898 42.016 90.7898 44.832C90.7898 47.776 92.2618 50.144 95.2057 51.936C98.1498 53.728 101.926 54.624 106.534 54.624C109.094 54.624 111.142 54.496 112.678 54.24C114.214 53.92 115.814 53.504 117.478 52.992C118.822 52.544 120.006 52.224 121.03 52.032C122.054 51.84 123.366 51.744 124.966 51.744C126.758 51.744 127.878 51.872 128.326 52.128C128.838 52.384 129.094 52.96 129.094 53.856C129.094 54.496 127.782 55.296 125.158 56.256C122.534 57.216 119.59 58.08 116.326 58.848C113.062 59.616 110.822 60 109.606 60ZM145.226 60C142.602 54.88 140.522 48.864 138.986 41.952C137.514 35.04 136.778 29.056 136.778 24C136.778 22.016 137.226 20.736 138.122 20.16C138.634 19.84 139.018 19.68 139.273 19.68C139.722 19.68 140.042 20.032 140.234 20.736C140.49 21.44 140.746 22.72 141.002 24.576L141.482 28.032C142.186 24.576 143.53 21.856 145.514 19.872C147.562 17.824 150.058 16.8 153.002 16.8C156.266 16.8 158.698 17.44 160.298 18.72C161.898 19.936 162.698 21.984 162.698 24.864C159.498 23.328 156.586 22.56 153.962 22.56C151.466 22.56 149.322 23.232 147.53 24.576C145.738 25.92 144.49 27.904 143.786 30.528C143.21 32.32 142.922 34.016 142.922 35.616C142.922 37.344 143.146 38.976 143.594 40.512C144.106 41.984 144.874 43.808 145.898 45.984C146.858 48.224 147.594 50.144 148.106 51.744C148.682 53.344 149.002 55.072 149.066 56.928C149.066 58.016 148.682 58.816 147.914 59.328C147.146 59.776 146.25 60 145.226 60ZM181.952 60C181.312 60.128 180.896 60.192 180.704 60.192C178.72 60.192 177.344 58.72 176.576 55.776C175.872 52.832 175.52 48.704 175.52 43.392C175.52 41.216 175.584 37.824 175.712 33.216C175.84 30.4 175.904 28.288 175.904 26.88C168.032 26.88 164.096 25.984 164.096 24.192C164.096 23.616 164.16 23.168 164.288 22.848C164.48 22.528 164.864 22.368 165.44 22.368L175.904 21.696C175.84 18.56 175.68 15.136 175.424 11.424C175.168 8.096 175.008 5.024 174.944 2.20799C174.944 1.504 175.232 1.024 175.808 0.767996C176.384 0.447996 176.992 0.287996 177.632 0.287996C178.4 0.287996 179.04 0.703997 179.552 1.536C180.064 2.304 180.32 3.104 180.32 3.936L180.992 21.504L188.96 21.888C190.176 21.76 191.2 21.984 192.032 22.56C192.928 23.136 193.408 24.096 193.472 25.44C192.128 26.016 190.656 26.368 189.056 26.496C187.456 26.624 184.768 26.688 180.992 26.688C180.992 32.64 181.28 42.432 181.856 56.064C181.856 57.472 181.856 58.464 181.856 59.04C181.92 59.552 181.952 59.872 181.952 60ZM238.874 106.848C233.498 106.848 228.986 105.312 225.338 102.24C221.754 99.232 219.61 94.144 218.906 86.976C218.842 85.888 219.002 85.056 219.386 84.48C219.834 83.904 220.41 83.616 221.114 83.616C221.882 83.616 222.554 83.904 223.13 84.48C223.706 85.12 223.962 85.952 223.898 86.976C223.898 91.2 225.338 94.528 228.218 96.96C231.162 99.456 234.906 100.704 239.45 100.704C242.074 100.704 244.378 99.744 246.362 97.824C248.41 95.904 249.978 93.216 251.066 89.76C252.154 86.368 252.698 82.464 252.698 78.048C252.698 70.304 252.794 62.784 252.986 55.488L253.082 50.592C250.586 53.216 248.314 55.136 246.266 56.352C244.282 57.568 241.882 58.176 239.066 58.176C234.138 58.176 230.49 56.864 228.122 54.24C225.818 51.552 224.666 47.456 224.666 41.952C224.666 38.816 225.498 35.552 227.162 32.16C228.89 28.704 231.226 25.824 234.17 23.52C237.178 21.216 240.57 20.064 244.346 20.064C245.626 20.064 246.81 20.192 247.898 20.448C251.994 21.344 254.746 25.152 256.154 31.872C257.562 38.592 258.266 47.296 258.266 57.984C258.266 60.928 258.202 64.832 258.074 69.696L257.978 78.816C257.978 82.464 257.402 86.432 256.25 90.72C255.098 95.072 253.082 98.848 250.202 102.048C247.322 105.248 243.546 106.848 238.874 106.848ZM237.626 51.84C242.362 51.84 245.946 50.72 248.378 48.48C250.81 46.176 252.026 42.816 252.026 38.4C252.026 37.824 251.962 36.832 251.834 35.424C251.514 32.48 250.746 30.176 249.53 28.512C248.378 26.784 246.554 25.92 244.058 25.92C241.434 25.92 239.034 26.848 236.858 28.704C234.682 30.56 232.986 32.864 231.77 35.616C230.554 38.304 229.946 40.832 229.946 43.2C229.946 45.568 230.65 47.616 232.058 49.344C233.466 51.008 235.322 51.84 237.626 51.84ZM290.637 60C283.981 60 278.189 58.848 273.261 56.544C268.397 54.176 265.965 50.048 265.965 44.16C265.965 42.048 266.605 40 267.885 38.016C269.165 36.032 271.053 34.432 273.549 33.216C276.045 31.936 279.085 31.296 282.669 31.296C285.421 31.296 287.757 31.424 289.677 31.68C291.597 31.936 293.805 32.64 296.301 33.792C298.797 34.944 301.389 36.768 304.077 39.264C303.053 34.848 301.517 30.976 299.469 27.648C297.421 24.32 295.117 21.76 292.557 19.968C290.061 18.112 287.597 17.184 285.165 17.184C284.013 17.184 282.925 17.408 281.901 17.856C280.941 18.24 279.757 18.816 278.349 19.584C276.749 20.608 275.565 21.12 274.797 21.12C274.477 21.12 274.189 21.024 273.933 20.832C273.741 20.576 273.645 20.288 273.645 19.968C273.645 17.408 274.765 15.424 277.005 14.016C279.309 12.608 282.093 11.968 285.357 12.096C289.837 12.352 293.933 14.272 297.645 17.856C301.357 21.376 304.269 25.76 306.381 31.008C308.557 36.256 309.645 41.408 309.645 46.464C309.645 47.296 309.581 48.48 309.453 50.016L306.381 49.824C303.949 44.896 300.813 41.408 296.973 39.36C293.197 37.248 289.389 36.192 285.549 36.192C280.621 36.192 277.101 36.928 274.989 38.4C272.877 39.872 271.821 42.016 271.821 44.832C271.821 47.776 273.293 50.144 276.237 51.936C279.181 53.728 282.957 54.624 287.565 54.624C290.125 54.624 292.173 54.496 293.709 54.24C295.245 53.92 296.845 53.504 298.509 52.992C299.853 52.544 301.037 52.224 302.061 52.032C303.085 51.84 304.397 51.744 305.997 51.744C307.789 51.744 308.909 51.872 309.357 52.128C309.869 52.384 310.125 52.96 310.125 53.856C310.125 54.496 308.813 55.296 306.189 56.256C303.565 57.216 300.621 58.08 297.357 58.848C294.093 59.616 291.853 60 290.637 60ZM380.113 60.096C379.153 60.096 378.577 59.84 378.385 59.328C378.193 58.752 378.097 57.888 378.097 56.736C378.161 56.288 378.193 55.776 378.193 55.2C378.193 54.56 378.225 54.08 378.289 53.76C378.673 50.688 378.865 47.776 378.865 45.024C378.865 38.944 377.841 34.208 375.793 30.816C373.745 27.36 370.513 25.632 366.097 25.632C363.665 25.632 361.233 26.24 358.801 27.456C356.433 28.672 354.481 30.176 352.945 31.968C351.473 33.76 350.737 35.392 350.737 36.864C351.057 38.72 351.633 40.992 352.465 43.68C352.529 44 352.785 44.992 353.233 46.656C353.745 48.32 354.001 49.824 354.001 51.168L354.097 52.992C354.097 54.016 353.585 54.528 352.561 54.528C351.281 54.528 350.225 53.696 349.393 52.032C348.625 50.368 347.761 47.776 346.801 44.256C345.841 40.8 344.913 37.952 344.017 35.712C343.121 33.472 341.905 31.552 340.369 29.952C338.833 28.352 336.881 27.552 334.513 27.552C331.249 27.552 328.689 28.672 326.833 30.912C325.041 33.152 324.145 35.904 324.145 39.168C324.145 41.344 324.337 44.224 324.721 47.808C325.041 50.496 325.201 52.8 325.201 54.72C325.201 55.872 325.073 56.736 324.817 57.312C324.561 57.888 323.953 58.176 322.993 58.176C321.713 58.176 320.817 57.76 320.305 56.928C319.793 56.032 319.537 54.688 319.537 52.896C319.537 49.376 319.345 45.12 318.961 40.128C318.897 39.488 318.769 37.856 318.577 35.232C318.385 32.544 318.353 29.856 318.481 27.168L318.577 24C318.961 23.616 319.409 23.424 319.921 23.424C320.625 23.424 321.201 23.872 321.649 24.768C322.161 25.6 322.417 26.88 322.417 28.608C323.377 26.944 324.785 25.44 326.641 24.096C328.497 22.752 330.449 22.08 332.497 22.08C336.017 22.08 338.929 22.816 341.233 24.288C343.601 25.696 345.745 28 347.665 31.2C349.457 27.936 352.145 25.152 355.729 22.848C359.377 20.544 363.121 19.392 366.961 19.392C370.929 19.392 374.225 20.896 376.849 23.904C379.537 26.912 381.489 30.528 382.705 34.752C383.985 38.976 384.625 42.88 384.625 46.464C384.625 49.664 384.337 52.736 383.761 55.68C383.249 58.624 382.033 60.096 380.113 60.096ZM414.996 60C410.9 60 407.124 59.2 403.668 57.6C400.212 56 397.46 53.728 395.412 50.784C393.364 47.84 392.34 44.448 392.34 40.608C392.34 36.32 393.14 32.32 394.74 28.608C396.34 24.832 398.676 21.824 401.748 19.584C404.884 17.28 408.532 16.128 412.692 16.128C417.044 16.128 420.34 17.536 422.58 20.352C424.82 23.104 425.876 26.592 425.748 30.816C425.748 34.592 424.244 37.472 421.236 39.456C418.292 41.44 414.516 42.432 409.908 42.432C409.204 42.432 408.148 42.368 406.74 42.24C404.436 41.984 402.804 41.632 401.844 41.184C400.884 40.736 400.404 39.84 400.404 38.496C400.404 38.048 400.532 37.728 400.788 37.536C401.044 37.28 401.556 37.152 402.324 37.152C403.156 37.152 404.628 37.344 406.74 37.728C408.788 38.112 410.612 38.304 412.212 38.304C418.1 38.304 421.044 35.744 421.044 30.624C421.044 27.552 420.468 25.12 419.316 23.328C418.228 21.536 416.276 20.64 413.46 20.64C410.388 20.64 407.636 21.472 405.204 23.136C402.772 24.736 400.884 26.848 399.54 29.472C398.26 32.096 397.62 34.88 397.62 37.824C397.62 42.88 399.028 47.04 401.844 50.304C404.66 53.504 409.012 55.104 414.9 55.104C415.604 55.104 416.788 55.04 418.452 54.912C419.156 54.848 420.02 54.656 421.044 54.336C422.068 54.016 422.804 53.792 423.252 53.664C426.004 52.704 428.02 52.224 429.3 52.224C430.26 52.224 430.996 52.48 431.508 52.992C429.908 55.424 427.508 57.216 424.308 58.368C421.172 59.456 418.068 60 414.996 60Z" fill="white"/>
<path d="M0 69.6H431.508V74.4H0V69.6Z" fill="white"/>
</svg>
