<svg width="622" height="113" viewBox="0 0 622 113" fill="none" xmlns="http://www.w3.org/2000/svg">
<path d="M532.762 52.3185L538.607 62.4423C539.077 63.2564 538.803 64.3032 537.981 64.7782L528.766 70.0982L538.576 87.0896L547.791 81.7696C548.605 81.2996 549.652 81.5728 550.127 82.3955L555.972 92.5194C558.482 96.8668 564.036 98.3479 568.375 95.8429L614.058 69.4679C618.405 66.9579 619.886 61.4032 617.381 57.0644L594.171 16.8635C591.661 12.516 586.107 11.035 581.768 13.54L536.085 39.915C531.738 42.425 530.257 47.9797 532.762 52.3185Z" fill="#CAD8EF"/>
<path d="M535.405 51.1966L558.27 90.7999C560.172 94.0954 564.386 95.2245 567.682 93.3218L612.221 67.6068C615.517 65.7042 616.646 61.4904 614.743 58.1949L591.878 18.5916C589.976 15.2962 585.762 14.1671 582.466 16.0697L537.927 41.7847C534.631 43.6873 533.502 47.9012 535.405 51.1966Z" fill="#9AAECC"/>
<path d="M600.851 38.9532L613.381 60.6556C614.2 62.0737 611.903 64.9385 608.234 67.057L565.503 91.7278C564.33 92.4048 562.155 91.9287 561.655 91.0627L547.882 67.2074C547.619 66.7526 548.363 65.8277 549.536 65.1507L595.902 38.381C599.559 36.2699 600.03 37.5302 600.851 38.9532Z" fill="#FFFF00"/>
<path d="M574.683 51.6277L578.32 57.9284C578.558 58.3401 575.788 60.386 572.119 62.5044L528.921 87.4449C527.748 88.1219 526.728 88.5673 526.651 88.4353C526.575 88.3032 525.388 80.247 526.016 78.7296L567.619 54.7101C571.276 52.599 574.444 51.2146 574.683 51.6277Z" fill="#FFFF00"/>
<path d="M417.35 38.08V49.77C417.35 50.71 416.59 51.48 415.64 51.48H405V71.1H415.64C416.58 71.1 417.35 71.86 417.35 72.81V84.5C417.35 89.52 421.42 93.58 426.43 93.58H479.18C484.2 93.58 488.26 89.51 488.26 84.5V38.08C488.26 33.06 484.19 29 479.18 29H426.43C421.41 29 417.35 33.07 417.35 38.08Z" fill="#CAD8EF"/>
<path d="M420.2 38.43V84.16C420.2 87.9653 423.285 91.05 427.09 91.05H478.52C482.325 91.05 485.41 87.9653 485.41 84.16V38.43C485.41 34.6248 482.325 31.54 478.52 31.54H427.09C423.285 31.54 420.2 34.6248 420.2 38.43Z" fill="#9AAECC"/>
<path d="M482.88 61V83.48C482.88 86.38 480.53 88.74 477.62 88.74H426C425.07 88.74 424 87.43 424 86.5V61H442.5H458H473.5C482.88 61 482.88 61 482.88 61Z" fill="#FFFF00"/>
<path d="M467 61.8623V69.1377C467 69.6131 463.578 70 459.342 70H409.461C408.107 70 407 69.8754 407 69.7229C407 69.5705 410 62 411.303 61H459.342C463.564 61 467 61.3852 467 61.8623Z" fill="#FFFF00"/>
<path d="M320.445 18.0385L314.6 28.1623C314.13 28.9764 313.087 29.2633 312.265 28.7883L303.05 23.4682L293.24 40.4597L302.455 45.7797C303.269 46.2497 303.555 47.2928 303.08 48.1156L297.235 58.2394C294.725 62.5869 296.22 68.1379 300.559 70.6429L346.242 97.0179C350.589 99.5279 356.14 98.0332 358.645 93.6944L381.855 53.4935C384.365 49.1461 382.871 43.595 378.532 41.09L332.849 14.715C328.501 12.205 322.95 13.6997 320.445 18.0385Z" fill="#CAD8EF"/>
<path d="M322.739 19.7666L299.874 59.37C297.971 62.6654 299.1 66.8793 302.396 68.7819L346.935 94.4969C350.231 96.3995 354.444 95.2704 356.347 91.975L379.212 52.3716C381.115 49.0762 379.986 44.8623 376.69 42.9597L332.151 17.2447C328.855 15.3421 324.641 16.4712 322.739 19.7666Z" fill="#9AAECC"/>
<path d="M376.685 51.6862L354.495 90.1204C353.045 92.6319 349.83 93.5007 347.31 92.0457L309.499 70.9994C308.693 70.5344 366.535 41.3054 367 40.5C366.195 40.035 367.465 39.6946 367 40.5L374.76 44.5009C377.271 45.9509 378.14 49.1661 376.685 51.6862Z" fill="#FFFF00"/>
<path d="M220.239 15.2354L210.116 21.0804C209.302 21.5504 208.255 21.2772 207.78 20.4545L202.46 11.24L185.468 21.05L190.788 30.2645C191.258 31.0786 190.985 32.1254 190.162 32.6004L180.039 38.4454C175.691 40.9554 174.21 46.5101 176.715 50.8489L203.09 96.5318C205.6 100.879 211.155 102.36 215.494 99.8553L255.694 76.6453C260.042 74.1353 261.523 68.5806 259.018 64.2418L232.643 18.5589C230.133 14.2115 224.578 12.7304 220.239 15.2354Z" fill="#CAD8EF"/>
<path d="M221.361 17.8786L181.758 40.7436C178.463 42.6462 177.333 46.8601 179.236 50.1555L204.951 94.6952C206.854 97.9906 211.068 99.1197 214.363 97.2171L253.966 74.3521C257.262 72.4495 258.391 68.2356 256.488 64.9402L230.773 20.4005C228.871 17.1051 224.657 15.976 221.361 17.8786Z" fill="#9AAECC"/>
<path d="M252.121 72.496L213.687 94.686C211.175 96.136 207.957 95.2809 206.502 92.7608L189.372 63.0907C188.907 62.2853 189.185 61.2471 189.99 60.7821L189.165 62C189.97 61.535 245.035 50.1946 245.5 51L254.046 65.3108C255.496 67.8222 254.641 71.041 252.121 72.496Z" fill="#FFFF00"/>
<path d="M138.5 31.35H126.81C125.87 31.35 125.1 30.59 125.1 29.64V19H105.48V29.64C105.48 30.58 104.72 31.35 103.77 31.35H92.08C87.06 31.35 83 35.42 83 40.43V93.18C83 98.2 87.07 102.26 92.08 102.26H138.5C143.52 102.26 147.58 98.19 147.58 93.18V40.43C147.58 35.41 143.51 31.35 138.5 31.35Z" fill="#CAD8EF"/>
<path d="M138.15 34.2H92.42C88.6148 34.2 85.53 37.2848 85.53 41.09V92.52C85.53 96.3253 88.6148 99.41 92.42 99.41H138.15C141.955 99.41 145.04 96.3253 145.04 92.52V41.09C145.04 37.2848 141.955 34.2 138.15 34.2Z" fill="#9AAECC"/>
<path d="M137.48 96.88H93.1C90.2 96.88 87.84 94.53 87.84 91.62V57.36C87.84 56.43 88.6 55.67 89.53 55.67H141.05C141.98 55.67 142.74 56.43 142.74 57.36V91.62C142.74 94.52 140.39 96.88 137.48 96.88Z" fill="#FFFF00"/>
<path d="M40.74 12.92C38.27 20.89 31.47 25.95 25.16 24.76L25.91 29.96H38.39L40.99 12.05C40.91 12.34 40.83 12.63 40.74 12.92Z" fill="#995939"/>
<path d="M40.74 12.92C40.83 12.63 40.91 12.34 40.99 12.05L41.52 8.41997C41.6 7.82997 41.15 7.30997 40.56 7.30997H23.75C23.16 7.30997 22.7 7.83997 22.79 8.41997L25.16 24.77C31.47 25.96 38.27 20.9 40.74 12.93V12.92Z" fill="#C47E57"/>
<path d="M32.15 11.28C37.3967 11.28 41.65 9.65029 41.65 7.63997C41.65 5.62965 37.3967 3.99997 32.15 3.99997C26.9033 3.99997 22.65 5.62965 22.65 7.63997C22.65 9.65029 26.9033 11.28 32.15 11.28Z" fill="#DDA058"/>
<path d="M55.5 30.91H43.81C42.87 30.91 42.1 30.15 42.1 29.2V18.56H22.48V29.2C22.48 30.14 21.72 30.91 20.77 30.91H9.08C4.06 30.91 0 34.98 0 39.99V92.74C0 97.76 4.07 101.82 9.08 101.82H55.5C60.52 101.82 64.58 97.75 64.58 92.74V39.99C64.58 34.97 60.51 30.91 55.5 30.91Z" fill="#CAD8EF"/>
<path d="M55.15 33.76H9.42C5.61476 33.76 2.53 36.8447 2.53 40.65V92.08C2.53 95.8852 5.61476 98.97 9.42 98.97H55.15C58.9552 98.97 62.04 95.8852 62.04 92.08V40.65C62.04 36.8447 58.9552 33.76 55.15 33.76Z" fill="#9AAECC"/>
<path d="M54.48 96.44H10.1C7.2 96.44 4.84 94.09 4.84 91.18V56.9199C4.84 55.9899 5.6 55.2299 6.53 55.2299H58.05C58.98 55.2299 59.74 55.9899 59.74 56.9199V91.18C59.74 94.08 57.39 96.44 54.48 96.44Z" fill="#FFFF00"/>
</svg>
