<svg xmlns="http://www.w3.org/2000/svg" viewBox="0 0 314.41 351.78">
    <defs>
        <style>
            .cls-1{
                isolation:isolate;
            }
            .cls-2{
                fill:#1d2a3a;
            }
            .cls-3{
                fill:#1a2635;
            }
            .cls-4,
            .cls-5{
                fill:none;
                stroke:#f7f1e4;
                stroke-miterlimit:10;
            }
            .cls-4{
                stroke-width:1.12px;
            }
            .cls-5{
                stroke-width:3.36px;
            }
            .cls-5,
            .cls-8{
                mix-blend-mode:soft-light;
                opacity:0.8;
            }.cls-6{
                fill:#283a51;
            }
            .cls-7{
                fill:#fff;
            }
            .cls-8,
            .cls-9{
                fill:#f7f1e4;
            }
            .cls-9{
                opacity:0.5;
            }
            .cls-10{
                opacity:0.2;
            }
        </style>
    </defs>
    <g class="cls-1">
        <g id="Layer_2" data-name="Layer 2">
            <g id="Layer_1-2" data-name="Layer 1">
                <path class="cls-2" d="M314.41,206.88c0,80.26-84,128.79-160,128.79S0,287.14,0,206.88,78.68,61.54,154.69,61.54,314.41,126.61,314.41,206.88Z"/>
                <path class="cls-3" d="M87.78,77.76l-1.07.83c-3.22,5-53.59,86.7-12.86,170.93,28.49,58.92,83,80.72,96,85.49-5.15.43-10.29.66-15.39.66C78.4,335.67,0,287.14,0,206.88,0,150.68,38.57,101.94,87.78,77.76Z"/>
                <path class="cls-2" d="M289.52,67.13V96.57a13.39,13.39,0,0,1-4.12,9.68c-15.73,15.09-66.85,58-141.34,53.75-63.4-3.6-105.21-39.14-120.17-53.77a13.44,13.44,0,0,1-4-9.6V67.13Z"/>
                <path class="cls-4" d="M25.77,67.13H284.32"/>
                <path class="cls-5" d="M275.63,115.27c-35.07,30.19-80.94,48.09-127.94,45.85C106.3,157.77,66,144.34,34.94,117.56"/>
                <path class="cls-6" d="M19.86,67.13c-.48,35.06,72.11,70.68,135.39,70.5,62.53-.18,134.76-35.37,134.27-70.5S215.71-.17,154.13,0C93,.17,20.34,32.3,19.86,67.13Z"/>
                <path class="cls-7" d="M154.69,21.53c29.47,0,57.16,4.85,78,13.66,20.42,8.64,31.67,20,31.67,31.94s-11.25,23.31-31.67,32c-20.81,8.81-48.5,13.66-78,13.66s-57.17-4.85-78-13.66C56.29,90.44,45,79.09,45,67.13s11.25-23.3,31.68-31.94c20.8-8.81,48.49-13.66,78-13.66m0-1.39c-61.32,0-111,21-111,47s49.72,47,111,47,111-21,111-47-49.71-47-111-47Z"/>
                <path class="cls-2" d="M239.44,316.65c5.07,3.84,9.37,1,13.43,4.47,8.79,7.45-1.05,29.39,1.12,30.22,2.69,1,27.79-29,15.66-48.12C262,291.1,241.25,286.34,235,293.15,230.21,298.31,232.52,311.4,239.44,316.65Z"/>
                <path class="cls-3" d="M77.09,317.07c-5.06,3.84-9.37,1-13.42,4.47-8.79,7.45,1,29.39-1.12,30.21-2.7,1-27.79-29-15.67-48.11,7.68-12.12,28.4-16.89,34.69-10.07C86.32,298.73,84,311.81,77.09,317.07Z"/>
                <path class="cls-8" d="M274.13,212.59c-7.17,49.12-27.68,74.86-22.38,78.32,6.19,4,43.9-24.47,52.59-66,10.14-48.46-23.11-96-30.21-94C268.65,132.49,281.4,162.85,274.13,212.59Z"/>
                <path class="cls-8" d="M239.44,312.17c0,1.29,3.35,2.31,6.72,3.36,4.45,1.38,5.77.93,7.83,2.24,2.8,1.77,3.85,4.8,4.48,6.71,3.37,10.23-2.22,19.63-1.12,20.14,1.52.71,15.5-15.82,12.3-32.45a23.38,23.38,0,0,0-4.47-10.07c-3.35-4.28-9-8.17-11.19-6.71-1.74,1.16.86,5-1.12,8.95C249.83,310.39,239.42,309.8,239.44,312.17Z"/>
                <path class="cls-9" d="M260.7,69.37C259.49,91,222.29,99.74,221.54,98.46s31-13.06,31.33-31.33c.3-17.82-29.5-30.73-29.09-31.32S261.94,47.23,260.7,69.37Z"/>
                <g class="cls-10">
                    <path class="cls-3" d="M50.19,69.46C51.4,91.12,88.6,99.83,89.35,98.56S58.33,85.49,58,67.23C57.72,49.4,87.52,36.5,87.11,35.9S49,47.32,50.19,69.46Z"/>
                </g>
            </g>
        </g>
    </g>
</svg>