<?xml version="1.0" encoding="UTF-8"?>
<svg xmlns="http://www.w3.org/2000/svg" viewBox="0 0 241.83 270.57">
  <defs>
    <style>
      .cls-1 {
        stroke-width: 2.58px;
      }

      .cls-1, .cls-2 {
        fill: none;
        stroke: #f7f1e4;
        stroke-miterlimit: 10;
      }

      .cls-1, .cls-3 {
        mix-blend-mode: soft-light;
        opacity: .8;
      }

      .cls-4 {
        fill: #fff;
      }

      .cls-5 {
        fill: #1d2a3a;
      }

      .cls-6 {
        fill: #1a2635;
      }

      .cls-7 {
        fill: #283a51;
      }

      .cls-2 {
        stroke-width: .86px;
      }

      .cls-3, .cls-8 {
        fill: #f7f1e4;
      }

      .cls-9 {
        opacity: .2;
      }

      .cls-10 {
        isolation: isolate;
      }

      .cls-8 {
        opacity: .5;
      }
    </style>
  </defs>
  <g class="cls-10">
    <g id="Layer_2" data-name="Layer 2">
      <g id="Layer_1-2" data-name="Layer 1">
        <g>
          <path class="cls-5" d="M0,159.12c0,61.74,64.6,99.06,123.06,99.06s118.76-37.32,118.76-99.06S181.31,47.33,122.85,47.33,0,97.38,0,159.12Z"/>
          <path class="cls-6" d="M174.31,59.81l.83,.64c2.47,3.86,41.22,66.69,9.89,131.47-21.92,45.32-63.86,62.09-73.8,65.76,3.96,.33,7.91,.51,11.83,.51,58.46,0,118.76-37.32,118.76-99.06,0-43.22-29.66-80.71-67.52-99.31Z"/>
          <path class="cls-5" d="M19.15,51.64v22.64c0,2.81,1.14,5.5,3.16,7.44,12.1,11.61,51.42,44.6,108.71,41.34,48.76-2.77,80.92-30.11,92.42-41.36,1.99-1.94,3.1-4.6,3.1-7.38,0-7.56,0-15.12,0-22.68H19.15Z"/>
          <path class="cls-2" d="M222.01,51.64H23.14"/>
          <path class="cls-1" d="M29.83,88.66c26.97,23.22,62.26,36.99,98.4,35.27,31.84-2.58,62.82-12.91,86.72-33.51"/>
          <path class="cls-7" d="M226.55,51.64c.37,26.96-55.46,54.36-104.13,54.22-48.1-.14-103.65-27.2-103.27-54.22C19.53,24.6,75.91-.13,123.28,0c47.05,.13,102.9,24.84,103.27,51.64Z"/>
          <path class="cls-4" d="M122.85,16.56c22.67,0,43.97,3.73,59.97,10.5,15.71,6.65,24.36,15.38,24.36,24.57s-8.65,17.92-24.36,24.57c-16,6.77-37.3,10.5-59.97,10.5s-43.97-3.73-59.97-10.5c-15.71-6.65-24.36-15.38-24.36-24.57s8.65-17.92,24.36-24.57c16-6.77,37.3-10.5,59.97-10.5m0-1.07c-47.17,0-85.4,16.18-85.4,36.14s38.24,36.14,85.4,36.14,85.4-16.18,85.4-36.14S170.02,15.49,122.85,15.49h0Z"/>
          <path class="cls-5" d="M57.66,243.55c-3.9,2.96-7.21,.8-10.33,3.44-6.76,5.73,.81,22.6-.86,23.24-2.07,.78-21.37-22.29-12.05-37.01,5.91-9.32,21.84-12.99,26.68-7.75,3.66,3.97,1.88,14.03-3.44,18.07Z"/>
          <path class="cls-6" d="M182.53,243.87c3.9,2.96,7.21,.8,10.33,3.44,6.76,5.73-.81,22.6,.86,23.24,2.07,.78,21.37-22.29,12.05-37.01-5.91-9.32-21.84-12.99-26.68-7.75-3.66,3.97-1.88,14.03,3.44,18.07Z"/>
          <path class="cls-3" d="M30.98,163.51c5.52,37.78,21.29,57.57,17.21,60.24-4.76,3.11-33.76-18.82-40.45-50.77C-.05,135.7,25.52,99.12,30.98,100.69c4.22,1.21-5.59,24.56,0,62.82Z"/>
          <path class="cls-3" d="M57.66,240.11c0,.99-2.57,1.78-5.16,2.58-3.42,1.06-4.44,.72-6.02,1.72-2.15,1.36-2.96,3.7-3.44,5.16-2.59,7.87,1.7,15.1,.86,15.49-1.17,.54-11.92-12.17-9.47-24.96,.8-4.16,2.71-6.81,3.44-7.75,2.58-3.29,6.93-6.28,8.61-5.16,1.34,.9-.66,3.86,.86,6.88,2.34,4.65,10.35,4.2,10.33,6.02Z"/>
          <path class="cls-8" d="M41.31,53.36c.93,16.66,29.54,23.35,30.12,22.38,.55-.94-23.86-10.05-24.1-24.1-.23-13.71,22.69-23.64,22.38-24.1-.35-.5-29.35,8.79-28.4,25.82Z"/>
          <g class="cls-9">
            <path class="cls-6" d="M203.22,53.43c-.93,16.66-29.54,23.35-30.12,22.38-.55-.94,23.86-10.05,24.1-24.1,.23-13.71-22.69-23.64-22.38-24.1,.35-.5,29.35,8.79,28.4,25.82Z"/>
          </g>
        </g>
      </g>
    </g>
  </g>
</svg>