<svg width="558" height="98" viewBox="0 0 558 98" fill="none" xmlns="http://www.w3.org/2000/svg">
<mask id="mask0_4_2" style="mask-type:luminance" maskUnits="userSpaceOnUse" x="0" y="0" width="558" height="98">
<path d="M557.014 0H0V97.82H557.014V0Z" fill="white"/>
</mask>
<g mask="url(#mask0_4_2)">
<path d="M471.096 46.5095L476.897 56.6116C477.398 57.4117 477.098 58.512 476.297 58.912L467.095 64.2131L476.897 81.2166L486.099 75.9155C486.9 75.4154 488 75.7155 488.4 76.5156L494.201 86.6177C496.702 90.9186 502.303 92.4189 506.604 89.9184L552.313 63.513C556.614 61.0125 558.114 55.4113 555.614 51.1104L532.409 10.9022C529.908 6.60134 524.307 5.10103 520.006 7.60154L474.297 34.0069C470.096 36.6075 468.596 42.2086 471.096 46.5095Z" fill="#CAD8EF"/>
<path d="M473.797 45.4093L496.602 85.0174C498.502 88.3181 502.703 89.4183 506.003 87.5179L550.513 61.8126C553.813 59.9122 554.913 55.7114 553.013 52.4107L530.108 12.8026C528.208 9.50194 524.007 8.40172 520.706 10.3021L476.297 36.0074C472.997 37.9077 471.896 42.1086 473.797 45.4093Z" fill="#9AAECC"/>
<path d="M539.21 33.2068L551.713 54.9112C552.513 56.3115 550.212 59.2121 546.612 61.3125L503.903 86.0176C502.703 86.7177 500.602 86.2176 500.102 85.3174L486.299 61.4125C485.999 60.9124 486.799 60.0123 488 59.3121L534.409 32.5066C537.91 30.5062 538.41 31.8065 539.21 33.2068Z" fill="#FFAA00"/>
<path d="M513.105 45.8094L516.706 52.1106C516.906 52.5107 514.205 54.6112 510.504 56.7116L467.296 81.6167C466.095 82.3168 465.095 82.7169 464.995 82.6169C464.895 82.5169 463.695 74.4152 464.395 72.9149L506.003 48.91C509.704 46.8096 512.805 45.4093 513.105 45.8094Z" fill="#FFAA00"/>
<path d="M388.479 29.7061V41.4085C388.479 42.3087 387.679 43.1088 386.779 43.1088H376.177V62.7128H386.779C387.679 62.7128 388.479 63.513 388.479 64.4132V76.1156C388.479 81.1166 392.58 85.2174 397.581 85.2174H450.392C455.393 85.2174 459.494 81.1166 459.494 76.1156V29.7061C459.494 24.7051 455.393 20.6042 450.392 20.6042H397.581C392.58 20.6042 388.479 24.7051 388.479 29.7061Z" fill="#CAD8EF"/>
<path d="M391.38 30.0061V75.7155C391.38 79.5163 394.481 82.6169 398.281 82.6169H449.692C453.493 82.6169 456.593 79.5163 456.593 75.7155V30.0061C456.593 26.2054 453.493 23.1047 449.692 23.1047H398.281C394.481 23.2047 391.38 26.2054 391.38 30.0061Z" fill="#9AAECC"/>
<path d="M454.093 52.6108V75.1154C454.093 78.016 451.692 80.4165 448.792 80.4165H397.181C396.281 80.4165 395.181 79.1162 395.181 78.216V52.6108H413.685H429.188H444.691C454.093 52.6108 454.093 52.6108 454.093 52.6108Z" fill="#FFAA00"/>
<path d="M438.19 53.5109V60.8124C438.19 61.3125 434.789 61.7126 430.488 61.7126H380.578C379.177 61.7126 378.077 61.6126 378.077 61.4126C378.077 61.2125 381.078 53.711 382.378 52.7108H430.388C434.789 52.6108 438.19 53.0108 438.19 53.5109Z" fill="#FFAA00"/>
<path d="M307.263 17.6036L301.462 27.7057C300.961 28.5058 299.961 28.8059 299.161 28.3058L289.959 23.0047L280.157 40.0082L289.359 45.3093C290.159 45.8094 290.459 46.8096 289.959 47.6097L284.058 57.8118C281.558 62.1127 283.058 67.7138 287.359 70.2143L333.068 96.6197C337.369 99.1203 342.97 97.62 345.471 93.3191L368.675 53.1109C371.176 48.81 369.676 43.2088 365.375 40.7083L319.665 14.3029C315.264 11.8024 309.763 13.3027 307.263 17.6036Z" fill="#CAD8EF"/>
<path d="M309.563 19.404L286.659 59.0121C284.758 62.3127 285.858 66.5136 289.159 68.414L333.668 94.1192C336.969 96.0196 341.17 94.9194 343.07 91.6187L366.075 52.0106C367.975 48.71 366.875 44.5091 363.574 42.6087L319.065 16.9035C315.665 14.903 311.464 16.1033 309.563 19.404Z" fill="#9AAECC"/>
<path d="M363.474 51.3105L341.27 89.7183C339.869 92.2188 336.569 93.119 334.068 91.6187L296.261 70.6144C295.46 70.1143 353.272 40.9084 353.772 40.1082C354.272 39.308 352.972 39.6081 353.772 40.1082L361.574 44.109C364.074 45.5093 364.975 48.81 363.474 51.3105Z" fill="#FFAA00"/>
<path d="M234.348 12.0025L224.246 17.8036C223.446 18.3037 222.345 18.0037 221.945 17.2035L216.644 8.00163L199.641 17.8036L204.942 27.0055C205.442 27.8057 205.142 28.9059 204.342 29.306L194.24 35.1072C189.939 37.6077 188.438 43.2088 190.939 47.5097L217.344 93.2191C219.845 97.5199 225.446 99.0202 229.747 96.5197L269.955 73.315C274.256 70.8145 275.756 65.2133 273.256 60.9125L246.85 15.2031C244.25 11.0022 238.749 9.50194 234.348 12.0025Z" fill="#CAD8EF"/>
<path d="M235.548 14.603L195.94 37.5077C192.639 39.4081 191.539 43.6089 193.439 46.9096L219.145 91.4187C221.045 94.7194 225.246 95.8196 228.547 93.9192L268.155 71.0145C271.455 69.1141 272.556 64.9133 270.655 61.6126L244.95 17.1035C243.05 13.9028 238.849 12.7026 235.548 14.603Z" fill="#9AAECC"/>
<path d="M266.254 69.2141L227.847 91.4187C225.346 92.919 222.145 92.0188 220.645 89.5183L203.542 59.8122C203.041 59.0121 203.342 58.0119 204.142 57.5118L203.342 58.712C204.142 58.2119 259.253 46.9096 259.653 47.7098L268.155 62.0127C269.655 64.6132 268.755 67.8139 266.254 69.2141Z" fill="#FFAA00"/>
<path d="M162.433 26.9055H150.731C149.831 26.9055 149.03 26.1053 149.03 25.2051V14.603H129.426V25.2051C129.426 26.1053 128.626 26.9055 127.726 26.9055H116.024C111.023 26.9055 106.922 31.0063 106.922 36.0074V88.8182C106.922 93.8192 111.023 97.92 116.024 97.92H162.433C167.434 97.92 171.535 93.8192 171.535 88.8182V36.0074C171.535 31.0063 167.434 26.9055 162.433 26.9055Z" fill="#CAD8EF"/>
<path d="M162.133 29.8061H116.424C112.623 29.8061 109.522 32.9067 109.522 36.7075V88.118C109.522 91.9188 112.623 95.0194 116.424 95.0194H162.133C165.934 95.0194 169.035 91.9188 169.035 88.118V36.7075C169.035 32.8067 165.934 29.8061 162.133 29.8061Z" fill="#9AAECC"/>
<path d="M161.433 92.4189H117.024C114.123 92.4189 111.723 90.1184 111.723 87.1178V52.9108C111.723 52.0106 112.523 51.2105 113.423 51.2105H165.034C165.934 51.2105 166.734 52.0106 166.734 52.9108V87.2178C166.734 90.1184 164.334 92.4189 161.433 92.4189Z" fill="#FFAA00"/>
<path d="M54.9112 8.90182C52.4107 16.9035 45.6093 21.9045 39.308 20.7042L40.1082 25.9053H52.6108L55.2113 8.00163C55.1113 8.30169 55.0113 8.60175 54.9112 8.90182Z" fill="#995939"/>
<path d="M54.9113 8.90182C55.0113 8.60176 55.1113 8.30171 55.1113 8.00165L55.6114 4.4009C55.7114 3.80078 55.2113 3.30067 54.6112 3.30067H37.9078C37.3077 3.30067 36.9076 3.80078 36.9076 4.4009L39.3081 20.8043C45.6094 22.0045 52.4108 16.9035 54.9113 8.90182Z" fill="#C47E57"/>
<path d="M46.3095 7.30149C51.5106 7.30149 55.8114 5.70117 55.8114 3.70076C55.8114 1.70035 51.5106 0 46.3095 0C41.1084 0 36.8076 1.60033 36.8076 3.60074C36.8076 5.60114 41.0084 7.30149 46.3095 7.30149Z" fill="#DDA058"/>
<path d="M69.6143 26.9055H58.0119C57.1117 26.9055 56.3115 26.1053 56.3115 25.2051V14.603H36.6075V25.2051C36.6075 26.1053 35.8073 26.9055 34.9072 26.9055H23.2048C18.2037 26.9055 14.1029 31.0063 14.1029 36.0074V88.7181C14.1029 93.7192 18.2037 97.82 23.2048 97.82H69.6143C74.6153 97.82 78.7161 93.7192 78.7161 88.7181V36.0074C78.7161 31.0063 74.7153 26.9055 69.6143 26.9055Z" fill="#CAD8EF"/>
<path d="M69.3142 29.8061H23.6048C19.8041 29.8061 16.7034 32.9067 16.7034 36.7075V88.118C16.7034 91.9188 19.8041 95.0194 23.6048 95.0194H69.3142C73.115 95.0194 76.2156 91.9188 76.2156 88.118V36.7075C76.2156 32.8067 73.115 29.8061 69.3142 29.8061Z" fill="#9AAECC"/>
<path d="M68.614 92.4189H24.205C21.3044 92.4189 18.9039 90.0184 18.9039 87.1178V52.9108C18.9039 52.0106 19.704 51.2105 20.6042 51.2105H72.1147C73.0149 51.2105 73.8151 52.0106 73.8151 52.9108V87.2178C73.9151 90.1184 71.5146 92.4189 68.614 92.4189Z" fill="#FFAA00"/>
</g>
</svg>
