<svg width="65" height="84" viewBox="0 0 65 84" fill="none" xmlns="http://www.w3.org/2000/svg">
<path d="M55.5 12.35H43.81C42.87 12.35 42.1 11.59 42.1 10.64V3.05176e-05H22.48V10.64C22.48 11.58 21.72 12.35 20.77 12.35H9.08C4.06 12.35 0 16.42 0 21.43V74.18C0 79.2 4.07 83.26 9.08 83.26H55.5C60.52 83.26 64.58 79.19 64.58 74.18V21.43C64.58 16.41 60.51 12.35 55.5 12.35Z" fill="#CAD8EF"/>
<path d="M55.15 15.2H9.42C5.61476 15.2 2.53 18.2848 2.53 22.09V73.52C2.53 77.3253 5.61476 80.41 9.42 80.41H55.15C58.9552 80.41 62.04 77.3253 62.04 73.52V22.09C62.04 18.2848 58.9552 15.2 55.15 15.2Z" fill="#9AAECC"/>
</svg>
