<svg width="114" height="104" viewBox="0 0 114 104" fill="none" xmlns="http://www.w3.org/2000/svg">
<path d="M24.7617 43.3185L30.6067 53.4423C31.0767 54.2564 30.8035 55.3033 29.9808 55.7783L20.7663 61.0983L30.5763 78.0897L39.7908 72.7697C40.6049 72.2997 41.6517 72.5729 42.1267 73.3956L47.9717 83.5194C50.4817 87.8669 56.0364 89.3479 60.3752 86.8429L106.058 60.4679C110.405 57.9579 111.887 52.4032 109.382 48.0644L86.1716 7.86351C83.6616 3.51606 78.1068 2.035 73.768 4.54L28.0852 30.915C23.7378 33.425 22.2567 38.9797 24.7617 43.3185Z" fill="#CAD8EF"/>
<path d="M27.4049 42.1966L50.2699 81.8C52.1725 85.0954 56.3864 86.2245 59.6818 84.3219L104.221 58.6069C107.517 56.7043 108.646 52.4904 106.743 49.195L83.8784 9.59162C81.9758 6.29618 77.7619 5.16708 74.4665 7.0697L29.9268 32.7847C26.6314 34.6873 25.5023 38.9012 27.4049 42.1966Z" fill="#9AAECC"/>
</svg>
