<svg width="65" height="98" viewBox="0 0 65 98" fill="none" xmlns="http://www.w3.org/2000/svg">
<path d="M40.74 8.92002C38.27 16.89 31.47 21.95 25.16 20.76L25.91 25.96H38.39L40.99 8.05002C40.91 8.34002 40.83 8.63002 40.74 8.92002Z" fill="#995939"/>
<path d="M40.74 8.92003C40.83 8.63003 40.91 8.34003 40.99 8.05003L41.52 4.42003C41.6 3.83003 41.15 3.31003 40.56 3.31003H23.75C23.16 3.31003 22.7 3.84003 22.79 4.42003L25.16 20.77C31.47 21.96 38.27 16.9 40.74 8.93003V8.92003Z" fill="#C47E57"/>
<path d="M32.15 7.28003C37.3967 7.28003 41.65 5.65035 41.65 3.64003C41.65 1.62971 37.3967 3.05176e-05 32.15 3.05176e-05C26.9033 3.05176e-05 22.65 1.62971 22.65 3.64003C22.65 5.65035 26.9033 7.28003 32.15 7.28003Z" fill="#DDA058"/>
<path d="M55.5 26.91H43.81C42.87 26.91 42.1 26.15 42.1 25.2V14.56H22.48V25.2C22.48 26.14 21.72 26.91 20.77 26.91H9.08C4.06 26.91 0 30.98 0 35.99V88.74C0 93.76 4.07 97.82 9.08 97.82H55.5C60.52 97.82 64.58 93.75 64.58 88.74V35.99C64.58 30.97 60.51 26.91 55.5 26.91Z" fill="#CAD8EF"/>
<path d="M55.15 29.76H9.42C5.61476 29.76 2.53 32.8448 2.53 36.65V88.08C2.53 91.8853 5.61476 94.97 9.42 94.97H55.15C58.9552 94.97 62.04 91.8853 62.04 88.08V36.65C62.04 32.8448 58.9552 29.76 55.15 29.76Z" fill="#9AAECC"/>
<path d="M54.48 92.44H10.1C7.2 92.44 4.84 90.09 4.84 87.18V52.92C4.84 51.99 5.6 51.23 6.53 51.23H58.05C58.98 51.23 59.74 51.99 59.74 52.92V87.18C59.74 90.08 57.39 92.44 54.48 92.44Z" fill="#FFFF00"/>
</svg>
