<?xml version="1.0" encoding="UTF-8"?>
<svg id="Layer_2" data-name="Layer 2" xmlns="http://www.w3.org/2000/svg" viewBox="0 0 127.28 120.06">
  <defs>
    <style>
      .cls-1 {
        fill: red;
      }

      .cls-2 {
        fill: #cad8ef;
      }

      .cls-3 {
        fill: #9aaecc;
      }
    </style>
  </defs>
  <g id="Layer_1-2" data-name="Layer 1">
    <g>
      <path class="cls-2" d="M5.66,56.67l8.28,14.34c.67,1.16,.27,2.64-.89,3.31L0,81.85l13.9,24.08,13.05-7.54c1.16-.67,2.64-.27,3.31,.89l8.28,14.34c3.55,6.15,11.42,8.26,17.58,4.71l64.72-37.37c6.15-3.55,8.26-11.42,4.71-17.58L92.67,6.44c-3.55-6.15-11.42-8.26-17.58-4.71L10.37,39.09c-6.15,3.55-8.26,11.42-4.71,17.58Z"/>
      <rect class="cls-3" x="19.41" y="17.87" width="92.4" height="84.32" rx="9.76" ry="9.76" transform="translate(-21.23 40.85) rotate(-30)"/>
      <path class="cls-1" d="M103.89,41.12l14.41,24.96c2.02,3.49,.82,7.96-2.67,9.97L50.69,113.55c-1.12,.65-2.55,.26-3.2-.86l-19.37-33.55c-.65-1.12-.26-2.55,.86-3.2L93.92,38.45c3.49-2.02,7.96-.82,9.97,2.67Z"/>
      <path class="cls-1" d="M70.8,57.82l1.59,2.76c1.42,2.45,.58,5.59-1.88,7.01L3.1,106.51c-.79,.45-1.79,.18-2.25-.6l-.41-12.13c-.03-.79,.39-1.54,1.07-1.93L63.79,55.94c2.45-1.42,5.59-.58,7.01,1.88Z"/>
    </g>
  </g>
</svg>