<?xml version="1.0" encoding="UTF-8"?>
<svg id="Layer_2" data-name="Layer 2" xmlns="http://www.w3.org/2000/svg" viewBox="0 0 91.5 129.26">
  <defs>
    <style>
      .cls-1 {
        fill: red;
      }

      .cls-2 {
        fill: #cad8ef;
      }

      .cls-3 {
        fill: #9aaecc;
      }
    </style>
  </defs>
  <g id="Layer_1-2" data-name="Layer 1">
    <g>
      <path class="cls-2" d="M78.63,28.79h-16.56c-1.34,0-2.42-1.08-2.42-2.42V11.29s-27.81,0-27.81,0v15.07c0,1.34-1.08,2.42-2.42,2.42H12.87C5.76,28.79,0,34.55,0,41.66V116.39c0,7.11,5.76,12.87,12.87,12.87H78.63c7.11,0,12.87-5.76,12.87-12.87V41.66c0-7.11-5.76-12.87-12.87-12.87Z"/>
      <rect class="cls-3" x="3.59" y="32.82" width="84.32" height="92.4" rx="9.76" ry="9.76"/>
      <path class="cls-1" d="M42.98,121.63H14.17c-4.03,0-7.3-3.27-7.3-7.3V39.35c0-1.29,1.05-2.34,2.34-2.34H47.94c1.29,0,2.34,1.05,2.34,2.34V114.33c0,4.03-3.27,7.3-7.3,7.3Z"/>
      <path class="cls-1" d="M45.07,84.63h-3.19c-2.83,0-5.13-2.3-5.13-5.13V1.65c0-.91,.74-1.65,1.65-1.65l10.71,5.71c.7,.37,1.14,1.1,1.14,1.9l-.04,71.89c0,2.83-2.3,5.13-5.13,5.13Z"/>
    </g>
  </g>
</svg>