<?xml version="1.0" encoding="utf-8"?>
<!-- Generator: Adobe Illustrator 26.0.0, SVG Export Plug-In . SVG Version: 6.00 Build 0)  -->
<svg version="1.1" id="Layer_2_00000057108700822018874200000016591534994223042488_"
	 xmlns="http://www.w3.org/2000/svg" xmlns:xlink="http://www.w3.org/1999/xlink" x="0px" y="0px" viewBox="0 0 1000.5 700.5"
	 style="enable-background:new 0 0 1000.5 700.5;" xml:space="preserve">
<style type="text/css">
	.st0{fill:url(#SVGID_1_);}
	
		.st1{fill:url(#SVGID_00000054966063012565780520000002568602299930880128_);stroke:#42210B;stroke-width:1.1389;stroke-miterlimit:10;}
	
		.st2{fill:url(#SVGID_00000085240048728248952120000004692637992677946008_);stroke:#42210B;stroke-width:1.1389;stroke-miterlimit:10;}
	
		.st3{fill:url(#SVGID_00000055672822045408576250000003385592549175753109_);stroke:#42210B;stroke-width:1.1389;stroke-miterlimit:10;}
	
		.st4{fill:url(#SVGID_00000088095434463997881760000013508978713228455326_);stroke:#42210B;stroke-width:1.1389;stroke-miterlimit:10;}
	
		.st5{fill:url(#SVGID_00000158018630368644650220000000791811544057913483_);stroke:#42210B;stroke-width:1.1389;stroke-miterlimit:10;}
	.st6{fill:#754C24;}
	.st7{fill:#966E44;}
	.st8{fill:#D7B275;}
	.st9{fill:none;stroke:#AD8653;stroke-width:0.5622;stroke-miterlimit:10;}
	.st10{fill:#283A51;}
	.st11{fill:#C1272D;}
	.st12{fill:#FFF9B4;}
	.st13{fill:#FFE89F;}
	.st14{fill:none;stroke:#262626;stroke-width:0.7263;stroke-miterlimit:10;}
	.st15{fill:#F7931E;}
	.st16{fill:#FBB03B;}
	.st17{fill:#FCD621;}
</style>
<radialGradient id="SVGID_1_" cx="415.792" cy="1859.9907" r="448.3562" gradientTransform="matrix(1.1116 0 0 1.1667 38.0556 -1820.0511)" gradientUnits="userSpaceOnUse">
	<stop  offset="0" style="stop-color:#93278F"/>
	<stop  offset="0.39" style="stop-color:#7D1E8B"/>
	<stop  offset="1" style="stop-color:#520D83"/>
</radialGradient>
<polygon class="st0" points="0,0 0,485.1 0,700 1000.5,700 1000.5,0 "/>
<g>
	
		<radialGradient id="SVGID_00000107572495785370450380000001842832252819079821_" cx="415.7032" cy="2225.9946" r="317.9745" gradientTransform="matrix(1.1118 0 0 1.1667 38.0712 -1912.218)" gradientUnits="userSpaceOnUse">
		<stop  offset="0" style="stop-color:#B06239"/>
		<stop  offset="0.17" style="stop-color:#A55B34"/>
		<stop  offset="0.47" style="stop-color:#864927"/>
		<stop  offset="0.86" style="stop-color:#552C13"/>
		<stop  offset="1" style="stop-color:#42210B"/>
	</radialGradient>
	
		<rect x="0.5" y="669.7" style="fill:url(#SVGID_00000107572495785370450380000001842832252819079821_);stroke:#42210B;stroke-width:1.1389;stroke-miterlimit:10;" width="999.5" height="30.3"/>
	
		<radialGradient id="SVGID_00000018923839290767815600000007720330909028628143_" cx="415.7032" cy="2200.9668" r="317.9745" gradientTransform="matrix(1.1118 0 0 1.1667 38.0712 -1912.218)" gradientUnits="userSpaceOnUse">
		<stop  offset="0" style="stop-color:#B06239"/>
		<stop  offset="0.17" style="stop-color:#A55B34"/>
		<stop  offset="0.47" style="stop-color:#864927"/>
		<stop  offset="0.86" style="stop-color:#552C13"/>
		<stop  offset="1" style="stop-color:#42210B"/>
	</radialGradient>
	
		<rect x="0.5" y="640.5" style="fill:url(#SVGID_00000018923839290767815600000007720330909028628143_);stroke:#42210B;stroke-width:1.1389;stroke-miterlimit:10;" width="999.5" height="30.3"/>
	
		<radialGradient id="SVGID_00000134935845947835711810000015893491272313157038_" cx="415.7032" cy="2175.9795" r="317.9737" gradientTransform="matrix(1.1118 0 0 1.1667 38.0712 -1912.218)" gradientUnits="userSpaceOnUse">
		<stop  offset="0" style="stop-color:#B06239"/>
		<stop  offset="0.17" style="stop-color:#A55B34"/>
		<stop  offset="0.47" style="stop-color:#864927"/>
		<stop  offset="0.86" style="stop-color:#552C13"/>
		<stop  offset="1" style="stop-color:#42210B"/>
	</radialGradient>
	
		<rect x="0.5" y="611.3" style="fill:url(#SVGID_00000134935845947835711810000015893491272313157038_);stroke:#42210B;stroke-width:1.1389;stroke-miterlimit:10;" width="999.5" height="30.3"/>
	
		<radialGradient id="SVGID_00000007402918198676328300000006947894182072167575_" cx="415.7032" cy="2149.9683" r="317.9745" gradientTransform="matrix(1.1118 0 0 1.1667 38.0712 -1912.218)" gradientUnits="userSpaceOnUse">
		<stop  offset="0" style="stop-color:#B06239"/>
		<stop  offset="0.17" style="stop-color:#A55B34"/>
		<stop  offset="0.47" style="stop-color:#864927"/>
		<stop  offset="0.86" style="stop-color:#552C13"/>
		<stop  offset="1" style="stop-color:#42210B"/>
	</radialGradient>
	
		<rect x="0.5" y="581" style="fill:url(#SVGID_00000007402918198676328300000006947894182072167575_);stroke:#42210B;stroke-width:1.1389;stroke-miterlimit:10;" width="999.5" height="30.3"/>
	
		<radialGradient id="SVGID_00000032608261482542471030000011026644553025535653_" cx="415.7032" cy="2125.969" r="317.9745" gradientTransform="matrix(1.1118 0 0 1.1667 38.0712 -1912.218)" gradientUnits="userSpaceOnUse">
		<stop  offset="0" style="stop-color:#B06239"/>
		<stop  offset="0.17" style="stop-color:#A55B34"/>
		<stop  offset="0.47" style="stop-color:#864927"/>
		<stop  offset="0.86" style="stop-color:#552C13"/>
		<stop  offset="1" style="stop-color:#42210B"/>
	</radialGradient>
	
		<rect x="0.5" y="553" style="fill:url(#SVGID_00000032608261482542471030000011026644553025535653_);stroke:#42210B;stroke-width:1.1389;stroke-miterlimit:10;" width="999.5" height="30.3"/>
</g>
<g id="Layer_1-2">
	<g>
		<g>
			<rect x="654.4" y="278.3" class="st6" width="304.4" height="23.3"/>
			<polygon class="st7" points="958.8,278.3 654.4,278.3 661.3,240.9 958.8,240.9 			"/>
		</g>
	</g>
</g>
<g>
	<path class="st7" d="M74.4,462.8l-66-354.9c0.3-0.4,1.8-2.8,4.9-3.5c3.3-0.7,5.8,1.1,6.2,1.4c22,118.3,44,236.6,66,354.9
		L74.4,462.8z"/>
	<path class="st8" d="M147.2,567.1c-4.2,2.9-10.3,6.6-17.9,10c-5.4,2.4-11.6,4.7-18.5,6.6c-2.8,0.7-5.8,1.4-8.9,2
		c-3.5,0.6-6.9,1.1-10.2,1.4c-7.2,0.7-13.8,0.7-19.7,0.2c-8.4-0.6-15.4-2-20.3-3.2c0.4-16.8,1.9-36.1,5.5-57.2
		c2.7-15.7,6.1-29.6,9.6-41.6c2.1-0.4,4.3-0.8,6.4-1.2c2.1-0.4,4.2-0.8,6.3-1.1c2.1-0.4,4.3-0.8,6.4-1.1c2.1-0.4,4.2-0.8,6.4-1.1
		c2.1-0.4,4.2-0.7,6.3-1.1c7.8,9.9,16.5,22.2,25,37.1C134.3,535.1,141.8,552.5,147.2,567.1z"/>
	<line class="st9" x1="73.2" y1="484.2" x2="71.9" y2="586.9"/>
	<line class="st9" x1="79.6" y1="483" x2="91.6" y2="587.3"/>
	<line class="st9" x1="85.9" y1="481.9" x2="110.7" y2="583.9"/>
	<line class="st9" x1="92.3" y1="480.8" x2="129.2" y2="576.7"/>
	<path class="st8" d="M96.2,465.6l-6.4,1.1l-6.4,1.1L77,469l-6.4,1.1l-6.4,1.1l-18.5-37.4c3.1-1.5,6.9-3.2,11.3-4.7
		c3.1-1.1,6.4-2.1,10-2.9c1.5-0.4,3.2-0.7,4.8-1c2.1-0.4,4.2-0.7,6.1-0.9c4-0.5,7.7-0.7,11.2-0.7c4.3-0.1,8.1,0.2,11.4,0.5
		C99.1,437.9,97.6,451.8,96.2,465.6z"/>
	<line class="st9" x1="56.8" y1="429.3" x2="70.7" y2="470.2"/>
	<path class="st9" d="M77.1,469l-10.2-42.8"/>
	<line class="st9" x1="79.8" y1="423.9" x2="84.2" y2="467.7"/>
	<line class="st9" x1="90.2" y1="423.5" x2="90.6" y2="466.7"/>
	<path class="st10" d="M34.7,113.5"/>
	<path class="st11" d="M97.3,470.8L65,476.6c-0.3-0.2-1.1-0.8-1.4-1.9c-0.5-1.7,0.4-3.1,0.5-3.3c10.8-1.9,21.5-3.8,32.3-5.8
		c0.2,0.1,1.5,1.2,1.6,2.9C98,469.7,97.5,470.5,97.3,470.8z"/>
	<path class="st11" d="M98.2,475.3L66,481.1c-0.3-0.2-1.1-0.8-1.4-1.9c-0.5-1.7,0.4-3.1,0.5-3.3c10.8-1.9,21.5-3.8,32.3-5.8
		c0.2,0.1,1.5,1.2,1.6,2.9C99,474.2,98.4,475,98.2,475.3z"/>
	<path class="st11" d="M99.2,480.4l-32.3,5.8c-0.3-0.2-1.1-0.8-1.4-1.9c-0.5-1.7,0.4-3.1,0.5-3.3c10.8-1.9,21.5-3.8,32.3-5.8
		c0.2,0.1,1.5,1.2,1.6,2.9C99.9,479.3,99.4,480.1,99.2,480.4z"/>
</g>
<g>
	<path class="st12" d="M577.3,595.9c-1.1,0.6-6.3,3.5-14.5,3.5c-1.5,0-8.6-0.1-14.5-3.5c0-26.5,0-53.1,0-79.6
		c1.9-0.8,7.2-2.6,14.5-2.6c2.3,0,8.4,0.2,14.5,2.6C577.3,542.8,577.3,569.3,577.3,595.9z"/>
	<path class="st13" d="M577.3,595.9c-1.1,0.6-6.3,3.5-14.5,3.5c-1.5,0-8.6-0.1-14.5-3.5c0-26.5,0-52.8,0-79.3
		c0.4,0.4,5.5,2.6,14.5,2.6s14.1-2.2,14.5-2.6C577.3,543.1,577.3,569.4,577.3,595.9z"/>
	<line class="st14" x1="562.8" y1="516.6" x2="562.8" y2="512.2"/>
	<path class="st15" d="M571.7,496.8l-3.9-7.3l-4.6-8.8l-4.6,8.8l-3.7,7c-1.5,2.9-2,5-2,6.3c0,5.9,4.6,10.7,10.3,10.7
		s10.3-4.8,10.3-10.7C573.4,501,572.6,498.8,571.7,496.8z"/>
	<path class="st16" d="M563.1,513.6c-5.1,0-9.2-4.3-9.2-9.6c0-0.7,0.2-2.5,1.9-5.8l7.3-13.9l7.5,14.2c1.1,2.3,1.7,4.1,1.7,5.5
		C572.4,509.2,568.2,513.6,563.1,513.6z"/>
	<path class="st17" d="M563.1,513.6c-4,0-7.3-3.4-7.3-7.7c0-0.3,0.1-1.9,1.7-5l5.6-10.7l5.8,11c1,1.9,1.4,3.5,1.4,4.6
		C570.4,510.1,567.2,513.6,563.1,513.6z"/>
	<path class="st12" d="M610.7,607.8c-1.1,0.6-6.3,3.5-14.5,3.5c-1.5,0-8.6-0.1-14.5-3.5c0-26.5,0-53.1,0-79.6
		c1.9-0.8,7.2-2.6,14.5-2.6c2.3,0,8.4,0.2,14.5,2.6C610.7,554.8,610.7,581.3,610.7,607.8z"/>
	<path class="st13" d="M610.7,607.8c-1.1,0.6-6.3,3.5-14.5,3.5c-1.5,0-8.6-0.1-14.5-3.5c0-26.5,0-52.8,0-79.3
		c0.4,0.4,5.5,2.6,14.5,2.6s14.1-2.2,14.5-2.6C610.7,555,610.7,581.3,610.7,607.8z"/>
	<line class="st14" x1="596.2" y1="528.5" x2="596.2" y2="524.2"/>
	<path class="st15" d="M605.1,508.8l-3.9-7.3l-4.6-8.8l-4.6,8.8l-3.7,7c-1.5,2.9-2,5-2,6.3c0,5.9,4.6,10.7,10.3,10.7
		s10.3-4.8,10.3-10.7C606.9,512.9,606.1,510.8,605.1,508.8z"/>
	<path class="st16" d="M596.6,525.5c-5.1,0-9.2-4.3-9.2-9.6c0-0.7,0.2-2.5,1.9-5.8l7.3-13.9l7.5,14.2c1.1,2.3,1.7,4.1,1.7,5.5
		C605.8,521.2,601.6,525.5,596.6,525.5z"/>
	<path class="st17" d="M596.6,525.5c-4,0-7.3-3.4-7.3-7.7c0-0.3,0.1-1.9,1.7-5l5.6-10.7l5.8,11c1,1.9,1.4,3.5,1.4,4.6
		C603.8,522.1,600.6,525.5,596.6,525.5z"/>
	<path class="st12" d="M644.5,588.6c-1.1,0.6-6.3,3.5-14.5,3.5c-1.5,0-8.6-0.1-14.5-3.5c0-26.5,0-53.1,0-79.6
		c1.9-0.8,7.2-2.6,14.5-2.6c2.3,0,8.4,0.2,14.5,2.6C644.5,535.5,644.5,562,644.5,588.6z"/>
	<path class="st13" d="M644.5,588.6c-1.1,0.6-6.3,3.5-14.5,3.5c-1.5,0-8.6-0.1-14.5-3.5c0-26.5,0-52.8,0-79.3
		c0.4,0.4,5.5,2.6,14.5,2.6s14.1-2.2,14.5-2.6C644.5,535.8,644.5,562.1,644.5,588.6z"/>
	<line class="st14" x1="630" y1="509.3" x2="630" y2="504.9"/>
	<path class="st15" d="M638.8,489.5l-3.9-7.3l-4.6-8.8l-4.6,8.8l-3.7,7c-1.5,2.9-2,5-2,6.3c0,5.9,4.6,10.7,10.3,10.7
		s10.3-4.8,10.3-10.7C640.6,493.7,639.8,491.5,638.8,489.5z"/>
	<path class="st16" d="M630.3,506.2c-5.1,0-9.2-4.3-9.2-9.6c0-0.7,0.2-2.5,1.9-5.8l7.3-13.9l7.5,14.2c1.1,2.3,1.7,4.1,1.7,5.5
		C639.5,501.9,635.4,506.2,630.3,506.2z"/>
	<path class="st17" d="M630.3,506.2c-4,0-7.3-3.4-7.3-7.7c0-0.3,0.1-1.9,1.7-5l5.6-10.7l5.8,11c1,1.9,1.4,3.5,1.4,4.6
		C637.6,502.8,634.3,506.2,630.3,506.2z"/>
</g>
</svg>
