<?xml version="1.0" encoding="UTF-8"?>
<svg id="Layer_2" data-name="Layer 2" xmlns="http://www.w3.org/2000/svg" viewBox="0 0 127.44 119.6">
  <defs>
    <style>
      .cls-1 {
        fill: aqua;
      }

      .cls-2 {
        fill: #cad8ef;
      }

      .cls-3 {
        fill: #9aaecc;
      }
    </style>
  </defs>
  <g id="Layer_1-2" data-name="Layer 1">
    <path class="cls-2" d="M6.02,55.59l8.07,14.46c.65,1.17,.23,2.64-.93,3.29L0,80.69l13.56,24.28,13.16-7.35c1.17-.65,2.64-.23,3.29,.93l8.07,14.46c3.47,6.2,11.31,8.43,17.51,4.96l65.25-36.44c6.2-3.47,8.43-11.31,4.96-17.51L93.73,6.6c-3.47-6.2-11.31-8.43-17.51-4.96L10.98,38.08c-6.2,3.47-8.43,11.31-4.96,17.51Z"/>
    <rect class="cls-3" x="19.71" y="17.64" width="92.4" height="84.32" rx="9.76" ry="9.76" transform="translate(-20.79 39.73) rotate(-29.19)"/>
    <path class="cls-1" d="M104.46,41.44l14.05,25.16c1.97,3.52,.71,7.97-2.81,9.94L50.23,113.1c-1.13,.63-2.56,.23-3.19-.9l-18.89-33.82c-.63-1.13-.23-2.56,.9-3.19L94.52,38.62c3.52-1.97,7.97-.71,9.94,2.81Z"/>
    <path class="cls-1" d="M71.14,57.66l1.55,2.78c1.38,2.47,.5,5.6-1.98,6.98L2.75,105.39c-.79,.44-1.8,.16-2.24-.63l-.24-12.14c-.02-.79,.41-1.53,1.1-1.92l62.78-35.02c2.47-1.38,5.6-.5,6.98,1.98Z"/>
  </g>
</svg>