<svg width="114" height="104" viewBox="0 0 114 104" fill="none" xmlns="http://www.w3.org/2000/svg">
<path d="M24.7617 43.3185L30.6067 53.4423C31.0767 54.2564 30.8035 55.3033 29.9808 55.7783L20.7663 61.0983L30.5763 78.0897L39.7908 72.7697C40.6049 72.2997 41.6517 72.5729 42.1267 73.3956L47.9717 83.5194C50.4817 87.8669 56.0364 89.3479 60.3752 86.8429L106.058 60.4679C110.405 57.9579 111.887 52.4032 109.382 48.0644L86.1716 7.86351C83.6616 3.51606 78.1068 2.035 73.768 4.54L28.0852 30.915C23.7378 33.425 22.2567 38.9797 24.7617 43.3185Z" fill="#CAD8EF"/>
<path d="M27.4049 42.1966L50.2699 81.8C52.1725 85.0954 56.3864 86.2245 59.6818 84.3219L104.221 58.6069C107.517 56.7043 108.646 52.4904 106.743 49.195L83.8784 9.59162C81.9758 6.29618 77.7619 5.16708 74.4665 7.0697L29.9268 32.7847C26.6314 34.6873 25.5023 38.9012 27.4049 42.1966Z" fill="#9AAECC"/>
<path d="M92.8513 29.9532L105.381 51.6556C106.2 53.0737 103.903 55.9385 100.234 58.057L57.5028 82.7278C56.3302 83.4048 54.1548 82.9287 53.6548 82.0627L39.8819 58.2074C39.6193 57.7526 40.363 56.8277 41.5357 56.1507L87.9022 29.381C91.5588 27.2699 92.0298 28.5302 92.8513 29.9532Z" fill="#FFFF00"/>
<path d="M66.6827 42.6278L70.3204 48.9285C70.5581 49.3402 67.7884 51.386 64.1192 53.5044L20.9209 78.4449C19.7483 79.122 18.7277 79.5673 18.6515 79.4353C18.5753 79.3033 17.3881 71.247 18.0162 69.7297L59.6192 45.7102C63.2758 43.599 66.4442 42.2146 66.6827 42.6278Z" fill="#FFFF00"/>
</svg>
