<?xml version="1.0" encoding="UTF-8"?>
<svg id="Layer_2" data-name="Layer 2" xmlns="http://www.w3.org/2000/svg" viewBox="0 0 64.58 97.82">
  <defs>
    <style>
      .cls-1 {
        fill: red;
      }

      .cls-2 {
        fill: #995939;
      }

      .cls-3 {
        fill: #c47e57;
      }

      .cls-4 {
        fill: #dda058;
      }

      .cls-5 {
        fill: #cad8ef;
      }

      .cls-6 {
        fill: #9aaecc;
      }
    </style>
  </defs>
  <g id="Layer_1-2" data-name="Layer 1">
    <g>
      <g>
        <g>
          <path class="cls-2" d="M40.74,8.92c-2.47,7.97-9.27,13.03-15.58,11.84l.75,5.2h12.48l2.6-17.91c-.08,.29-.16,.58-.25,.87Z"/>
          <path class="cls-3" d="M40.74,8.92c.09-.29,.17-.58,.25-.87l.53-3.63c.08-.59-.37-1.11-.96-1.11H23.75c-.59,0-1.05,.53-.96,1.11l2.37,16.35c6.31,1.19,13.11-3.87,15.58-11.84Z"/>
        </g>
        <ellipse class="cls-4" cx="32.15" cy="3.64" rx="9.5" ry="3.64"/>
      </g>
      <path class="cls-5" d="M55.5,26.91h-11.69c-.94,0-1.71-.76-1.71-1.71V14.56H22.48v10.64c0,.94-.76,1.71-1.71,1.71H9.08c-5.02,0-9.08,4.07-9.08,9.08v52.75c0,5.02,4.07,9.08,9.08,9.08H55.5c5.02,0,9.08-4.07,9.08-9.08V35.99c0-5.02-4.07-9.08-9.08-9.08Z"/>
      <rect class="cls-6" x="2.53" y="29.76" width="59.51" height="65.21" rx="6.89" ry="6.89"/>
      <path class="cls-1" d="M54.48,92.44H10.1c-2.9,0-5.26-2.35-5.26-5.26V52.92c0-.93,.76-1.69,1.69-1.69H58.05c.93,0,1.69,.76,1.69,1.69v34.26c0,2.9-2.35,5.26-5.26,5.26Z"/>
    </g>
  </g>
</svg>